<?xml version="1.0" encoding="UTF-8" standalone="no"?>
<!DOCTYPE svg PUBLIC "-//W3C//DTD SVG 1.1//EN"
 "http://www.w3.org/Graphics/SVG/1.1/DTD/svg11.dtd">
<!-- Generated by graphviz version 2.44.0 (20200408.0750)
 -->
<!-- Title: dependency&#45;cruiser output Pages: 1 -->
<svg width="110pt" height="138pt"
 viewBox="0.00 0.00 110.00 138.00" xmlns="http://www.w3.org/2000/svg" xmlns:xlink="http://www.w3.org/1999/xlink">
<g id="graph0" class="graph" transform="scale(1 1) rotate(0) translate(4 134)">
<title>dependency&#45;cruiser output</title>
<polygon fill="white" stroke="transparent" points="-4,4 -4,-134 106,-134 106,4 -4,4"/>
<g id="clust1" class="cluster">
<title>cluster_src</title>
<path fill="#ffffff" stroke="black" stroke-width="2" d="M20,-8C20,-8 82,-8 82,-8 88,-8 94,-14 94,-20 94,-20 94,-110 94,-110 94,-116 88,-122 82,-122 82,-122 20,-122 20,-122 14,-122 8,-116 8,-110 8,-110 8,-20 8,-20 8,-14 14,-8 20,-8"/>
<text text-anchor="middle" x="51" y="-109.9" font-family="Helvetica,sans-Serif" font-weight="bold" font-size="9.00">src</text>
</g>
<g id="clust2" class="cluster">
<title>cluster_src/init</title>
<path fill="#ffffff" stroke="black" stroke-width="2" d="M28,-42C28,-42 74,-42 74,-42 80,-42 86,-48 86,-54 86,-54 86,-83 86,-83 86,-89 80,-95 74,-95 74,-95 28,-95 28,-95 22,-95 16,-89 16,-83 16,-83 16,-54 16,-54 16,-48 22,-42 28,-42"/>
<text text-anchor="middle" x="51" y="-82.9" font-family="Helvetica,sans-Serif" font-weight="bold" font-size="9.00">init</text>
</g>
<!-- src/data.js -->
<g id="node1" class="node">
<title>src/data.js</title>
<g id="a_node1"><a xlink:href="../src/data.js" xlink:title="data.js">
<path fill="#ccffcc" stroke="black" d="M71.8,-34.3C71.8,-34.3 30.2,-34.3 30.2,-34.3 27.1,-34.3 24,-31.2 24,-28.1 24,-28.1 24,-21.9 24,-21.9 24,-18.8 27.1,-15.7 30.2,-15.7 30.2,-15.7 71.8,-15.7 71.8,-15.7 74.9,-15.7 78,-18.8 78,-21.9 78,-21.9 78,-28.1 78,-28.1 78,-31.2 74.9,-34.3 71.8,-34.3"/>
<text text-anchor="middle" x="51" y="-22.3" font-family="Helvetica,sans-Serif" font-size="9.00">data.js</text>
</a>
</g>
</g>
<!-- src/init/index.js -->
<g id="node2" class="node">
<title>src/init/index.js</title>
<g id="a_node2"><a xlink:href="../src/init/index.js" xlink:title="index.js">
<path fill="#ccffcc" stroke="black" d="M71.8,-68.3C71.8,-68.3 30.2,-68.3 30.2,-68.3 27.1,-68.3 24,-65.2 24,-62.1 24,-62.1 24,-55.9 24,-55.9 24,-52.8 27.1,-49.7 30.2,-49.7 30.2,-49.7 71.8,-49.7 71.8,-49.7 74.9,-49.7 78,-52.8 78,-55.9 78,-55.9 78,-62.1 78,-62.1 78,-65.2 74.9,-68.3 71.8,-68.3"/>
<text text-anchor="middle" x="51" y="-56.3" font-family="Helvetica,sans-Serif" font-size="9.00">index.js</text>
</a>
</g>
</g>
</g>
</svg>
