<?xml version="1.0" encoding="UTF-8" standalone="no"?>
<!DOCTYPE svg PUBLIC "-//W3C//DTD SVG 1.1//EN"
 "http://www.w3.org/Graphics/SVG/1.1/DTD/svg11.dtd">
<!-- Generated by graphviz version 2.44.0 (20200408.0750)
 -->
<!-- Title: dependency&#45;cruiser output Pages: 1 -->
<svg width="353pt" height="234pt"
 viewBox="0.00 0.00 353.06 234.00" xmlns="http://www.w3.org/2000/svg" xmlns:xlink="http://www.w3.org/1999/xlink">
<g id="graph0" class="graph" transform="scale(1 1) rotate(0) translate(4 230)">
<title>dependency&#45;cruiser output</title>
<polygon fill="white" stroke="transparent" points="-4,4 -4,-230 349.06,-230 349.06,4 -4,4"/>
<g id="clust1" class="cluster">
<title>cluster_src</title>
<path fill="#ffffff" stroke="black" stroke-width="2" d="M20,-8C20,-8 325.06,-8 325.06,-8 331.06,-8 337.06,-14 337.06,-20 337.06,-20 337.06,-206 337.06,-206 337.06,-212 331.06,-218 325.06,-218 325.06,-218 20,-218 20,-218 14,-218 8,-212 8,-206 8,-206 8,-20 8,-20 8,-14 14,-8 20,-8"/>
<text text-anchor="middle" x="172.53" y="-205.9" font-family="Helvetica,sans-Serif" font-weight="bold" font-size="9.00">src</text>
</g>
<g id="clust2" class="cluster">
<title>cluster_src/components</title>
<path fill="#ffffff" stroke="black" stroke-width="2" d="M28,-138C28,-138 190.54,-138 190.54,-138 196.54,-138 202.54,-144 202.54,-150 202.54,-150 202.54,-179 202.54,-179 202.54,-185 196.54,-191 190.54,-191 190.54,-191 28,-191 28,-191 22,-191 16,-185 16,-179 16,-179 16,-150 16,-150 16,-144 22,-138 28,-138"/>
<text text-anchor="middle" x="109.27" y="-178.9" font-family="Helvetica,sans-Serif" font-weight="bold" font-size="9.00">components</text>
</g>
<g id="clust3" class="cluster">
<title>cluster_src/handlers</title>
<path fill="#ffffff" stroke="black" stroke-width="2" d="M222.54,-45C222.54,-45 317.06,-45 317.06,-45 323.06,-45 329.06,-51 329.06,-57 329.06,-57 329.06,-179 329.06,-179 329.06,-185 323.06,-191 317.06,-191 317.06,-191 222.54,-191 222.54,-191 216.54,-191 210.54,-185 210.54,-179 210.54,-179 210.54,-57 210.54,-57 210.54,-51 216.54,-45 222.54,-45"/>
<text text-anchor="middle" x="269.8" y="-178.9" font-family="Helvetica,sans-Serif" font-weight="bold" font-size="9.00">handlers</text>
</g>
<g id="clust4" class="cluster">
<title>cluster_src/init</title>
<path fill="#ffffff" stroke="black" stroke-width="2" d="M45.76,-77C45.76,-77 91.76,-77 91.76,-77 97.76,-77 103.76,-83 103.76,-89 103.76,-89 103.76,-118 103.76,-118 103.76,-124 97.76,-130 91.76,-130 91.76,-130 45.76,-130 45.76,-130 39.76,-130 33.76,-124 33.76,-118 33.76,-118 33.76,-89 33.76,-89 33.76,-83 39.76,-77 45.76,-77"/>
<text text-anchor="middle" x="68.76" y="-117.9" font-family="Helvetica,sans-Serif" font-weight="bold" font-size="9.00">init</text>
</g>
<g id="clust5" class="cluster">
<title>cluster_src/listeners</title>
<path fill="#ffffff" stroke="black" stroke-width="2" d="M137.53,-76C137.53,-76 183.53,-76 183.53,-76 189.53,-76 195.53,-82 195.53,-88 195.53,-88 195.53,-117 195.53,-117 195.53,-123 189.53,-129 183.53,-129 183.53,-129 137.53,-129 137.53,-129 131.53,-129 125.53,-123 125.53,-117 125.53,-117 125.53,-88 125.53,-88 125.53,-82 131.53,-76 137.53,-76"/>
<text text-anchor="middle" x="160.53" y="-116.9" font-family="Helvetica,sans-Serif" font-weight="bold" font-size="9.00">listeners</text>
</g>
<g id="clust6" class="cluster">
<title>cluster_src/procedures</title>
<path fill="#ffffff" stroke="black" stroke-width="2" d="M42.51,-16C42.51,-16 95.02,-16 95.02,-16 101.02,-16 107.02,-22 107.02,-28 107.02,-28 107.02,-57 107.02,-57 107.02,-63 101.02,-69 95.02,-69 95.02,-69 42.51,-69 42.51,-69 36.51,-69 30.51,-63 30.51,-57 30.51,-57 30.51,-28 30.51,-28 30.51,-22 36.51,-16 42.51,-16"/>
<text text-anchor="middle" x="68.76" y="-56.9" font-family="Helvetica,sans-Serif" font-weight="bold" font-size="9.00">procedures</text>
</g>
<!-- src/components/add&#45;button.js -->
<g id="node1" class="node">
<title>src/components/add&#45;button.js</title>
<g id="a_node1"><a xlink:href="../src/components/add-button.js" xlink:title="add&#45;button.js">
<path fill="#ffffcc" stroke="black" d="M188.35,-164.3C188.35,-164.3 132.72,-164.3 132.72,-164.3 129.62,-164.3 126.52,-161.2 126.52,-158.1 126.52,-158.1 126.52,-151.9 126.52,-151.9 126.52,-148.8 129.62,-145.7 132.72,-145.7 132.72,-145.7 188.35,-145.7 188.35,-145.7 191.45,-145.7 194.55,-148.8 194.55,-151.9 194.55,-151.9 194.55,-158.1 194.55,-158.1 194.55,-161.2 191.45,-164.3 188.35,-164.3"/>
<text text-anchor="middle" x="160.53" y="-152.3" font-family="Helvetica,sans-Serif" font-size="9.00">add&#45;button.js</text>
</a>
</g>
</g>
<!-- src/handlers/addButtonHandler.js -->
<g id="node2" class="node">
<title>src/handlers/addButtonHandler.js</title>
<g id="a_node2"><a xlink:href="../src/handlers/addButtonHandler.js" xlink:title="addButtonHandler.js">
<path fill="#ffffcc" stroke="black" d="M312.13,-164.3C312.13,-164.3 227.48,-164.3 227.48,-164.3 224.38,-164.3 221.28,-161.2 221.28,-158.1 221.28,-158.1 221.28,-151.9 221.28,-151.9 221.28,-148.8 224.38,-145.7 227.48,-145.7 227.48,-145.7 312.13,-145.7 312.13,-145.7 315.23,-145.7 318.33,-148.8 318.33,-151.9 318.33,-151.9 318.33,-158.1 318.33,-158.1 318.33,-161.2 315.23,-164.3 312.13,-164.3"/>
<text text-anchor="middle" x="269.8" y="-152.3" font-family="Helvetica,sans-Serif" font-size="9.00">addButtonHandler.js</text>
</a>
</g>
</g>
<!-- src/components/add&#45;button.js&#45;&gt;src/handlers/addButtonHandler.js -->
<g id="edge1" class="edge">
<title>src/components/add&#45;button.js&#45;&gt;src/handlers/addButtonHandler.js</title>
<path fill="none" stroke="#000000" stroke-width="2" stroke-opacity="0.200000" d="M194.59,-155C201,-155 207.88,-155 214.76,-155"/>
<polygon fill="#000000" fill-opacity="0.200000" stroke="#000000" stroke-width="2" stroke-opacity="0.200000" points="215.07,-157.1 221.07,-155 215.07,-152.9 215.07,-157.1"/>
</g>
<!-- src/components/add&#45;button.spec.js -->
<g id="node3" class="node">
<title>src/components/add&#45;button.spec.js</title>
<g id="a_node3"><a xlink:href="../src/components/add-button.spec.js" xlink:title="add&#45;button.spec.js">
<path fill="#ffffcc" stroke="black" d="M107.09,-164.3C107.09,-164.3 30.44,-164.3 30.44,-164.3 27.34,-164.3 24.24,-161.2 24.24,-158.1 24.24,-158.1 24.24,-151.9 24.24,-151.9 24.24,-148.8 27.34,-145.7 30.44,-145.7 30.44,-145.7 107.09,-145.7 107.09,-145.7 110.19,-145.7 113.29,-148.8 113.29,-151.9 113.29,-151.9 113.29,-158.1 113.29,-158.1 113.29,-161.2 110.19,-164.3 107.09,-164.3"/>
<text text-anchor="middle" x="68.76" y="-152.3" font-family="Helvetica,sans-Serif" font-size="9.00">add&#45;button.spec.js</text>
</a>
</g>
</g>
<!-- src/components/add&#45;button.spec.js&#45;&gt;src/components/add&#45;button.js -->
<g id="edge2" class="edge">
<title>src/components/add&#45;button.spec.js&#45;&gt;src/components/add&#45;button.js</title>
<path fill="none" stroke="#000000" stroke-width="2" stroke-opacity="0.200000" d="M113.33,-155C115.66,-155 117.99,-155 120.3,-155"/>
<polygon fill="#000000" fill-opacity="0.200000" stroke="#000000" stroke-width="2" stroke-opacity="0.200000" points="120.35,-157.1 126.35,-155 120.35,-152.9 120.35,-157.1"/>
</g>
<!-- src/handlers/add_buttonhandler.js -->
<g id="node4" class="node">
<title>src/handlers/add_buttonhandler.js</title>
<g id="a_node4"><a xlink:href="../src/handlers/add_buttonhandler.js" xlink:title="add_buttonhandler.js">
<path fill="#ffffcc" stroke="black" d="M313.64,-133.3C313.64,-133.3 225.97,-133.3 225.97,-133.3 222.87,-133.3 219.77,-130.2 219.77,-127.1 219.77,-127.1 219.77,-120.9 219.77,-120.9 219.77,-117.8 222.87,-114.7 225.97,-114.7 225.97,-114.7 313.64,-114.7 313.64,-114.7 316.74,-114.7 319.84,-117.8 319.84,-120.9 319.84,-120.9 319.84,-127.1 319.84,-127.1 319.84,-130.2 316.74,-133.3 313.64,-133.3"/>
<text text-anchor="middle" x="269.8" y="-121.3" font-family="Helvetica,sans-Serif" font-size="9.00">add_buttonhandler.js</text>
</a>
</g>
</g>
<!-- src/handlers/deleteTodoHandler.js -->
<g id="node5" class="node">
<title>src/handlers/deleteTodoHandler.js</title>
<g id="a_node5"><a xlink:href="../src/handlers/deleteTodoHandler.js" xlink:title="deleteTodoHandler.js">
<path fill="#ffffcc" stroke="black" d="M314.12,-102.3C314.12,-102.3 225.48,-102.3 225.48,-102.3 222.38,-102.3 219.28,-99.2 219.28,-96.1 219.28,-96.1 219.28,-89.9 219.28,-89.9 219.28,-86.8 222.38,-83.7 225.48,-83.7 225.48,-83.7 314.12,-83.7 314.12,-83.7 317.22,-83.7 320.32,-86.8 320.32,-89.9 320.32,-89.9 320.32,-96.1 320.32,-96.1 320.32,-99.2 317.22,-102.3 314.12,-102.3"/>
<text text-anchor="middle" x="269.8" y="-90.3" font-family="Helvetica,sans-Serif" font-size="9.00">deleteTodoHandler.js</text>
</a>
</g>
</g>
<!-- src/handlers/resetButtonHandler.js -->
<g id="node6" class="node">
<title>src/handlers/resetButtonHandler.js</title>
<g id="a_node6"><a xlink:href="../src/handlers/resetButtonHandler.js" xlink:title="resetButtonHandler.js">
<path fill="#ffffcc" stroke="black" d="M314.62,-71.3C314.62,-71.3 224.98,-71.3 224.98,-71.3 221.88,-71.3 218.78,-68.2 218.78,-65.1 218.78,-65.1 218.78,-58.9 218.78,-58.9 218.78,-55.8 221.88,-52.7 224.98,-52.7 224.98,-52.7 314.62,-52.7 314.62,-52.7 317.72,-52.7 320.82,-55.8 320.82,-58.9 320.82,-58.9 320.82,-65.1 320.82,-65.1 320.82,-68.2 317.72,-71.3 314.62,-71.3"/>
<text text-anchor="middle" x="269.8" y="-59.3" font-family="Helvetica,sans-Serif" font-size="9.00">resetButtonHandler.js</text>
</a>
</g>
</g>
<!-- src/init/index.js -->
<g id="node7" class="node">
<title>src/init/index.js</title>
<g id="a_node7"><a xlink:href="../src/init/index.js" xlink:title="index.js">
<path fill="#ffffcc" stroke="black" d="M89.56,-103.3C89.56,-103.3 47.96,-103.3 47.96,-103.3 44.86,-103.3 41.76,-100.2 41.76,-97.1 41.76,-97.1 41.76,-90.9 41.76,-90.9 41.76,-87.8 44.86,-84.7 47.96,-84.7 47.96,-84.7 89.56,-84.7 89.56,-84.7 92.66,-84.7 95.76,-87.8 95.76,-90.9 95.76,-90.9 95.76,-97.1 95.76,-97.1 95.76,-100.2 92.66,-103.3 89.56,-103.3"/>
<text text-anchor="middle" x="68.76" y="-91.3" font-family="Helvetica,sans-Serif" font-size="9.00">index.js</text>
</a>
</g>
</g>
<!-- src/listeners/listener.js -->
<g id="node8" class="node">
<title>src/listeners/listener.js</title>
<g id="a_node8"><a xlink:href="../src/listeners/listener.js" xlink:title="listener.js">
<path fill="#ffffcc" stroke="black" d="M181.33,-102.3C181.33,-102.3 139.74,-102.3 139.74,-102.3 136.63,-102.3 133.53,-99.2 133.53,-96.1 133.53,-96.1 133.53,-89.9 133.53,-89.9 133.53,-86.8 136.63,-83.7 139.74,-83.7 139.74,-83.7 181.33,-83.7 181.33,-83.7 184.43,-83.7 187.53,-86.8 187.53,-89.9 187.53,-89.9 187.53,-96.1 187.53,-96.1 187.53,-99.2 184.43,-102.3 181.33,-102.3"/>
<text text-anchor="middle" x="160.53" y="-90.3" font-family="Helvetica,sans-Serif" font-size="9.00">listener.js</text>
</a>
</g>
</g>
<!-- src/init/index.js&#45;&gt;src/listeners/listener.js -->
<g id="edge3" class="edge">
<title>src/init/index.js&#45;&gt;src/listeners/listener.js</title>
<path fill="none" stroke="#000000" stroke-width="2" stroke-opacity="0.200000" d="M96.21,-93.71C105.89,-93.6 116.96,-93.47 127.1,-93.36"/>
<polygon fill="#000000" fill-opacity="0.200000" stroke="#000000" stroke-width="2" stroke-opacity="0.200000" points="127.3,-95.46 133.27,-93.29 127.25,-91.26 127.3,-95.46"/>
</g>
<!-- src/listeners/listener.js&#45;&gt;src/handlers/add_buttonhandler.js -->
<g id="edge4" class="edge">
<title>src/listeners/listener.js&#45;&gt;src/handlers/add_buttonhandler.js</title>
<path fill="none" stroke="#000000" stroke-width="2" stroke-opacity="0.200000" d="M187.69,-101.16C195.07,-103.42 203.11,-105.84 210.54,-108 216.29,-109.67 222.36,-111.38 228.33,-113.05"/>
<polygon fill="#000000" fill-opacity="0.200000" stroke="#000000" stroke-width="2" stroke-opacity="0.200000" points="227.91,-115.11 234.25,-114.69 229.03,-111.06 227.91,-115.11"/>
</g>
<!-- src/listeners/listener.js&#45;&gt;src/handlers/deleteTodoHandler.js -->
<g id="edge5" class="edge">
<title>src/listeners/listener.js&#45;&gt;src/handlers/deleteTodoHandler.js</title>
<path fill="none" stroke="#000000" stroke-width="2" stroke-opacity="0.200000" d="M187.78,-93C195.44,-93 204.11,-93 212.88,-93"/>
<polygon fill="#000000" fill-opacity="0.200000" stroke="#000000" stroke-width="2" stroke-opacity="0.200000" points="212.94,-95.1 218.94,-93 212.94,-90.9 212.94,-95.1"/>
</g>
<!-- src/listeners/listener.js&#45;&gt;src/handlers/resetButtonHandler.js -->
<g id="edge6" class="edge">
<title>src/listeners/listener.js&#45;&gt;src/handlers/resetButtonHandler.js</title>
<path fill="none" stroke="#000000" stroke-width="2" stroke-opacity="0.200000" d="M187.69,-84.84C195.07,-82.58 203.11,-80.16 210.54,-78 216.29,-76.33 222.36,-74.62 228.33,-72.95"/>
<polygon fill="#000000" fill-opacity="0.200000" stroke="#000000" stroke-width="2" stroke-opacity="0.200000" points="229.03,-74.94 234.25,-71.31 227.91,-70.89 229.03,-74.94"/>
</g>
<!-- src/procedures/addTodo.js -->
<g id="node9" class="node">
<title>src/procedures/addTodo.js</title>
<g id="a_node9"><a xlink:href="../src/procedures/addTodo.js" xlink:title="addTodo.js">
<path fill="#ccffcc" stroke="black" d="M92.58,-42.3C92.58,-42.3 44.95,-42.3 44.95,-42.3 41.85,-42.3 38.75,-39.2 38.75,-36.1 38.75,-36.1 38.75,-29.9 38.75,-29.9 38.75,-26.8 41.85,-23.7 44.95,-23.7 44.95,-23.7 92.58,-23.7 92.58,-23.7 95.68,-23.7 98.78,-26.8 98.78,-29.9 98.78,-29.9 98.78,-36.1 98.78,-36.1 98.78,-39.2 95.68,-42.3 92.58,-42.3"/>
<text text-anchor="middle" x="68.76" y="-30.3" font-family="Helvetica,sans-Serif" font-size="9.00">addTodo.js</text>
</a>
</g>
</g>
</g>
</svg>
