<?xml version="1.0" encoding="UTF-8" standalone="no"?>
<!DOCTYPE svg PUBLIC "-//W3C//DTD SVG 1.1//EN"
 "http://www.w3.org/Graphics/SVG/1.1/DTD/svg11.dtd">
<!-- Generated by graphviz version 2.44.0 (20200408.0750)
 -->
<!-- Title: dependency&#45;cruiser output Pages: 1 -->
<svg width="448pt" height="174pt"
 viewBox="0.00 0.00 447.56 174.00" xmlns="http://www.w3.org/2000/svg" xmlns:xlink="http://www.w3.org/1999/xlink">
<g id="graph0" class="graph" transform="scale(1 1) rotate(0) translate(4 170)">
<title>dependency&#45;cruiser output</title>
<polygon fill="white" stroke="transparent" points="-4,4 -4,-170 443.56,-170 443.56,4 -4,4"/>
<g id="clust1" class="cluster">
<title>cluster_src</title>
<path fill="#ffffff" stroke="black" stroke-width="2" d="M20,-8C20,-8 419.56,-8 419.56,-8 425.56,-8 431.56,-14 431.56,-20 431.56,-20 431.56,-146 431.56,-146 431.56,-152 425.56,-158 419.56,-158 419.56,-158 20,-158 20,-158 14,-158 8,-152 8,-146 8,-146 8,-20 8,-20 8,-14 14,-8 20,-8"/>
<text text-anchor="middle" x="219.78" y="-145.9" font-family="Helvetica,sans-Serif" font-weight="bold" font-size="9.00">src</text>
</g>
<g id="clust2" class="cluster">
<title>cluster_src/components</title>
<path fill="#ffffff" stroke="black" stroke-width="2" d="M28,-78C28,-78 200.53,-78 200.53,-78 206.53,-78 212.53,-84 212.53,-90 212.53,-90 212.53,-119 212.53,-119 212.53,-125 206.53,-131 200.53,-131 200.53,-131 28,-131 28,-131 22,-131 16,-125 16,-119 16,-119 16,-90 16,-90 16,-84 22,-78 28,-78"/>
<text text-anchor="middle" x="114.27" y="-118.9" font-family="Helvetica,sans-Serif" font-weight="bold" font-size="9.00">components</text>
</g>
<g id="clust3" class="cluster">
<title>cluster_src/handlers</title>
<path fill="#ffffff" stroke="black" stroke-width="2" d="M232.53,-16C232.53,-16 327.05,-16 327.05,-16 333.05,-16 339.05,-22 339.05,-28 339.05,-28 339.05,-119 339.05,-119 339.05,-125 333.05,-131 327.05,-131 327.05,-131 232.53,-131 232.53,-131 226.53,-131 220.53,-125 220.53,-119 220.53,-119 220.53,-28 220.53,-28 220.53,-22 226.53,-16 232.53,-16"/>
<text text-anchor="middle" x="279.79" y="-118.9" font-family="Helvetica,sans-Serif" font-weight="bold" font-size="9.00">handlers</text>
</g>
<g id="clust4" class="cluster">
<title>cluster_src/init</title>
<path fill="#ffffff" stroke="black" stroke-width="2" d="M48.26,-17C48.26,-17 94.26,-17 94.26,-17 100.26,-17 106.26,-23 106.26,-29 106.26,-29 106.26,-58 106.26,-58 106.26,-64 100.26,-70 94.26,-70 94.26,-70 48.26,-70 48.26,-70 42.26,-70 36.26,-64 36.26,-58 36.26,-58 36.26,-29 36.26,-29 36.26,-23 42.26,-17 48.26,-17"/>
<text text-anchor="middle" x="71.26" y="-57.9" font-family="Helvetica,sans-Serif" font-weight="bold" font-size="9.00">init</text>
</g>
<g id="clust5" class="cluster">
<title>cluster_src/listeners</title>
<path fill="#ffffff" stroke="black" stroke-width="2" d="M145.03,-17C145.03,-17 191.03,-17 191.03,-17 197.03,-17 203.03,-23 203.03,-29 203.03,-29 203.03,-58 203.03,-58 203.03,-64 197.03,-70 191.03,-70 191.03,-70 145.03,-70 145.03,-70 139.03,-70 133.03,-64 133.03,-58 133.03,-58 133.03,-29 133.03,-29 133.03,-23 139.03,-17 145.03,-17"/>
<text text-anchor="middle" x="168.03" y="-57.9" font-family="Helvetica,sans-Serif" font-weight="bold" font-size="9.00">listeners</text>
</g>
<g id="clust6" class="cluster">
<title>cluster_src/procedures</title>
<path fill="#ffffff" stroke="black" stroke-width="2" d="M359.05,-78C359.05,-78 411.56,-78 411.56,-78 417.56,-78 423.56,-84 423.56,-90 423.56,-90 423.56,-119 423.56,-119 423.56,-125 417.56,-131 411.56,-131 411.56,-131 359.05,-131 359.05,-131 353.05,-131 347.05,-125 347.05,-119 347.05,-119 347.05,-90 347.05,-90 347.05,-84 353.05,-78 359.05,-78"/>
<text text-anchor="middle" x="385.31" y="-118.9" font-family="Helvetica,sans-Serif" font-weight="bold" font-size="9.00">procedures</text>
</g>
<!-- src/components/trash&#45;button.js -->
<g id="node1" class="node">
<title>src/components/trash&#45;button.js</title>
<g id="a_node1"><a xlink:href="../src/components/trash-button.js" xlink:title="trash&#45;button.js">
<path fill="#ffffcc" stroke="black" d="M198.34,-104.3C198.34,-104.3 137.71,-104.3 137.71,-104.3 134.61,-104.3 131.51,-101.2 131.51,-98.1 131.51,-98.1 131.51,-91.9 131.51,-91.9 131.51,-88.8 134.61,-85.7 137.71,-85.7 137.71,-85.7 198.34,-85.7 198.34,-85.7 201.44,-85.7 204.54,-88.8 204.54,-91.9 204.54,-91.9 204.54,-98.1 204.54,-98.1 204.54,-101.2 201.44,-104.3 198.34,-104.3"/>
<text text-anchor="middle" x="168.03" y="-92.3" font-family="Helvetica,sans-Serif" font-size="9.00">trash&#45;button.js</text>
</a>
</g>
</g>
<!-- src/components/trash&#45;button.spec.js -->
<g id="node2" class="node">
<title>src/components/trash&#45;button.spec.js</title>
<g id="a_node2"><a xlink:href="../src/components/trash-button.spec.js" xlink:title="trash&#45;button.spec.js">
<path fill="#ffffcc" stroke="black" d="M112.08,-104.3C112.08,-104.3 30.44,-104.3 30.44,-104.3 27.34,-104.3 24.24,-101.2 24.24,-98.1 24.24,-98.1 24.24,-91.9 24.24,-91.9 24.24,-88.8 27.34,-85.7 30.44,-85.7 30.44,-85.7 112.08,-85.7 112.08,-85.7 115.18,-85.7 118.28,-88.8 118.28,-91.9 118.28,-91.9 118.28,-98.1 118.28,-98.1 118.28,-101.2 115.18,-104.3 112.08,-104.3"/>
<text text-anchor="middle" x="71.26" y="-92.3" font-family="Helvetica,sans-Serif" font-size="9.00">trash&#45;button.spec.js</text>
</a>
</g>
</g>
<!-- src/components/trash&#45;button.spec.js&#45;&gt;src/components/trash&#45;button.js -->
<g id="edge1" class="edge">
<title>src/components/trash&#45;button.spec.js&#45;&gt;src/components/trash&#45;button.js</title>
<path fill="none" stroke="#000000" stroke-width="2" stroke-opacity="0.200000" d="M118.53,-95C120.69,-95 122.86,-95 125.01,-95"/>
<polygon fill="#000000" fill-opacity="0.200000" stroke="#000000" stroke-width="2" stroke-opacity="0.200000" points="125.39,-97.1 131.39,-95 125.39,-92.9 125.39,-97.1"/>
</g>
<!-- src/handlers/add_buttonhandler.js -->
<g id="node3" class="node">
<title>src/handlers/add_buttonhandler.js</title>
<g id="a_node3"><a xlink:href="../src/handlers/add_buttonhandler.js" xlink:title="add_buttonhandler.js">
<path fill="#ffffcc" stroke="black" d="M323.62,-104.3C323.62,-104.3 235.96,-104.3 235.96,-104.3 232.86,-104.3 229.76,-101.2 229.76,-98.1 229.76,-98.1 229.76,-91.9 229.76,-91.9 229.76,-88.8 232.86,-85.7 235.96,-85.7 235.96,-85.7 323.62,-85.7 323.62,-85.7 326.72,-85.7 329.82,-88.8 329.82,-91.9 329.82,-91.9 329.82,-98.1 329.82,-98.1 329.82,-101.2 326.72,-104.3 323.62,-104.3"/>
<text text-anchor="middle" x="279.79" y="-92.3" font-family="Helvetica,sans-Serif" font-size="9.00">add_buttonhandler.js</text>
</a>
</g>
</g>
<!-- src/procedures/addTodo.js -->
<g id="node4" class="node">
<title>src/procedures/addTodo.js</title>
<g id="a_node4"><a xlink:href="../src/procedures/addTodo.js" xlink:title="addTodo.js">
<path fill="#ffffcc" stroke="black" d="M409.12,-104.3C409.12,-104.3 361.49,-104.3 361.49,-104.3 358.39,-104.3 355.29,-101.2 355.29,-98.1 355.29,-98.1 355.29,-91.9 355.29,-91.9 355.29,-88.8 358.39,-85.7 361.49,-85.7 361.49,-85.7 409.12,-85.7 409.12,-85.7 412.22,-85.7 415.32,-88.8 415.32,-91.9 415.32,-91.9 415.32,-98.1 415.32,-98.1 415.32,-101.2 412.22,-104.3 409.12,-104.3"/>
<text text-anchor="middle" x="385.31" y="-92.3" font-family="Helvetica,sans-Serif" font-size="9.00">addTodo.js</text>
</a>
</g>
</g>
<!-- src/handlers/add_buttonhandler.js&#45;&gt;src/procedures/addTodo.js -->
<g id="edge2" class="edge">
<title>src/handlers/add_buttonhandler.js&#45;&gt;src/procedures/addTodo.js</title>
<path fill="none" stroke="#000000" stroke-width="2" stroke-opacity="0.200000" d="M329.82,-95C336.33,-95 342.89,-95 349.1,-95"/>
<polygon fill="#000000" fill-opacity="0.200000" stroke="#000000" stroke-width="2" stroke-opacity="0.200000" points="349.17,-97.1 355.17,-95 349.17,-92.9 349.17,-97.1"/>
</g>
<!-- src/handlers/deleteTodoHandler.js -->
<g id="node5" class="node">
<title>src/handlers/deleteTodoHandler.js</title>
<g id="a_node5"><a xlink:href="../src/handlers/deleteTodoHandler.js" xlink:title="deleteTodoHandler.js">
<path fill="#ffffcc" stroke="black" d="M324.11,-73.3C324.11,-73.3 235.47,-73.3 235.47,-73.3 232.37,-73.3 229.27,-70.2 229.27,-67.1 229.27,-67.1 229.27,-60.9 229.27,-60.9 229.27,-57.8 232.37,-54.7 235.47,-54.7 235.47,-54.7 324.11,-54.7 324.11,-54.7 327.21,-54.7 330.31,-57.8 330.31,-60.9 330.31,-60.9 330.31,-67.1 330.31,-67.1 330.31,-70.2 327.21,-73.3 324.11,-73.3"/>
<text text-anchor="middle" x="279.79" y="-61.3" font-family="Helvetica,sans-Serif" font-size="9.00">deleteTodoHandler.js</text>
</a>
</g>
</g>
<!-- src/handlers/resetButtonHandler.js -->
<g id="node6" class="node">
<title>src/handlers/resetButtonHandler.js</title>
<g id="a_node6"><a xlink:href="../src/handlers/resetButtonHandler.js" xlink:title="resetButtonHandler.js">
<path fill="#ffffcc" stroke="black" d="M324.61,-42.3C324.61,-42.3 234.97,-42.3 234.97,-42.3 231.87,-42.3 228.77,-39.2 228.77,-36.1 228.77,-36.1 228.77,-29.9 228.77,-29.9 228.77,-26.8 231.87,-23.7 234.97,-23.7 234.97,-23.7 324.61,-23.7 324.61,-23.7 327.71,-23.7 330.81,-26.8 330.81,-29.9 330.81,-29.9 330.81,-36.1 330.81,-36.1 330.81,-39.2 327.71,-42.3 324.61,-42.3"/>
<text text-anchor="middle" x="279.79" y="-30.3" font-family="Helvetica,sans-Serif" font-size="9.00">resetButtonHandler.js</text>
</a>
</g>
</g>
<!-- src/init/index.js -->
<g id="node7" class="node">
<title>src/init/index.js</title>
<g id="a_node7"><a xlink:href="../src/init/index.js" xlink:title="index.js">
<path fill="#ffffcc" stroke="black" d="M92.06,-43.3C92.06,-43.3 50.46,-43.3 50.46,-43.3 47.36,-43.3 44.26,-40.2 44.26,-37.1 44.26,-37.1 44.26,-30.9 44.26,-30.9 44.26,-27.8 47.36,-24.7 50.46,-24.7 50.46,-24.7 92.06,-24.7 92.06,-24.7 95.16,-24.7 98.26,-27.8 98.26,-30.9 98.26,-30.9 98.26,-37.1 98.26,-37.1 98.26,-40.2 95.16,-43.3 92.06,-43.3"/>
<text text-anchor="middle" x="71.26" y="-31.3" font-family="Helvetica,sans-Serif" font-size="9.00">index.js</text>
</a>
</g>
</g>
<!-- src/listeners/listener.js -->
<g id="node8" class="node">
<title>src/listeners/listener.js</title>
<g id="a_node8"><a xlink:href="../src/listeners/listener.js" xlink:title="listener.js">
<path fill="#ffffcc" stroke="black" d="M188.83,-43.3C188.83,-43.3 147.23,-43.3 147.23,-43.3 144.13,-43.3 141.03,-40.2 141.03,-37.1 141.03,-37.1 141.03,-30.9 141.03,-30.9 141.03,-27.8 144.13,-24.7 147.23,-24.7 147.23,-24.7 188.83,-24.7 188.83,-24.7 191.93,-24.7 195.03,-27.8 195.03,-30.9 195.03,-30.9 195.03,-37.1 195.03,-37.1 195.03,-40.2 191.93,-43.3 188.83,-43.3"/>
<text text-anchor="middle" x="168.03" y="-31.3" font-family="Helvetica,sans-Serif" font-size="9.00">listener.js</text>
</a>
</g>
</g>
<!-- src/init/index.js&#45;&gt;src/listeners/listener.js -->
<g id="edge3" class="edge">
<title>src/init/index.js&#45;&gt;src/listeners/listener.js</title>
<path fill="none" stroke="#000000" stroke-width="2" stroke-opacity="0.200000" d="M98.41,-34C109.7,-34 123.01,-34 134.9,-34"/>
<polygon fill="#000000" fill-opacity="0.200000" stroke="#000000" stroke-width="2" stroke-opacity="0.200000" points="134.97,-36.1 140.97,-34 134.96,-31.9 134.97,-36.1"/>
</g>
<!-- src/listeners/listener.js&#45;&gt;src/handlers/add_buttonhandler.js -->
<g id="edge4" class="edge">
<title>src/listeners/listener.js&#45;&gt;src/handlers/add_buttonhandler.js</title>
<path fill="none" stroke="#000000" stroke-width="2" stroke-opacity="0.200000" d="M177.21,-43.32C186.67,-53.52 203.17,-69.67 220.53,-79 223.53,-80.61 226.71,-82.08 229.98,-83.4"/>
<polygon fill="#000000" fill-opacity="0.200000" stroke="#000000" stroke-width="2" stroke-opacity="0.200000" points="229.56,-85.49 235.92,-85.63 231.04,-81.55 229.56,-85.49"/>
</g>
<!-- src/listeners/listener.js&#45;&gt;src/handlers/deleteTodoHandler.js -->
<g id="edge5" class="edge">
<title>src/listeners/listener.js&#45;&gt;src/handlers/deleteTodoHandler.js</title>
<path fill="none" stroke="#000000" stroke-width="2" stroke-opacity="0.200000" d="M195.04,-41.11C208.02,-44.66 224.01,-49.03 238.53,-53"/>
<polygon fill="#000000" fill-opacity="0.200000" stroke="#000000" stroke-width="2" stroke-opacity="0.200000" points="238.31,-55.11 244.65,-54.67 239.42,-51.06 238.31,-55.11"/>
</g>
<!-- src/listeners/listener.js&#45;&gt;src/handlers/resetButtonHandler.js -->
<g id="edge6" class="edge">
<title>src/listeners/listener.js&#45;&gt;src/handlers/resetButtonHandler.js</title>
<path fill="none" stroke="#000000" stroke-width="2" stroke-opacity="0.200000" d="M195.04,-33.76C203.26,-33.69 212.68,-33.6 222.17,-33.52"/>
<polygon fill="#000000" fill-opacity="0.200000" stroke="#000000" stroke-width="2" stroke-opacity="0.200000" points="222.43,-35.61 228.41,-33.46 222.39,-31.41 222.43,-35.61"/>
</g>
</g>
</svg>
