<?xml version="1.0" encoding="UTF-8" standalone="no"?>
<!DOCTYPE svg PUBLIC "-//W3C//DTD SVG 1.1//EN"
 "http://www.w3.org/Graphics/SVG/1.1/DTD/svg11.dtd">
<!-- Generated by graphviz version 2.44.0 (20200408.0750)
 -->
<!-- Title: dependency&#45;cruiser output Pages: 1 -->
<svg width="478pt" height="348pt"
 viewBox="0.00 0.00 477.56 348.00" xmlns="http://www.w3.org/2000/svg" xmlns:xlink="http://www.w3.org/1999/xlink">
<g id="graph0" class="graph" transform="scale(1 1) rotate(0) translate(4 344)">
<title>dependency&#45;cruiser output</title>
<polygon fill="white" stroke="transparent" points="-4,4 -4,-344 473.56,-344 473.56,4 -4,4"/>
<g id="clust1" class="cluster">
<title>cluster_src</title>
<path fill="#ffffff" stroke="black" stroke-width="2" d="M20,-8C20,-8 449.56,-8 449.56,-8 455.56,-8 461.56,-14 461.56,-20 461.56,-20 461.56,-320 461.56,-320 461.56,-326 455.56,-332 449.56,-332 449.56,-332 20,-332 20,-332 14,-332 8,-326 8,-320 8,-320 8,-20 8,-20 8,-14 14,-8 20,-8"/>
<text text-anchor="middle" x="234.78" y="-319.9" font-family="Helvetica,sans-Serif" font-weight="bold" font-size="9.00">src</text>
</g>
<g id="clust2" class="cluster">
<title>cluster_src/components</title>
<path fill="#ffffff" stroke="black" stroke-width="2" d="M221.03,-36C221.03,-36 379.56,-36 379.56,-36 385.56,-36 391.56,-42 391.56,-48 391.56,-48 391.56,-139 391.56,-139 391.56,-145 385.56,-151 379.56,-151 379.56,-151 221.03,-151 221.03,-151 215.03,-151 209.03,-145 209.03,-139 209.03,-139 209.03,-48 209.03,-48 209.03,-42 215.03,-36 221.03,-36"/>
<text text-anchor="middle" x="300.29" y="-138.9" font-family="Helvetica,sans-Serif" font-weight="bold" font-size="9.00">components</text>
</g>
<g id="clust3" class="cluster">
<title>cluster_src/handlers</title>
<path fill="#ffffff" stroke="black" stroke-width="2" d="M310.04,-159C310.04,-159 379.56,-159 379.56,-159 385.56,-159 391.56,-165 391.56,-171 391.56,-171 391.56,-293 391.56,-293 391.56,-299 385.56,-305 379.56,-305 379.56,-305 310.04,-305 310.04,-305 304.04,-305 298.04,-299 298.04,-293 298.04,-293 298.04,-171 298.04,-171 298.04,-165 304.04,-159 310.04,-159"/>
<text text-anchor="middle" x="344.8" y="-292.9" font-family="Helvetica,sans-Serif" font-weight="bold" font-size="9.00">handlers</text>
</g>
<g id="clust4" class="cluster">
<title>cluster_src/init</title>
<path fill="#ffffff" stroke="black" stroke-width="2" d="M28,-139C28,-139 166.51,-139 166.51,-139 172.51,-139 178.51,-145 178.51,-151 178.51,-151 178.51,-180 178.51,-180 178.51,-186 172.51,-192 166.51,-192 166.51,-192 28,-192 28,-192 22,-192 16,-186 16,-180 16,-180 16,-151 16,-151 16,-145 22,-139 28,-139"/>
<text text-anchor="middle" x="97.26" y="-179.9" font-family="Helvetica,sans-Serif" font-weight="bold" font-size="9.00">init</text>
</g>
<g id="clust5" class="cluster">
<title>cluster_src/tests</title>
<path fill="#ffffff" stroke="black" stroke-width="2" d="M98,-16C98,-16 189.03,-16 189.03,-16 195.03,-16 201.03,-22 201.03,-28 201.03,-28 201.03,-119 201.03,-119 201.03,-125 195.03,-131 189.03,-131 189.03,-131 98,-131 98,-131 92,-131 86,-125 86,-119 86,-119 86,-28 86,-28 86,-22 92,-16 98,-16"/>
<text text-anchor="middle" x="143.51" y="-118.9" font-family="Helvetica,sans-Serif" font-weight="bold" font-size="9.00">tests</text>
</g>
<!-- src/components/add&#45;button.js -->
<g id="node1" class="node">
<title>src/components/add&#45;button.js</title>
<g id="a_node1"><a xlink:href="../src/components/add-button.js" xlink:title="add&#45;button.js">
<path fill="#ffffcc" stroke="black" d="M281.35,-93.3C281.35,-93.3 225.72,-93.3 225.72,-93.3 222.62,-93.3 219.51,-90.2 219.51,-87.1 219.51,-87.1 219.51,-80.9 219.51,-80.9 219.51,-77.8 222.62,-74.7 225.72,-74.7 225.72,-74.7 281.35,-74.7 281.35,-74.7 284.45,-74.7 287.55,-77.8 287.55,-80.9 287.55,-80.9 287.55,-87.1 287.55,-87.1 287.55,-90.2 284.45,-93.3 281.35,-93.3"/>
<text text-anchor="middle" x="253.53" y="-81.3" font-family="Helvetica,sans-Serif" font-size="9.00">add&#45;button.js</text>
</a>
</g>
</g>
<!-- src/handlers/add&#45;button.js -->
<g id="node2" class="node">
<title>src/handlers/add&#45;button.js</title>
<g id="a_node2"><a xlink:href="../src/handlers/add-button.js" xlink:title="add&#45;button.js">
<path fill="#ffffcc" stroke="black" d="M372.62,-247.3C372.62,-247.3 316.98,-247.3 316.98,-247.3 313.88,-247.3 310.78,-244.2 310.78,-241.1 310.78,-241.1 310.78,-234.9 310.78,-234.9 310.78,-231.8 313.88,-228.7 316.98,-228.7 316.98,-228.7 372.62,-228.7 372.62,-228.7 375.72,-228.7 378.82,-231.8 378.82,-234.9 378.82,-234.9 378.82,-241.1 378.82,-241.1 378.82,-244.2 375.72,-247.3 372.62,-247.3"/>
<text text-anchor="middle" x="344.8" y="-235.3" font-family="Helvetica,sans-Serif" font-size="9.00">add&#45;button.js</text>
</a>
</g>
</g>
<!-- src/components/add&#45;button.js&#45;&gt;src/handlers/add&#45;button.js -->
<g id="edge1" class="edge">
<title>src/components/add&#45;button.js&#45;&gt;src/handlers/add&#45;button.js</title>
<path fill="none" stroke="#000000" stroke-width="2" stroke-opacity="0.200000" d="M283.43,-93.48C285.98,-95.29 288.27,-97.44 290.04,-100 305.52,-122.32 281.6,-200.37 298.04,-222 300.08,-224.68 302.59,-226.91 305.39,-228.77"/>
<polygon fill="#000000" fill-opacity="0.200000" stroke="#000000" stroke-width="2" stroke-opacity="0.200000" points="304.43,-230.64 310.69,-231.74 306.48,-226.97 304.43,-230.64"/>
</g>
<!-- src/components/todo&#45;list.js -->
<g id="node9" class="node">
<title>src/components/todo&#45;list.js</title>
<g id="a_node9"><a xlink:href="../src/components/todo-list.js" xlink:title="todo&#45;list.js">
<path fill="#ffffcc" stroke="black" d="M275.83,-62.3C275.83,-62.3 231.23,-62.3 231.23,-62.3 228.13,-62.3 225.03,-59.2 225.03,-56.1 225.03,-56.1 225.03,-49.9 225.03,-49.9 225.03,-46.8 228.13,-43.7 231.23,-43.7 231.23,-43.7 275.83,-43.7 275.83,-43.7 278.93,-43.7 282.04,-46.8 282.04,-49.9 282.04,-49.9 282.04,-56.1 282.04,-56.1 282.04,-59.2 278.93,-62.3 275.83,-62.3"/>
<text text-anchor="middle" x="253.53" y="-50.3" font-family="Helvetica,sans-Serif" font-size="9.00">todo&#45;list.js</text>
</a>
</g>
</g>
<!-- src/handlers/add&#45;button.js&#45;&gt;src/components/todo&#45;list.js -->
<g id="edge7" class="edge">
<title>src/handlers/add&#45;button.js&#45;&gt;src/components/todo&#45;list.js</title>
<path fill="none" stroke="#000000" stroke-width="2" stroke-opacity="0.200000" d="M310.64,-231.77C305.75,-229.46 301.27,-226.31 298.04,-222 277.62,-194.76 309.26,-97.1 290.04,-69 289.14,-67.68 288.1,-66.47 286.96,-65.36"/>
<polygon fill="#000000" fill-opacity="0.200000" stroke="#000000" stroke-width="2" stroke-opacity="0.200000" points="288.13,-63.6 282.12,-61.54 285.53,-66.9 288.13,-63.6"/>
</g>
<!-- src/data.js -->
<g id="node10" class="node">
<title>src/data.js</title>
<g id="a_node10"><a xlink:href="../src/data.js" xlink:title="data.js">
<path fill="#ffffcc" stroke="black" d="M447.36,-231.3C447.36,-231.3 405.76,-231.3 405.76,-231.3 402.66,-231.3 399.56,-228.2 399.56,-225.1 399.56,-225.1 399.56,-218.9 399.56,-218.9 399.56,-215.8 402.66,-212.7 405.76,-212.7 405.76,-212.7 447.36,-212.7 447.36,-212.7 450.46,-212.7 453.56,-215.8 453.56,-218.9 453.56,-218.9 453.56,-225.1 453.56,-225.1 453.56,-228.2 450.46,-231.3 447.36,-231.3"/>
<text text-anchor="middle" x="426.56" y="-219.3" font-family="Helvetica,sans-Serif" font-size="9.00">data.js</text>
</a>
</g>
</g>
<!-- src/handlers/add&#45;button.js&#45;&gt;src/data.js -->
<g id="edge8" class="edge">
<title>src/handlers/add&#45;button.js&#45;&gt;src/data.js</title>
<path fill="none" stroke="#000000" stroke-width="2" stroke-opacity="0.200000" d="M379.16,-231.31C383.74,-230.39 388.44,-229.45 393,-228.53"/>
<polygon fill="#000000" fill-opacity="0.200000" stroke="#000000" stroke-width="2" stroke-opacity="0.200000" points="393.65,-230.54 399.12,-227.3 392.82,-226.43 393.65,-230.54"/>
</g>
<!-- src/components/check&#45;button.js -->
<g id="node3" class="node">
<title>src/components/check&#45;button.js</title>
<g id="a_node3"><a xlink:href="../src/components/check-button.js" xlink:title="check&#45;button.js">
<path fill="#ffffcc" stroke="black" d="M376.61,-62.3C376.61,-62.3 312.98,-62.3 312.98,-62.3 309.88,-62.3 306.78,-59.2 306.78,-56.1 306.78,-56.1 306.78,-49.9 306.78,-49.9 306.78,-46.8 309.88,-43.7 312.98,-43.7 312.98,-43.7 376.61,-43.7 376.61,-43.7 379.72,-43.7 382.82,-46.8 382.82,-49.9 382.82,-49.9 382.82,-56.1 382.82,-56.1 382.82,-59.2 379.72,-62.3 376.61,-62.3"/>
<text text-anchor="middle" x="344.8" y="-50.3" font-family="Helvetica,sans-Serif" font-size="9.00">check&#45;button.js</text>
</a>
</g>
</g>
<!-- src/handlers/check&#45;button.js -->
<g id="node4" class="node">
<title>src/handlers/check&#45;button.js</title>
<g id="a_node4"><a xlink:href="../src/handlers/check-button.js" xlink:title="check&#45;button.js">
<path fill="#ffffcc" stroke="black" d="M376.61,-216.3C376.61,-216.3 312.98,-216.3 312.98,-216.3 309.88,-216.3 306.78,-213.2 306.78,-210.1 306.78,-210.1 306.78,-203.9 306.78,-203.9 306.78,-200.8 309.88,-197.7 312.98,-197.7 312.98,-197.7 376.61,-197.7 376.61,-197.7 379.72,-197.7 382.82,-200.8 382.82,-203.9 382.82,-203.9 382.82,-210.1 382.82,-210.1 382.82,-213.2 379.72,-216.3 376.61,-216.3"/>
<text text-anchor="middle" x="344.8" y="-204.3" font-family="Helvetica,sans-Serif" font-size="9.00">check&#45;button.js</text>
</a>
</g>
</g>
<!-- src/components/check&#45;button.js&#45;&gt;src/handlers/check&#45;button.js -->
<g id="edge2" class="edge">
<title>src/components/check&#45;button.js&#45;&gt;src/handlers/check&#45;button.js</title>
<path fill="none" stroke="#000000" stroke-width="2" stroke-opacity="0.200000" d="M306.43,-60.77C300.67,-64 295.99,-68.57 294.04,-75 290.5,-86.7 290.5,-173.3 294.04,-185 294.56,-186.71 295.27,-188.29 296.14,-189.74"/>
<polygon fill="#000000" fill-opacity="0.200000" stroke="#000000" stroke-width="2" stroke-opacity="0.200000" points="300.6,-196.71 306.43,-199.23 303.44,-193.62 300.6,-196.71"/>
<polyline fill="none" stroke="#000000" stroke-width="2" stroke-opacity="0.200000" points="302.02,-195.16 299.82,-193.13 "/>
<ellipse fill="none" stroke="#000000" stroke-width="2" stroke-opacity="0.200000" cx="298.05" cy="-191.5" rx="2.4" ry="2.4"/>
</g>
<!-- src/handlers/check&#45;button.js&#45;&gt;src/components/todo&#45;list.js -->
<g id="edge9" class="edge">
<title>src/handlers/check&#45;button.js&#45;&gt;src/components/todo&#45;list.js</title>
<path fill="none" stroke="#000000" stroke-width="2" stroke-opacity="0.200000" d="M306.67,-198.59C303.36,-196.57 300.38,-194.08 298.04,-191 283.52,-171.9 300.47,-108.84 288.51,-73.85"/>
<polygon fill="#000000" fill-opacity="0.200000" stroke="#000000" stroke-width="2" stroke-opacity="0.200000" points="286.72,-65.9 282.08,-61.56 283,-67.85 286.72,-65.9"/>
<polyline fill="none" stroke="#000000" stroke-width="2" stroke-opacity="0.200000" points="284.86,-66.88 286.25,-69.53 "/>
<ellipse fill="none" stroke="#000000" stroke-width="2" stroke-opacity="0.200000" cx="287.37" cy="-71.66" rx="2.4" ry="2.4"/>
</g>
<!-- src/handlers/check&#45;button.js&#45;&gt;src/data.js -->
<g id="edge10" class="edge">
<title>src/handlers/check&#45;button.js&#45;&gt;src/data.js</title>
<path fill="none" stroke="#000000" stroke-width="2" stroke-opacity="0.200000" d="M382.88,-213.97C386.33,-214.62 389.82,-215.28 393.23,-215.92"/>
<polygon fill="#000000" fill-opacity="0.200000" stroke="#000000" stroke-width="2" stroke-opacity="0.200000" points="392.98,-218.01 399.26,-217.05 393.75,-213.88 392.98,-218.01"/>
</g>
<!-- src/components/delete&#45;button.js -->
<g id="node5" class="node">
<title>src/components/delete&#45;button.js</title>
<g id="a_node5"><a xlink:href="../src/components/delete-button.js" xlink:title="delete&#45;button.js">
<path fill="#ffffcc" stroke="black" d="M377.12,-93.3C377.12,-93.3 312.48,-93.3 312.48,-93.3 309.38,-93.3 306.28,-90.2 306.28,-87.1 306.28,-87.1 306.28,-80.9 306.28,-80.9 306.28,-77.8 309.38,-74.7 312.48,-74.7 312.48,-74.7 377.12,-74.7 377.12,-74.7 380.22,-74.7 383.32,-77.8 383.32,-80.9 383.32,-80.9 383.32,-87.1 383.32,-87.1 383.32,-90.2 380.22,-93.3 377.12,-93.3"/>
<text text-anchor="middle" x="344.8" y="-81.3" font-family="Helvetica,sans-Serif" font-size="9.00">delete&#45;button.js</text>
</a>
</g>
</g>
<!-- src/handlers/delete&#45;button.js -->
<g id="node6" class="node">
<title>src/handlers/delete&#45;button.js</title>
<g id="a_node6"><a xlink:href="../src/handlers/delete-button.js" xlink:title="delete&#45;button.js">
<path fill="#ffffcc" stroke="black" d="M377.12,-185.3C377.12,-185.3 312.48,-185.3 312.48,-185.3 309.38,-185.3 306.28,-182.2 306.28,-179.1 306.28,-179.1 306.28,-172.9 306.28,-172.9 306.28,-169.8 309.38,-166.7 312.48,-166.7 312.48,-166.7 377.12,-166.7 377.12,-166.7 380.22,-166.7 383.32,-169.8 383.32,-172.9 383.32,-172.9 383.32,-179.1 383.32,-179.1 383.32,-182.2 380.22,-185.3 377.12,-185.3"/>
<text text-anchor="middle" x="344.8" y="-173.3" font-family="Helvetica,sans-Serif" font-size="9.00">delete&#45;button.js</text>
</a>
</g>
</g>
<!-- src/components/delete&#45;button.js&#45;&gt;src/handlers/delete&#45;button.js -->
<g id="edge3" class="edge">
<title>src/components/delete&#45;button.js&#45;&gt;src/handlers/delete&#45;button.js</title>
<path fill="none" stroke="#000000" stroke-width="2" stroke-opacity="0.200000" d="M355.41,-93.34C376.46,-114.24 379.51,-135.14 364.55,-156.04"/>
<polygon fill="#000000" fill-opacity="0.200000" stroke="#000000" stroke-width="2" stroke-opacity="0.200000" points="357.75,-160.72 355.43,-166.64 360.94,-163.46 357.75,-160.72"/>
<polyline fill="none" stroke="#000000" stroke-width="2" stroke-opacity="0.200000" points="359.34,-162.09 361.3,-159.82 "/>
<ellipse fill="none" stroke="#000000" stroke-width="2" stroke-opacity="0.200000" cx="362.87" cy="-158" rx="2.4" ry="2.4"/>
<path fill="none" stroke="#000000" stroke-width="2" stroke-opacity="0.200000" d="M334.19,-93.34C313.14,-114.24 310.09,-135.14 325.05,-156.04"/>
<polygon fill="#000000" fill-opacity="0.200000" stroke="#000000" stroke-width="2" stroke-opacity="0.200000" points="328.66,-163.46 334.17,-166.64 331.85,-160.72 328.66,-163.46"/>
<polyline fill="none" stroke="#000000" stroke-width="2" stroke-opacity="0.200000" points="330.25,-162.09 328.3,-159.82 "/>
<ellipse fill="none" stroke="#000000" stroke-width="2" stroke-opacity="0.200000" cx="326.73" cy="-158" rx="2.4" ry="2.4"/>
</g>
<!-- src/handlers/delete&#45;button.js&#45;&gt;src/components/todo&#45;list.js -->
<g id="edge11" class="edge">
<title>src/handlers/delete&#45;button.js&#45;&gt;src/components/todo&#45;list.js</title>
<path fill="none" stroke="#000000" stroke-width="2" stroke-opacity="0.200000" d="M312.95,-166.57C307.16,-163.45 301.77,-159.35 298.04,-154 278.64,-126.14 305.2,-104.81 289.47,-73.24"/>
<polygon fill="#000000" fill-opacity="0.200000" stroke="#000000" stroke-width="2" stroke-opacity="0.200000" points="287.01,-65.53 282,-61.62 283.48,-67.8 287.01,-65.53"/>
<polyline fill="none" stroke="#000000" stroke-width="2" stroke-opacity="0.200000" points="285.25,-66.66 286.87,-69.19 "/>
<ellipse fill="none" stroke="#000000" stroke-width="2" stroke-opacity="0.200000" cx="288.17" cy="-71.21" rx="2.4" ry="2.4"/>
</g>
<!-- src/handlers/delete&#45;button.js&#45;&gt;src/data.js -->
<g id="edge12" class="edge">
<title>src/handlers/delete&#45;button.js&#45;&gt;src/data.js</title>
<path fill="none" stroke="#000000" stroke-width="2" stroke-opacity="0.200000" d="M378.02,-185.48C382.69,-187.36 387.35,-189.53 391.56,-192 398.99,-196.35 406.28,-202.46 412.19,-208.03"/>
<polygon fill="#000000" fill-opacity="0.200000" stroke="#000000" stroke-width="2" stroke-opacity="0.200000" points="411.04,-209.85 416.8,-212.53 413.97,-206.84 411.04,-209.85"/>
</g>
<!-- src/components/reset&#45;button.js -->
<g id="node7" class="node">
<title>src/components/reset&#45;button.js</title>
<g id="a_node7"><a xlink:href="../src/components/reset-button.js" xlink:title="reset&#45;button.js">
<path fill="#ffffcc" stroke="black" d="M283.84,-124.3C283.84,-124.3 223.22,-124.3 223.22,-124.3 220.12,-124.3 217.02,-121.2 217.02,-118.1 217.02,-118.1 217.02,-111.9 217.02,-111.9 217.02,-108.8 220.12,-105.7 223.22,-105.7 223.22,-105.7 283.84,-105.7 283.84,-105.7 286.94,-105.7 290.05,-108.8 290.05,-111.9 290.05,-111.9 290.05,-118.1 290.05,-118.1 290.05,-121.2 286.94,-124.3 283.84,-124.3"/>
<text text-anchor="middle" x="253.53" y="-112.3" font-family="Helvetica,sans-Serif" font-size="9.00">reset&#45;button.js</text>
</a>
</g>
</g>
<!-- src/handlers/reset&#45;button.js -->
<g id="node8" class="node">
<title>src/handlers/reset&#45;button.js</title>
<g id="a_node8"><a xlink:href="../src/handlers/reset-button.js" xlink:title="reset&#45;button.js">
<path fill="#ffffcc" stroke="black" d="M375.11,-278.3C375.11,-278.3 314.49,-278.3 314.49,-278.3 311.39,-278.3 308.29,-275.2 308.29,-272.1 308.29,-272.1 308.29,-265.9 308.29,-265.9 308.29,-262.8 311.39,-259.7 314.49,-259.7 314.49,-259.7 375.11,-259.7 375.11,-259.7 378.21,-259.7 381.31,-262.8 381.31,-265.9 381.31,-265.9 381.31,-272.1 381.31,-272.1 381.31,-275.2 378.21,-278.3 375.11,-278.3"/>
<text text-anchor="middle" x="344.8" y="-266.3" font-family="Helvetica,sans-Serif" font-size="9.00">reset&#45;button.js</text>
</a>
</g>
</g>
<!-- src/components/reset&#45;button.js&#45;&gt;src/handlers/reset&#45;button.js -->
<g id="edge4" class="edge">
<title>src/components/reset&#45;button.js&#45;&gt;src/handlers/reset&#45;button.js</title>
<path fill="none" stroke="#000000" stroke-width="2" stroke-opacity="0.200000" d="M254.74,-124.48C255.8,-149.13 262.02,-215.85 298.04,-253 299.5,-254.51 301.12,-255.88 302.84,-257.12"/>
<polygon fill="#000000" fill-opacity="0.200000" stroke="#000000" stroke-width="2" stroke-opacity="0.200000" points="302.07,-259.11 308.28,-260.46 304.27,-255.53 302.07,-259.11"/>
</g>
<!-- src/handlers/reset&#45;button.js&#45;&gt;src/components/todo&#45;list.js -->
<g id="edge13" class="edge">
<title>src/handlers/reset&#45;button.js&#45;&gt;src/components/todo&#45;list.js</title>
<path fill="none" stroke="#000000" stroke-width="2" stroke-opacity="0.200000" d="M307.91,-261.4C304.09,-259.26 300.65,-256.51 298.04,-253 285.84,-236.57 301.52,-85.94 290.04,-69 289.04,-67.53 287.88,-66.19 286.59,-64.98"/>
<polygon fill="#000000" fill-opacity="0.200000" stroke="#000000" stroke-width="2" stroke-opacity="0.200000" points="287.83,-63.29 281.8,-61.3 285.28,-66.62 287.83,-63.29"/>
</g>
<!-- src/handlers/reset&#45;button.js&#45;&gt;src/data.js -->
<g id="edge14" class="edge">
<title>src/handlers/reset&#45;button.js&#45;&gt;src/data.js</title>
<path fill="none" stroke="#000000" stroke-width="2" stroke-opacity="0.200000" d="M378.05,-259.58C382.72,-257.69 387.37,-255.5 391.56,-253 399.32,-248.37 406.86,-241.78 412.87,-235.86"/>
<polygon fill="#000000" fill-opacity="0.200000" stroke="#000000" stroke-width="2" stroke-opacity="0.200000" points="414.43,-237.26 417.13,-231.51 411.43,-234.32 414.43,-237.26"/>
</g>
<!-- src/components/todo&#45;list.js&#45;&gt;src/components/check&#45;button.js -->
<g id="edge5" class="edge">
<title>src/components/todo&#45;list.js&#45;&gt;src/components/check&#45;button.js</title>
<path fill="none" stroke="#000000" stroke-width="2" stroke-opacity="0.200000" d="M281.8,-53C285.21,-53 288.78,-53 292.41,-53"/>
<polygon fill="#000000" fill-opacity="0.200000" stroke="#000000" stroke-width="2" stroke-opacity="0.200000" points="300.51,-55.1 306.51,-53 300.51,-50.9 300.51,-55.1"/>
<polyline fill="none" stroke="#000000" stroke-width="2" stroke-opacity="0.200000" points="300.51,-53 297.51,-53 "/>
<ellipse fill="none" stroke="#000000" stroke-width="2" stroke-opacity="0.200000" cx="295.11" cy="-53" rx="2.4" ry="2.4"/>
</g>
<!-- src/components/todo&#45;list.js&#45;&gt;src/components/delete&#45;button.js -->
<g id="edge6" class="edge">
<title>src/components/todo&#45;list.js&#45;&gt;src/components/delete&#45;button.js</title>
<path fill="none" stroke="#000000" stroke-width="2" stroke-opacity="0.200000" d="M281.8,-62.47C288.79,-64.9 296.44,-67.56 303.92,-70.15"/>
<polygon fill="#000000" fill-opacity="0.200000" stroke="#000000" stroke-width="2" stroke-opacity="0.200000" points="310.65,-74.71 317,-74.7 312.03,-70.74 310.65,-74.71"/>
<polyline fill="none" stroke="#000000" stroke-width="2" stroke-opacity="0.200000" points="311.34,-72.73 308.5,-71.74 "/>
<ellipse fill="none" stroke="#000000" stroke-width="2" stroke-opacity="0.200000" cx="306.24" cy="-70.96" rx="2.4" ry="2.4"/>
</g>
<!-- src/init/index.js -->
<g id="node11" class="node">
<title>src/init/index.js</title>
<g id="a_node11"><a xlink:href="../src/init/index.js" xlink:title="index.js">
<path fill="#ffffcc" stroke="black" d="M71.8,-165.3C71.8,-165.3 30.2,-165.3 30.2,-165.3 27.1,-165.3 24,-162.2 24,-159.1 24,-159.1 24,-152.9 24,-152.9 24,-149.8 27.1,-146.7 30.2,-146.7 30.2,-146.7 71.8,-146.7 71.8,-146.7 74.9,-146.7 78,-149.8 78,-152.9 78,-152.9 78,-159.1 78,-159.1 78,-162.2 74.9,-165.3 71.8,-165.3"/>
<text text-anchor="middle" x="51" y="-153.3" font-family="Helvetica,sans-Serif" font-size="9.00">index.js</text>
</a>
</g>
</g>
<!-- src/init/ui.js -->
<g id="node12" class="node">
<title>src/init/ui.js</title>
<g id="a_node12"><a xlink:href="../src/init/ui.js" xlink:title="ui.js">
<path fill="#ffffcc" stroke="black" d="M164.31,-165.3C164.31,-165.3 122.71,-165.3 122.71,-165.3 119.61,-165.3 116.51,-162.2 116.51,-159.1 116.51,-159.1 116.51,-152.9 116.51,-152.9 116.51,-149.8 119.61,-146.7 122.71,-146.7 122.71,-146.7 164.31,-146.7 164.31,-146.7 167.41,-146.7 170.51,-149.8 170.51,-152.9 170.51,-152.9 170.51,-159.1 170.51,-159.1 170.51,-162.2 167.41,-165.3 164.31,-165.3"/>
<text text-anchor="middle" x="143.51" y="-153.3" font-family="Helvetica,sans-Serif" font-size="9.00">ui.js</text>
</a>
</g>
</g>
<!-- src/init/index.js&#45;&gt;src/init/ui.js -->
<g id="edge15" class="edge">
<title>src/init/index.js&#45;&gt;src/init/ui.js</title>
<path fill="none" stroke="#000000" stroke-width="2" stroke-opacity="0.200000" d="M78.18,-156C88.22,-156 99.79,-156 110.33,-156"/>
<polygon fill="#000000" fill-opacity="0.200000" stroke="#000000" stroke-width="2" stroke-opacity="0.200000" points="110.39,-158.1 116.39,-156 110.39,-153.9 110.39,-158.1"/>
</g>
<!-- src/init/ui.js&#45;&gt;src/components/add&#45;button.js -->
<g id="edge16" class="edge">
<title>src/init/ui.js&#45;&gt;src/components/add&#45;button.js</title>
<path fill="none" stroke="#000000" stroke-width="2" stroke-opacity="0.200000" d="M170.7,-151.4C181.51,-148.23 193.29,-142.9 201.03,-134 211.21,-122.28 198.74,-111.62 209.03,-100 210.56,-98.27 212.29,-96.73 214.16,-95.35"/>
<polygon fill="#000000" fill-opacity="0.200000" stroke="#000000" stroke-width="2" stroke-opacity="0.200000" points="215.42,-97.05 219.4,-92.09 213.2,-93.48 215.42,-97.05"/>
</g>
<!-- src/init/ui.js&#45;&gt;src/components/reset&#45;button.js -->
<g id="edge17" class="edge">
<title>src/init/ui.js&#45;&gt;src/components/reset&#45;button.js</title>
<path fill="none" stroke="#000000" stroke-width="2" stroke-opacity="0.200000" d="M169.02,-146.7C184.66,-140.76 205.05,-133.02 221.77,-126.68"/>
<polygon fill="#000000" fill-opacity="0.200000" stroke="#000000" stroke-width="2" stroke-opacity="0.200000" points="222.88,-128.5 227.74,-124.41 221.39,-124.57 222.88,-128.5"/>
</g>
<!-- src/tests/add&#45;button.spec.js -->
<g id="node13" class="node">
<title>src/tests/add&#45;button.spec.js</title>
<g id="a_node13"><a xlink:href="../src/tests/add-button.spec.js" xlink:title="add&#45;button.spec.js">
<path fill="#ffffcc" stroke="black" d="M181.84,-104.3C181.84,-104.3 105.19,-104.3 105.19,-104.3 102.09,-104.3 98.99,-101.2 98.99,-98.1 98.99,-98.1 98.99,-91.9 98.99,-91.9 98.99,-88.8 102.09,-85.7 105.19,-85.7 105.19,-85.7 181.84,-85.7 181.84,-85.7 184.94,-85.7 188.04,-88.8 188.04,-91.9 188.04,-91.9 188.04,-98.1 188.04,-98.1 188.04,-101.2 184.94,-104.3 181.84,-104.3"/>
<text text-anchor="middle" x="143.51" y="-92.3" font-family="Helvetica,sans-Serif" font-size="9.00">add&#45;button.spec.js</text>
</a>
</g>
</g>
<!-- src/tests/add&#45;button.spec.js&#45;&gt;src/components/add&#45;button.js -->
<g id="edge18" class="edge">
<title>src/tests/add&#45;button.spec.js&#45;&gt;src/components/add&#45;button.js</title>
<path fill="none" stroke="#000000" stroke-width="2" stroke-opacity="0.200000" d="M188.14,-90.56C196.44,-89.71 205.09,-88.83 213.25,-88"/>
<polygon fill="#000000" fill-opacity="0.200000" stroke="#000000" stroke-width="2" stroke-opacity="0.200000" points="213.63,-90.07 219.38,-87.38 213.2,-85.89 213.63,-90.07"/>
</g>
<!-- src/tests/check&#45;button.spec.js -->
<g id="node14" class="node">
<title>src/tests/check&#45;button.spec.js</title>
<g id="a_node14"><a xlink:href="../src/tests/check-button.spec.js" xlink:title="check&#45;button.spec.js">
<path fill="#ffffcc" stroke="black" d="M186.34,-42.3C186.34,-42.3 100.69,-42.3 100.69,-42.3 97.59,-42.3 94.49,-39.2 94.49,-36.1 94.49,-36.1 94.49,-29.9 94.49,-29.9 94.49,-26.8 97.59,-23.7 100.69,-23.7 100.69,-23.7 186.34,-23.7 186.34,-23.7 189.44,-23.7 192.54,-26.8 192.54,-29.9 192.54,-29.9 192.54,-36.1 192.54,-36.1 192.54,-39.2 189.44,-42.3 186.34,-42.3"/>
<text text-anchor="middle" x="143.51" y="-30.3" font-family="Helvetica,sans-Serif" font-size="9.00">check&#45;button.spec.js</text>
</a>
</g>
</g>
<!-- src/tests/check&#45;button.spec.js&#45;&gt;src/components/check&#45;button.js -->
<g id="edge19" class="edge">
<title>src/tests/check&#45;button.spec.js&#45;&gt;src/components/check&#45;button.js</title>
<path fill="none" stroke="#000000" stroke-width="2" stroke-opacity="0.200000" d="M192.62,-24.7C221.26,-21.31 258.12,-19.69 290.04,-27 301.7,-29.67 313.76,-35.21 323.51,-40.5"/>
<polygon fill="#000000" fill-opacity="0.200000" stroke="#000000" stroke-width="2" stroke-opacity="0.200000" points="322.69,-42.45 328.95,-43.56 324.75,-38.79 322.69,-42.45"/>
</g>
<!-- src/tests/delete&#45;button.spec.js -->
<g id="node15" class="node">
<title>src/tests/delete&#45;button.spec.js</title>
<g id="a_node15"><a xlink:href="../src/tests/delete-button.spec.js" xlink:title="delete&#45;button.spec.js">
<path fill="#ffffcc" stroke="black" d="M186.84,-73.3C186.84,-73.3 100.19,-73.3 100.19,-73.3 97.09,-73.3 93.99,-70.2 93.99,-67.1 93.99,-67.1 93.99,-60.9 93.99,-60.9 93.99,-57.8 97.09,-54.7 100.19,-54.7 100.19,-54.7 186.84,-54.7 186.84,-54.7 189.94,-54.7 193.04,-57.8 193.04,-60.9 193.04,-60.9 193.04,-67.1 193.04,-67.1 193.04,-70.2 189.94,-73.3 186.84,-73.3"/>
<text text-anchor="middle" x="143.51" y="-61.3" font-family="Helvetica,sans-Serif" font-size="9.00">delete&#45;button.spec.js</text>
</a>
</g>
</g>
<!-- src/tests/delete&#45;button.spec.js&#45;&gt;src/components/delete&#45;button.js -->
<g id="edge20" class="edge">
<title>src/tests/delete&#45;button.spec.js&#45;&gt;src/components/delete&#45;button.js</title>
<path fill="none" stroke="#000000" stroke-width="2" stroke-opacity="0.200000" d="M188.32,-54.6C192.79,-52.77 197.12,-50.59 201.03,-48 205.77,-44.85 203.9,-40.47 209.03,-38 225.25,-30.2 275.76,-27.03 290.04,-38 300.98,-46.41 288.66,-57.88 298.04,-68 299.09,-69.13 300.23,-70.19 301.43,-71.17"/>
<polygon fill="#000000" fill-opacity="0.200000" stroke="#000000" stroke-width="2" stroke-opacity="0.200000" points="300.24,-72.9 306.37,-74.59 302.63,-69.44 300.24,-72.9"/>
</g>
</g>
</svg>
