<?xml version="1.0" encoding="UTF-8" standalone="no"?>
<!DOCTYPE svg PUBLIC "-//W3C//DTD SVG 1.1//EN"
 "http://www.w3.org/Graphics/SVG/1.1/DTD/svg11.dtd">
<!-- Generated by graphviz version 2.44.0 (20200408.0750)
 -->
<!-- Title: dependency&#45;cruiser output Pages: 1 -->
<svg width="419pt" height="265pt"
 viewBox="0.00 0.00 418.56 265.00" xmlns="http://www.w3.org/2000/svg" xmlns:xlink="http://www.w3.org/1999/xlink">
<g id="graph0" class="graph" transform="scale(1 1) rotate(0) translate(4 261)">
<title>dependency&#45;cruiser output</title>
<polygon fill="white" stroke="transparent" points="-4,4 -4,-261 414.56,-261 414.56,4 -4,4"/>
<g id="clust1" class="cluster">
<title>cluster_src</title>
<path fill="#ffffff" stroke="black" stroke-width="2" d="M20,-8C20,-8 390.56,-8 390.56,-8 396.56,-8 402.56,-14 402.56,-20 402.56,-20 402.56,-237 402.56,-237 402.56,-243 396.56,-249 390.56,-249 390.56,-249 20,-249 20,-249 14,-249 8,-243 8,-237 8,-237 8,-20 8,-20 8,-14 14,-8 20,-8"/>
<text text-anchor="middle" x="205.28" y="-236.9" font-family="Helvetica,sans-Serif" font-weight="bold" font-size="9.00">src</text>
</g>
<g id="clust2" class="cluster">
<title>cluster_src/components</title>
<path fill="#ffffff" stroke="black" stroke-width="2" d="M28,-138C28,-138 190.54,-138 190.54,-138 196.54,-138 202.54,-144 202.54,-150 202.54,-150 202.54,-210 202.54,-210 202.54,-216 196.54,-222 190.54,-222 190.54,-222 28,-222 28,-222 22,-222 16,-216 16,-210 16,-210 16,-150 16,-150 16,-144 22,-138 28,-138"/>
<text text-anchor="middle" x="109.27" y="-209.9" font-family="Helvetica,sans-Serif" font-weight="bold" font-size="9.00">components</text>
</g>
<g id="clust3" class="cluster">
<title>cluster_src/handlers</title>
<path fill="#ffffff" stroke="black" stroke-width="2" d="M222.54,-76C222.54,-76 320.56,-76 320.56,-76 326.56,-76 332.56,-82 332.56,-88 332.56,-88 332.56,-210 332.56,-210 332.56,-216 326.56,-222 320.56,-222 320.56,-222 222.54,-222 222.54,-222 216.54,-222 210.54,-216 210.54,-210 210.54,-210 210.54,-88 210.54,-88 210.54,-82 216.54,-76 222.54,-76"/>
<text text-anchor="middle" x="271.55" y="-209.9" font-family="Helvetica,sans-Serif" font-weight="bold" font-size="9.00">handlers</text>
</g>
<g id="clust4" class="cluster">
<title>cluster_src/init</title>
<path fill="#ffffff" stroke="black" stroke-width="2" d="M45.76,-77C45.76,-77 91.76,-77 91.76,-77 97.76,-77 103.76,-83 103.76,-89 103.76,-89 103.76,-118 103.76,-118 103.76,-124 97.76,-130 91.76,-130 91.76,-130 45.76,-130 45.76,-130 39.76,-130 33.76,-124 33.76,-118 33.76,-118 33.76,-89 33.76,-89 33.76,-83 39.76,-77 45.76,-77"/>
<text text-anchor="middle" x="68.76" y="-117.9" font-family="Helvetica,sans-Serif" font-weight="bold" font-size="9.00">init</text>
</g>
<g id="clust5" class="cluster">
<title>cluster_src/listeners</title>
<path fill="#ffffff" stroke="black" stroke-width="2" d="M137.53,-77C137.53,-77 183.53,-77 183.53,-77 189.53,-77 195.53,-83 195.53,-89 195.53,-89 195.53,-118 195.53,-118 195.53,-124 189.53,-130 183.53,-130 183.53,-130 137.53,-130 137.53,-130 131.53,-130 125.53,-124 125.53,-118 125.53,-118 125.53,-89 125.53,-89 125.53,-83 131.53,-77 137.53,-77"/>
<text text-anchor="middle" x="160.53" y="-117.9" font-family="Helvetica,sans-Serif" font-weight="bold" font-size="9.00">listeners</text>
</g>
<g id="clust6" class="cluster">
<title>cluster_src/procedures</title>
<path fill="#ffffff" stroke="black" stroke-width="2" d="M42.51,-16C42.51,-16 95.02,-16 95.02,-16 101.02,-16 107.02,-22 107.02,-28 107.02,-28 107.02,-57 107.02,-57 107.02,-63 101.02,-69 95.02,-69 95.02,-69 42.51,-69 42.51,-69 36.51,-69 30.51,-63 30.51,-57 30.51,-57 30.51,-28 30.51,-28 30.51,-22 36.51,-16 42.51,-16"/>
<text text-anchor="middle" x="68.76" y="-56.9" font-family="Helvetica,sans-Serif" font-weight="bold" font-size="9.00">procedures</text>
</g>
<!-- src/components/add&#45;button.js -->
<g id="node1" class="node">
<title>src/components/add&#45;button.js</title>
<g id="a_node1"><a xlink:href="../src/components/add-button.js" xlink:title="add&#45;button.js">
<path fill="#ffffcc" stroke="black" d="M188.35,-164.3C188.35,-164.3 132.72,-164.3 132.72,-164.3 129.62,-164.3 126.52,-161.2 126.52,-158.1 126.52,-158.1 126.52,-151.9 126.52,-151.9 126.52,-148.8 129.62,-145.7 132.72,-145.7 132.72,-145.7 188.35,-145.7 188.35,-145.7 191.45,-145.7 194.55,-148.8 194.55,-151.9 194.55,-151.9 194.55,-158.1 194.55,-158.1 194.55,-161.2 191.45,-164.3 188.35,-164.3"/>
<text text-anchor="middle" x="160.53" y="-152.3" font-family="Helvetica,sans-Serif" font-size="9.00">add&#45;button.js</text>
</a>
</g>
</g>
<!-- src/handlers/addButtonHandler.js -->
<g id="node2" class="node">
<title>src/handlers/addButtonHandler.js</title>
<g id="a_node2"><a xlink:href="../src/handlers/addButtonHandler.js" xlink:title="addButtonHandler.js">
<path fill="#ffffcc" stroke="black" d="M313.88,-164.3C313.88,-164.3 229.23,-164.3 229.23,-164.3 226.13,-164.3 223.03,-161.2 223.03,-158.1 223.03,-158.1 223.03,-151.9 223.03,-151.9 223.03,-148.8 226.13,-145.7 229.23,-145.7 229.23,-145.7 313.88,-145.7 313.88,-145.7 316.98,-145.7 320.08,-148.8 320.08,-151.9 320.08,-151.9 320.08,-158.1 320.08,-158.1 320.08,-161.2 316.98,-164.3 313.88,-164.3"/>
<text text-anchor="middle" x="271.55" y="-152.3" font-family="Helvetica,sans-Serif" font-size="9.00">addButtonHandler.js</text>
</a>
</g>
</g>
<!-- src/components/add&#45;button.js&#45;&gt;src/handlers/addButtonHandler.js -->
<g id="edge1" class="edge">
<title>src/components/add&#45;button.js&#45;&gt;src/handlers/addButtonHandler.js</title>
<path fill="none" stroke="#000000" stroke-width="2" stroke-opacity="0.200000" d="M194.84,-155C201.78,-155 209.27,-155 216.75,-155"/>
<polygon fill="#000000" fill-opacity="0.200000" stroke="#000000" stroke-width="2" stroke-opacity="0.200000" points="217.01,-157.1 223.01,-155 217.01,-152.9 217.01,-157.1"/>
</g>
<!-- src/data.js -->
<g id="node6" class="node">
<title>src/data.js</title>
<g id="a_node6"><a xlink:href="../src/data.js" xlink:title="data.js">
<path fill="#ffffcc" stroke="black" d="M388.36,-179.3C388.36,-179.3 346.77,-179.3 346.77,-179.3 343.66,-179.3 340.56,-176.2 340.56,-173.1 340.56,-173.1 340.56,-166.9 340.56,-166.9 340.56,-163.8 343.66,-160.7 346.77,-160.7 346.77,-160.7 388.36,-160.7 388.36,-160.7 391.46,-160.7 394.56,-163.8 394.56,-166.9 394.56,-166.9 394.56,-173.1 394.56,-173.1 394.56,-176.2 391.46,-179.3 388.36,-179.3"/>
<text text-anchor="middle" x="367.56" y="-167.3" font-family="Helvetica,sans-Serif" font-size="9.00">data.js</text>
</a>
</g>
</g>
<!-- src/handlers/addButtonHandler.js&#45;&gt;src/data.js -->
<g id="edge4" class="edge">
<title>src/handlers/addButtonHandler.js&#45;&gt;src/data.js</title>
<path fill="none" stroke="#000000" stroke-width="2" stroke-opacity="0.200000" d="M320.11,-162.59C324.87,-163.35 329.62,-164.11 334.17,-164.83"/>
<polygon fill="#000000" fill-opacity="0.200000" stroke="#000000" stroke-width="2" stroke-opacity="0.200000" points="333.97,-166.93 340.23,-165.8 334.63,-162.78 333.97,-166.93"/>
</g>
<!-- src/components/add&#45;button.spec.js -->
<g id="node3" class="node">
<title>src/components/add&#45;button.spec.js</title>
<g id="a_node3"><a xlink:href="../src/components/add-button.spec.js" xlink:title="add&#45;button.spec.js">
<path fill="#ffffcc" stroke="black" d="M107.09,-164.3C107.09,-164.3 30.44,-164.3 30.44,-164.3 27.34,-164.3 24.24,-161.2 24.24,-158.1 24.24,-158.1 24.24,-151.9 24.24,-151.9 24.24,-148.8 27.34,-145.7 30.44,-145.7 30.44,-145.7 107.09,-145.7 107.09,-145.7 110.19,-145.7 113.29,-148.8 113.29,-151.9 113.29,-151.9 113.29,-158.1 113.29,-158.1 113.29,-161.2 110.19,-164.3 107.09,-164.3"/>
<text text-anchor="middle" x="68.76" y="-152.3" font-family="Helvetica,sans-Serif" font-size="9.00">add&#45;button.spec.js</text>
</a>
</g>
</g>
<!-- src/components/add&#45;button.spec.js&#45;&gt;src/components/add&#45;button.js -->
<g id="edge2" class="edge">
<title>src/components/add&#45;button.spec.js&#45;&gt;src/components/add&#45;button.js</title>
<path fill="none" stroke="#000000" stroke-width="2" stroke-opacity="0.200000" d="M113.33,-155C115.66,-155 117.99,-155 120.3,-155"/>
<polygon fill="#000000" fill-opacity="0.200000" stroke="#000000" stroke-width="2" stroke-opacity="0.200000" points="120.35,-157.1 126.35,-155 120.35,-152.9 120.35,-157.1"/>
</g>
<!-- src/components/check&#45;button.js -->
<g id="node4" class="node">
<title>src/components/check&#45;button.js</title>
<g id="a_node4"><a xlink:href="../src/components/check-button.js" xlink:title="check&#45;button.js">
<path fill="#ffffcc" stroke="black" d="M100.58,-195.3C100.58,-195.3 36.95,-195.3 36.95,-195.3 33.85,-195.3 30.75,-192.2 30.75,-189.1 30.75,-189.1 30.75,-182.9 30.75,-182.9 30.75,-179.8 33.85,-176.7 36.95,-176.7 36.95,-176.7 100.58,-176.7 100.58,-176.7 103.68,-176.7 106.78,-179.8 106.78,-182.9 106.78,-182.9 106.78,-189.1 106.78,-189.1 106.78,-192.2 103.68,-195.3 100.58,-195.3"/>
<text text-anchor="middle" x="68.76" y="-183.3" font-family="Helvetica,sans-Serif" font-size="9.00">check&#45;button.js</text>
</a>
</g>
</g>
<!-- src/handlers/checkButtonHandler.js -->
<g id="node5" class="node">
<title>src/handlers/checkButtonHandler.js</title>
<g id="a_node5"><a xlink:href="../src/handlers/checkButtonHandler.js" xlink:title="checkButtonHandler.js">
<path fill="#ffffcc" stroke="black" d="M318.37,-195.3C318.37,-195.3 224.73,-195.3 224.73,-195.3 221.63,-195.3 218.53,-192.2 218.53,-189.1 218.53,-189.1 218.53,-182.9 218.53,-182.9 218.53,-179.8 221.63,-176.7 224.73,-176.7 224.73,-176.7 318.37,-176.7 318.37,-176.7 321.47,-176.7 324.57,-179.8 324.57,-182.9 324.57,-182.9 324.57,-189.1 324.57,-189.1 324.57,-192.2 321.47,-195.3 318.37,-195.3"/>
<text text-anchor="middle" x="271.55" y="-183.3" font-family="Helvetica,sans-Serif" font-size="9.00">checkButtonHandler.js</text>
</a>
</g>
</g>
<!-- src/components/check&#45;button.js&#45;&gt;src/handlers/checkButtonHandler.js -->
<g id="edge3" class="edge">
<title>src/components/check&#45;button.js&#45;&gt;src/handlers/checkButtonHandler.js</title>
<path fill="none" stroke="#000000" stroke-width="2" stroke-opacity="0.200000" d="M107.06,-186C136.53,-186 178.19,-186 212.09,-186"/>
<polygon fill="#000000" fill-opacity="0.200000" stroke="#000000" stroke-width="2" stroke-opacity="0.200000" points="212.32,-188.1 218.32,-186 212.32,-183.9 212.32,-188.1"/>
</g>
<!-- src/handlers/checkButtonHandler.js&#45;&gt;src/data.js -->
<g id="edge5" class="edge">
<title>src/handlers/checkButtonHandler.js&#45;&gt;src/data.js</title>
<path fill="none" stroke="#000000" stroke-width="2" stroke-opacity="0.200000" d="M324.78,-177.11C327.99,-176.56 331.17,-176.02 334.26,-175.5"/>
<polygon fill="#000000" fill-opacity="0.200000" stroke="#000000" stroke-width="2" stroke-opacity="0.200000" points="334.88,-177.52 340.44,-174.45 334.17,-173.38 334.88,-177.52"/>
</g>
<!-- src/handlers/deleteTodoHandler.js -->
<g id="node7" class="node">
<title>src/handlers/deleteTodoHandler.js</title>
<g id="a_node7"><a xlink:href="../src/handlers/deleteTodoHandler.js" xlink:title="deleteTodoHandler.js">
<path fill="#ffffcc" stroke="black" d="M315.87,-133.3C315.87,-133.3 227.23,-133.3 227.23,-133.3 224.13,-133.3 221.03,-130.2 221.03,-127.1 221.03,-127.1 221.03,-120.9 221.03,-120.9 221.03,-117.8 224.13,-114.7 227.23,-114.7 227.23,-114.7 315.87,-114.7 315.87,-114.7 318.97,-114.7 322.07,-117.8 322.07,-120.9 322.07,-120.9 322.07,-127.1 322.07,-127.1 322.07,-130.2 318.97,-133.3 315.87,-133.3"/>
<text text-anchor="middle" x="271.55" y="-121.3" font-family="Helvetica,sans-Serif" font-size="9.00">deleteTodoHandler.js</text>
</a>
</g>
</g>
<!-- src/handlers/resetButtonHandler.js -->
<g id="node8" class="node">
<title>src/handlers/resetButtonHandler.js</title>
<g id="a_node8"><a xlink:href="../src/handlers/resetButtonHandler.js" xlink:title="resetButtonHandler.js">
<path fill="#ffffcc" stroke="black" d="M316.37,-102.3C316.37,-102.3 226.74,-102.3 226.74,-102.3 223.64,-102.3 220.54,-99.2 220.54,-96.1 220.54,-96.1 220.54,-89.9 220.54,-89.9 220.54,-86.8 223.64,-83.7 226.74,-83.7 226.74,-83.7 316.37,-83.7 316.37,-83.7 319.47,-83.7 322.57,-86.8 322.57,-89.9 322.57,-89.9 322.57,-96.1 322.57,-96.1 322.57,-99.2 319.47,-102.3 316.37,-102.3"/>
<text text-anchor="middle" x="271.55" y="-90.3" font-family="Helvetica,sans-Serif" font-size="9.00">resetButtonHandler.js</text>
</a>
</g>
</g>
<!-- src/init/index.js -->
<g id="node9" class="node">
<title>src/init/index.js</title>
<g id="a_node9"><a xlink:href="../src/init/index.js" xlink:title="index.js">
<path fill="#ffffcc" stroke="black" d="M89.56,-103.3C89.56,-103.3 47.96,-103.3 47.96,-103.3 44.86,-103.3 41.76,-100.2 41.76,-97.1 41.76,-97.1 41.76,-90.9 41.76,-90.9 41.76,-87.8 44.86,-84.7 47.96,-84.7 47.96,-84.7 89.56,-84.7 89.56,-84.7 92.66,-84.7 95.76,-87.8 95.76,-90.9 95.76,-90.9 95.76,-97.1 95.76,-97.1 95.76,-100.2 92.66,-103.3 89.56,-103.3"/>
<text text-anchor="middle" x="68.76" y="-91.3" font-family="Helvetica,sans-Serif" font-size="9.00">index.js</text>
</a>
</g>
</g>
<!-- src/listeners/listener.js -->
<g id="node10" class="node">
<title>src/listeners/listener.js</title>
<g id="a_node10"><a xlink:href="../src/listeners/listener.js" xlink:title="listener.js">
<path fill="#ffffcc" stroke="black" d="M181.33,-103.3C181.33,-103.3 139.74,-103.3 139.74,-103.3 136.63,-103.3 133.53,-100.2 133.53,-97.1 133.53,-97.1 133.53,-90.9 133.53,-90.9 133.53,-87.8 136.63,-84.7 139.74,-84.7 139.74,-84.7 181.33,-84.7 181.33,-84.7 184.43,-84.7 187.53,-87.8 187.53,-90.9 187.53,-90.9 187.53,-97.1 187.53,-97.1 187.53,-100.2 184.43,-103.3 181.33,-103.3"/>
<text text-anchor="middle" x="160.53" y="-91.3" font-family="Helvetica,sans-Serif" font-size="9.00">listener.js</text>
</a>
</g>
</g>
<!-- src/init/index.js&#45;&gt;src/listeners/listener.js -->
<g id="edge6" class="edge">
<title>src/init/index.js&#45;&gt;src/listeners/listener.js</title>
<path fill="none" stroke="#000000" stroke-width="2" stroke-opacity="0.200000" d="M96.21,-94C105.89,-94 116.96,-94 127.1,-94"/>
<polygon fill="#000000" fill-opacity="0.200000" stroke="#000000" stroke-width="2" stroke-opacity="0.200000" points="127.27,-96.1 133.27,-94 127.27,-91.9 127.27,-96.1"/>
</g>
<!-- src/listeners/listener.js&#45;&gt;src/handlers/deleteTodoHandler.js -->
<g id="edge7" class="edge">
<title>src/listeners/listener.js&#45;&gt;src/handlers/deleteTodoHandler.js</title>
<path fill="none" stroke="#000000" stroke-width="2" stroke-opacity="0.200000" d="M187.71,-101.57C195.09,-103.68 203.12,-105.95 210.54,-108 216.47,-109.64 222.73,-111.34 228.88,-112.99"/>
<polygon fill="#000000" fill-opacity="0.200000" stroke="#000000" stroke-width="2" stroke-opacity="0.200000" points="228.65,-115.1 234.99,-114.63 229.73,-111.05 228.65,-115.1"/>
</g>
<!-- src/listeners/listener.js&#45;&gt;src/handlers/resetButtonHandler.js -->
<g id="edge8" class="edge">
<title>src/listeners/listener.js&#45;&gt;src/handlers/resetButtonHandler.js</title>
<path fill="none" stroke="#000000" stroke-width="2" stroke-opacity="0.200000" d="M187.65,-93.76C195.71,-93.69 204.92,-93.6 214.2,-93.52"/>
<polygon fill="#000000" fill-opacity="0.200000" stroke="#000000" stroke-width="2" stroke-opacity="0.200000" points="214.32,-95.62 220.3,-93.46 214.28,-91.42 214.32,-95.62"/>
</g>
<!-- src/procedures/addTodo.js -->
<g id="node11" class="node">
<title>src/procedures/addTodo.js</title>
<g id="a_node11"><a xlink:href="../src/procedures/addTodo.js" xlink:title="addTodo.js">
<path fill="#ccffcc" stroke="black" d="M92.58,-42.3C92.58,-42.3 44.95,-42.3 44.95,-42.3 41.85,-42.3 38.75,-39.2 38.75,-36.1 38.75,-36.1 38.75,-29.9 38.75,-29.9 38.75,-26.8 41.85,-23.7 44.95,-23.7 44.95,-23.7 92.58,-23.7 92.58,-23.7 95.68,-23.7 98.78,-26.8 98.78,-29.9 98.78,-29.9 98.78,-36.1 98.78,-36.1 98.78,-39.2 95.68,-42.3 92.58,-42.3"/>
<text text-anchor="middle" x="68.76" y="-30.3" font-family="Helvetica,sans-Serif" font-size="9.00">addTodo.js</text>
</a>
</g>
</g>
</g>
</svg>
