<?xml version="1.0" encoding="UTF-8" standalone="no"?>
<!DOCTYPE svg PUBLIC "-//W3C//DTD SVG 1.1//EN"
 "http://www.w3.org/Graphics/SVG/1.1/DTD/svg11.dtd">
<!-- Generated by graphviz version 2.44.0 (20200408.0750)
 -->
<!-- Title: dependency&#45;cruiser output Pages: 1 -->
<svg width="486pt" height="396pt"
 viewBox="0.00 0.00 486.04 396.00" xmlns="http://www.w3.org/2000/svg" xmlns:xlink="http://www.w3.org/1999/xlink">
<g id="graph0" class="graph" transform="scale(1 1) rotate(0) translate(4 392)">
<title>dependency&#45;cruiser output</title>
<polygon fill="white" stroke="transparent" points="-4,4 -4,-392 482.04,-392 482.04,4 -4,4"/>
<g id="clust1" class="cluster">
<title>cluster_src</title>
<path fill="#ffffff" stroke="black" stroke-width="2" d="M20,-8C20,-8 458.04,-8 458.04,-8 464.04,-8 470.04,-14 470.04,-20 470.04,-20 470.04,-368 470.04,-368 470.04,-374 464.04,-380 458.04,-380 458.04,-380 20,-380 20,-380 14,-380 8,-374 8,-368 8,-368 8,-20 8,-20 8,-14 14,-8 20,-8"/>
<text text-anchor="middle" x="239.02" y="-367.9" font-family="Helvetica,sans-Serif" font-weight="bold" font-size="9.00">src</text>
</g>
<g id="clust2" class="cluster">
<title>cluster_src/components</title>
<path fill="#ffffff" stroke="black" stroke-width="2" d="M176,-22C176,-22 373.29,-22 373.29,-22 379.29,-22 385.29,-28 385.29,-34 385.29,-34 385.29,-187 385.29,-187 385.29,-193 379.29,-199 373.29,-199 373.29,-199 176,-199 176,-199 170,-199 164,-193 164,-187 164,-187 164,-34 164,-34 164,-28 170,-22 176,-22"/>
<text text-anchor="middle" x="274.65" y="-186.9" font-family="Helvetica,sans-Serif" font-weight="bold" font-size="9.00">components</text>
</g>
<g id="clust3" class="cluster">
<title>cluster_src/handlers</title>
<path fill="#ffffff" stroke="black" stroke-width="2" d="M290.02,-207C290.02,-207 388.04,-207 388.04,-207 394.04,-207 400.04,-213 400.04,-219 400.04,-219 400.04,-341 400.04,-341 400.04,-347 394.04,-353 388.04,-353 388.04,-353 290.02,-353 290.02,-353 284.02,-353 278.02,-347 278.02,-341 278.02,-341 278.02,-219 278.02,-219 278.02,-213 284.02,-207 290.02,-207"/>
<text text-anchor="middle" x="339.03" y="-340.9" font-family="Helvetica,sans-Serif" font-weight="bold" font-size="9.00">handlers</text>
</g>
<g id="clust4" class="cluster">
<title>cluster_src/init</title>
<path fill="#ffffff" stroke="black" stroke-width="2" d="M28,-81C28,-81 144,-81 144,-81 150,-81 156,-87 156,-93 156,-93 156,-122 156,-122 156,-128 150,-134 144,-134 144,-134 28,-134 28,-134 22,-134 16,-128 16,-122 16,-122 16,-93 16,-93 16,-87 22,-81 28,-81"/>
<text text-anchor="middle" x="86" y="-121.9" font-family="Helvetica,sans-Serif" font-weight="bold" font-size="9.00">init</text>
</g>
<g id="clust5" class="cluster">
<title>cluster_src/listeners</title>
<path fill="#ffffff" stroke="black" stroke-width="2" d="M98,-142C98,-142 144,-142 144,-142 150,-142 156,-148 156,-154 156,-154 156,-183 156,-183 156,-189 150,-195 144,-195 144,-195 98,-195 98,-195 92,-195 86,-189 86,-183 86,-183 86,-154 86,-154 86,-148 92,-142 98,-142"/>
<text text-anchor="middle" x="121" y="-182.9" font-family="Helvetica,sans-Serif" font-weight="bold" font-size="9.00">listeners</text>
</g>
<!-- src/components/add&#45;button.js -->
<g id="node1" class="node">
<title>src/components/add&#45;button.js</title>
<g id="a_node1"><a xlink:href="../src/components/add-button.js" xlink:title="add&#45;button.js">
<path fill="#ffffcc" stroke="black" d="M366.85,-48.3C366.85,-48.3 311.22,-48.3 311.22,-48.3 308.11,-48.3 305.01,-45.2 305.01,-42.1 305.01,-42.1 305.01,-35.9 305.01,-35.9 305.01,-32.8 308.11,-29.7 311.22,-29.7 311.22,-29.7 366.85,-29.7 366.85,-29.7 369.95,-29.7 373.05,-32.8 373.05,-35.9 373.05,-35.9 373.05,-42.1 373.05,-42.1 373.05,-45.2 369.95,-48.3 366.85,-48.3"/>
<text text-anchor="middle" x="339.03" y="-36.3" font-family="Helvetica,sans-Serif" font-size="9.00">add&#45;button.js</text>
</a>
</g>
</g>
<!-- src/handlers/addButtonHandler.js -->
<g id="node2" class="node">
<title>src/handlers/addButtonHandler.js</title>
<g id="a_node2"><a xlink:href="../src/handlers/addButtonHandler.js" xlink:title="addButtonHandler.js">
<path fill="#ffffcc" stroke="black" d="M381.36,-295.3C381.36,-295.3 296.71,-295.3 296.71,-295.3 293.61,-295.3 290.51,-292.2 290.51,-289.1 290.51,-289.1 290.51,-282.9 290.51,-282.9 290.51,-279.8 293.61,-276.7 296.71,-276.7 296.71,-276.7 381.36,-276.7 381.36,-276.7 384.46,-276.7 387.56,-279.8 387.56,-282.9 387.56,-282.9 387.56,-289.1 387.56,-289.1 387.56,-292.2 384.46,-295.3 381.36,-295.3"/>
<text text-anchor="middle" x="339.03" y="-283.3" font-family="Helvetica,sans-Serif" font-size="9.00">addButtonHandler.js</text>
</a>
</g>
</g>
<!-- src/components/add&#45;button.js&#45;&gt;src/handlers/addButtonHandler.js -->
<g id="edge1" class="edge">
<title>src/components/add&#45;button.js&#45;&gt;src/handlers/addButtonHandler.js</title>
<path fill="none" stroke="#000000" stroke-width="2" stroke-opacity="0.200000" d="M323.8,-48.36C307.52,-59.46 283.01,-79.7 275.36,-105 272.76,-113.56 272.76,-257.44 275.36,-266 277.06,-271.62 280.58,-275.8 285.14,-278.89"/>
<polygon fill="#000000" fill-opacity="0.200000" stroke="#000000" stroke-width="2" stroke-opacity="0.200000" points="284.18,-280.76 290.45,-281.83 286.22,-277.08 284.18,-280.76"/>
<path fill="none" stroke="#000000" stroke-width="2" stroke-opacity="0.200000" d="M324.1,-48.38C307.18,-60.09 280.89,-81.92 272.69,-109 270.23,-117.14 270.23,-253.86 272.69,-262 274.73,-268.73 279.19,-273.65 284.88,-277.23"/>
<polygon fill="#000000" fill-opacity="0.200000" stroke="#000000" stroke-width="2" stroke-opacity="0.200000" points="284.14,-279.21 290.43,-280.16 286.1,-275.5 284.14,-279.21"/>
</g>
<!-- src/components/render&#45;list.js -->
<g id="node7" class="node">
<title>src/components/render&#45;list.js</title>
<g id="a_node7"><a xlink:href="../src/components/render-list.js" xlink:title="render&#45;list.js">
<path fill="#ffffcc" stroke="black" d="M247.3,-141.3C247.3,-141.3 194.72,-141.3 194.72,-141.3 191.62,-141.3 188.52,-138.2 188.52,-135.1 188.52,-135.1 188.52,-128.9 188.52,-128.9 188.52,-125.8 191.62,-122.7 194.72,-122.7 194.72,-122.7 247.3,-122.7 247.3,-122.7 250.41,-122.7 253.51,-125.8 253.51,-128.9 253.51,-128.9 253.51,-135.1 253.51,-135.1 253.51,-138.2 250.41,-141.3 247.3,-141.3"/>
<text text-anchor="middle" x="221.01" y="-129.3" font-family="Helvetica,sans-Serif" font-size="9.00">render&#45;list.js</text>
</a>
</g>
</g>
<!-- src/handlers/addButtonHandler.js&#45;&gt;src/components/render&#45;list.js -->
<g id="edge10" class="edge">
<title>src/handlers/addButtonHandler.js&#45;&gt;src/components/render&#45;list.js</title>
<path fill="none" stroke="#000000" stroke-width="2" stroke-opacity="0.200000" d="M290.36,-279.54C285.65,-277.19 281.38,-274.08 278.02,-270 260.77,-249.01 286.62,-169.51 270.02,-148 267.22,-144.37 263.56,-141.55 259.51,-139.37"/>
<polygon fill="#000000" fill-opacity="0.200000" stroke="#000000" stroke-width="2" stroke-opacity="0.200000" points="260.12,-137.34 253.79,-136.77 258.38,-141.16 260.12,-137.34"/>
</g>
<!-- src/data.js -->
<g id="node13" class="node">
<title>src/data.js</title>
<g id="a_node13"><a xlink:href="../src/data.js" xlink:title="data.js">
<path fill="#ffffcc" stroke="black" d="M455.84,-279.3C455.84,-279.3 414.24,-279.3 414.24,-279.3 411.14,-279.3 408.04,-276.2 408.04,-273.1 408.04,-273.1 408.04,-266.9 408.04,-266.9 408.04,-263.8 411.14,-260.7 414.24,-260.7 414.24,-260.7 455.84,-260.7 455.84,-260.7 458.94,-260.7 462.04,-263.8 462.04,-266.9 462.04,-266.9 462.04,-273.1 462.04,-273.1 462.04,-276.2 458.94,-279.3 455.84,-279.3"/>
<text text-anchor="middle" x="435.04" y="-267.3" font-family="Helvetica,sans-Serif" font-size="9.00">data.js</text>
</a>
</g>
</g>
<!-- src/handlers/addButtonHandler.js&#45;&gt;src/data.js -->
<g id="edge11" class="edge">
<title>src/handlers/addButtonHandler.js&#45;&gt;src/data.js</title>
<path fill="none" stroke="#000000" stroke-width="2" stroke-opacity="0.200000" d="M387.59,-277.91C392.35,-277.1 397.1,-276.29 401.65,-275.51"/>
<polygon fill="#000000" fill-opacity="0.200000" stroke="#000000" stroke-width="2" stroke-opacity="0.200000" points="402.14,-277.56 407.71,-274.48 401.44,-273.42 402.14,-277.56"/>
</g>
<!-- src/components/add&#45;button.spec.js -->
<g id="node3" class="node">
<title>src/components/add&#45;button.spec.js</title>
<g id="a_node3"><a xlink:href="../src/components/add-button.spec.js" xlink:title="add&#45;button.spec.js">
<path fill="#ffffcc" stroke="black" d="M259.34,-48.3C259.34,-48.3 182.69,-48.3 182.69,-48.3 179.58,-48.3 176.48,-45.2 176.48,-42.1 176.48,-42.1 176.48,-35.9 176.48,-35.9 176.48,-32.8 179.58,-29.7 182.69,-29.7 182.69,-29.7 259.34,-29.7 259.34,-29.7 262.44,-29.7 265.54,-32.8 265.54,-35.9 265.54,-35.9 265.54,-42.1 265.54,-42.1 265.54,-45.2 262.44,-48.3 259.34,-48.3"/>
<text text-anchor="middle" x="221.01" y="-36.3" font-family="Helvetica,sans-Serif" font-size="9.00">add&#45;button.spec.js</text>
</a>
</g>
</g>
<!-- src/components/add&#45;button.spec.js&#45;&gt;src/components/add&#45;button.js -->
<g id="edge2" class="edge">
<title>src/components/add&#45;button.spec.js&#45;&gt;src/components/add&#45;button.js</title>
<path fill="none" stroke="#000000" stroke-width="2" stroke-opacity="0.200000" d="M265.54,-39C276.4,-39 287.98,-39 298.63,-39"/>
<polygon fill="#000000" fill-opacity="0.200000" stroke="#000000" stroke-width="2" stroke-opacity="0.200000" points="298.77,-41.1 304.77,-39 298.77,-36.9 298.77,-41.1"/>
</g>
<!-- src/components/check&#45;button.js -->
<g id="node4" class="node">
<title>src/components/check&#45;button.js</title>
<g id="a_node4"><a xlink:href="../src/components/check-button.js" xlink:title="check&#45;button.js">
<path fill="#ffffcc" stroke="black" d="M370.85,-125.3C370.85,-125.3 307.22,-125.3 307.22,-125.3 304.12,-125.3 301.02,-122.2 301.02,-119.1 301.02,-119.1 301.02,-112.9 301.02,-112.9 301.02,-109.8 304.12,-106.7 307.22,-106.7 307.22,-106.7 370.85,-106.7 370.85,-106.7 373.95,-106.7 377.05,-109.8 377.05,-112.9 377.05,-112.9 377.05,-119.1 377.05,-119.1 377.05,-122.2 373.95,-125.3 370.85,-125.3"/>
<text text-anchor="middle" x="339.03" y="-113.3" font-family="Helvetica,sans-Serif" font-size="9.00">check&#45;button.js</text>
</a>
</g>
</g>
<!-- src/handlers/checkButtonHandler.js -->
<g id="node5" class="node">
<title>src/handlers/checkButtonHandler.js</title>
<g id="a_node5"><a xlink:href="../src/handlers/checkButtonHandler.js" xlink:title="checkButtonHandler.js">
<path fill="#ffffcc" stroke="black" d="M385.85,-264.3C385.85,-264.3 292.21,-264.3 292.21,-264.3 289.11,-264.3 286.01,-261.2 286.01,-258.1 286.01,-258.1 286.01,-251.9 286.01,-251.9 286.01,-248.8 289.11,-245.7 292.21,-245.7 292.21,-245.7 385.85,-245.7 385.85,-245.7 388.95,-245.7 392.05,-248.8 392.05,-251.9 392.05,-251.9 392.05,-258.1 392.05,-258.1 392.05,-261.2 388.95,-264.3 385.85,-264.3"/>
<text text-anchor="middle" x="339.03" y="-252.3" font-family="Helvetica,sans-Serif" font-size="9.00">checkButtonHandler.js</text>
</a>
</g>
</g>
<!-- src/components/check&#45;button.js&#45;&gt;src/handlers/checkButtonHandler.js -->
<g id="edge3" class="edge">
<title>src/components/check&#45;button.js&#45;&gt;src/handlers/checkButtonHandler.js</title>
<path fill="none" stroke="#000000" stroke-width="2" stroke-opacity="0.200000" d="M300.94,-117.59C288.8,-120.4 277.58,-126.25 274.02,-138 270.96,-148.1 270.96,-222.9 274.02,-233 274.55,-234.73 275.23,-236.33 276.07,-237.81"/>
<polygon fill="#000000" fill-opacity="0.200000" stroke="#000000" stroke-width="2" stroke-opacity="0.200000" points="280.1,-244.81 285.82,-247.57 283.07,-241.84 280.1,-244.81"/>
<polyline fill="none" stroke="#000000" stroke-width="2" stroke-opacity="0.200000" points="281.58,-243.33 279.46,-241.2 "/>
<ellipse fill="none" stroke="#000000" stroke-width="2" stroke-opacity="0.200000" cx="277.76" cy="-239.51" rx="2.4" ry="2.4"/>
</g>
<!-- src/handlers/checkButtonHandler.js&#45;&gt;src/components/render&#45;list.js -->
<g id="edge12" class="edge">
<title>src/handlers/checkButtonHandler.js&#45;&gt;src/components/render&#45;list.js</title>
<path fill="none" stroke="#000000" stroke-width="2" stroke-opacity="0.200000" d="M285.97,-245.93C283.01,-244.01 280.31,-241.72 278.02,-239 264.96,-223.46 282.6,-163.93 270.02,-148 268.86,-146.53 267.55,-145.19 266.14,-143.97"/>
<polygon fill="#000000" fill-opacity="0.200000" stroke="#000000" stroke-width="2" stroke-opacity="0.200000" points="259.95,-138 253.7,-136.83 257.86,-141.64 259.95,-138"/>
<polyline fill="none" stroke="#000000" stroke-width="2" stroke-opacity="0.200000" points="258.91,-139.82 261.51,-141.31 "/>
<ellipse fill="none" stroke="#000000" stroke-width="2" stroke-opacity="0.200000" cx="263.59" cy="-142.51" rx="2.4" ry="2.4"/>
</g>
<!-- src/handlers/checkButtonHandler.js&#45;&gt;src/data.js -->
<g id="edge13" class="edge">
<title>src/handlers/checkButtonHandler.js&#45;&gt;src/data.js</title>
<path fill="none" stroke="#000000" stroke-width="2" stroke-opacity="0.200000" d="M392.26,-263.33C395.47,-263.85 398.65,-264.35 401.74,-264.85"/>
<polygon fill="#000000" fill-opacity="0.200000" stroke="#000000" stroke-width="2" stroke-opacity="0.200000" points="401.66,-266.96 407.92,-265.83 402.32,-262.81 401.66,-266.96"/>
</g>
<!-- src/components/check&#45;button.spec.js -->
<g id="node6" class="node">
<title>src/components/check&#45;button.spec.js</title>
<g id="a_node6"><a xlink:href="../src/components/check-button.spec.js" xlink:title="check&#45;button.spec.js">
<path fill="#ffffcc" stroke="black" d="M263.83,-79.3C263.83,-79.3 178.19,-79.3 178.19,-79.3 175.09,-79.3 171.99,-76.2 171.99,-73.1 171.99,-73.1 171.99,-66.9 171.99,-66.9 171.99,-63.8 175.09,-60.7 178.19,-60.7 178.19,-60.7 263.83,-60.7 263.83,-60.7 266.93,-60.7 270.03,-63.8 270.03,-66.9 270.03,-66.9 270.03,-73.1 270.03,-73.1 270.03,-76.2 266.93,-79.3 263.83,-79.3"/>
<text text-anchor="middle" x="221.01" y="-67.3" font-family="Helvetica,sans-Serif" font-size="9.00">check&#45;button.spec.js</text>
</a>
</g>
</g>
<!-- src/components/check&#45;button.spec.js&#45;&gt;src/components/check&#45;button.js -->
<g id="edge4" class="edge">
<title>src/components/check&#45;button.spec.js&#45;&gt;src/components/check&#45;button.js</title>
<path fill="none" stroke="#000000" stroke-width="2" stroke-opacity="0.200000" d="M251.62,-79.38C257.74,-81.46 264.12,-83.72 270.02,-86 284.22,-91.48 299.77,-98.28 312.41,-104.02"/>
<polygon fill="#000000" fill-opacity="0.200000" stroke="#000000" stroke-width="2" stroke-opacity="0.200000" points="311.67,-105.99 318,-106.57 313.42,-102.17 311.67,-105.99"/>
</g>
<!-- src/components/render&#45;list.js&#45;&gt;src/components/check&#45;button.js -->
<g id="edge5" class="edge">
<title>src/components/render&#45;list.js&#45;&gt;src/components/check&#45;button.js</title>
<path fill="none" stroke="#000000" stroke-width="2" stroke-opacity="0.200000" d="M253.71,-127.63C263.9,-126.22 275.47,-124.63 286.69,-123.08"/>
<polygon fill="#000000" fill-opacity="0.200000" stroke="#000000" stroke-width="2" stroke-opacity="0.200000" points="294.95,-124.06 300.6,-121.16 294.37,-119.9 294.95,-124.06"/>
<polyline fill="none" stroke="#000000" stroke-width="2" stroke-opacity="0.200000" points="294.66,-121.98 291.69,-122.39 "/>
<ellipse fill="none" stroke="#000000" stroke-width="2" stroke-opacity="0.200000" cx="289.31" cy="-122.72" rx="2.4" ry="2.4"/>
</g>
<!-- src/components/trash&#45;button.js -->
<g id="node8" class="node">
<title>src/components/trash&#45;button.js</title>
<g id="a_node8"><a xlink:href="../src/components/trash-button.js" xlink:title="trash&#45;button.js">
<path fill="#ffffcc" stroke="black" d="M369.34,-156.3C369.34,-156.3 308.72,-156.3 308.72,-156.3 305.62,-156.3 302.52,-153.2 302.52,-150.1 302.52,-150.1 302.52,-143.9 302.52,-143.9 302.52,-140.8 305.62,-137.7 308.72,-137.7 308.72,-137.7 369.34,-137.7 369.34,-137.7 372.44,-137.7 375.55,-140.8 375.55,-143.9 375.55,-143.9 375.55,-150.1 375.55,-150.1 375.55,-153.2 372.44,-156.3 369.34,-156.3"/>
<text text-anchor="middle" x="339.03" y="-144.3" font-family="Helvetica,sans-Serif" font-size="9.00">trash&#45;button.js</text>
</a>
</g>
</g>
<!-- src/components/render&#45;list.js&#45;&gt;src/components/trash&#45;button.js -->
<g id="edge6" class="edge">
<title>src/components/render&#45;list.js&#45;&gt;src/components/trash&#45;button.js</title>
<path fill="none" stroke="#000000" stroke-width="2" stroke-opacity="0.200000" d="M253.71,-136.1C264.4,-137.48 276.59,-139.06 288.33,-140.57"/>
<polygon fill="#000000" fill-opacity="0.200000" stroke="#000000" stroke-width="2" stroke-opacity="0.200000" points="296.06,-143.69 302.28,-142.38 296.59,-139.53 296.06,-143.69"/>
<polyline fill="none" stroke="#000000" stroke-width="2" stroke-opacity="0.200000" points="296.33,-141.61 293.35,-141.22 "/>
<ellipse fill="none" stroke="#000000" stroke-width="2" stroke-opacity="0.200000" cx="290.97" cy="-140.92" rx="2.4" ry="2.4"/>
</g>
<!-- src/handlers/deleteTodoHandler.js -->
<g id="node11" class="node">
<title>src/handlers/deleteTodoHandler.js</title>
<g id="a_node11"><a xlink:href="../src/handlers/deleteTodoHandler.js" xlink:title="deleteTodoHandler.js">
<path fill="#ffffcc" stroke="black" d="M383.35,-233.3C383.35,-233.3 294.71,-233.3 294.71,-233.3 291.61,-233.3 288.51,-230.2 288.51,-227.1 288.51,-227.1 288.51,-220.9 288.51,-220.9 288.51,-217.8 291.61,-214.7 294.71,-214.7 294.71,-214.7 383.35,-214.7 383.35,-214.7 386.45,-214.7 389.55,-217.8 389.55,-220.9 389.55,-220.9 389.55,-227.1 389.55,-227.1 389.55,-230.2 386.45,-233.3 383.35,-233.3"/>
<text text-anchor="middle" x="339.03" y="-221.3" font-family="Helvetica,sans-Serif" font-size="9.00">deleteTodoHandler.js</text>
</a>
</g>
</g>
<!-- src/components/trash&#45;button.js&#45;&gt;src/handlers/deleteTodoHandler.js -->
<g id="edge8" class="edge">
<title>src/components/trash&#45;button.js&#45;&gt;src/handlers/deleteTodoHandler.js</title>
<path fill="none" stroke="#000000" stroke-width="2" stroke-opacity="0.200000" d="M350.69,-156.32C367.83,-172.23 370.96,-188.13 360.07,-204.03"/>
<polygon fill="#000000" fill-opacity="0.200000" stroke="#000000" stroke-width="2" stroke-opacity="0.200000" points="353.28,-208.59 350.9,-214.48 356.43,-211.36 353.28,-208.59"/>
<polyline fill="none" stroke="#000000" stroke-width="2" stroke-opacity="0.200000" points="354.85,-209.97 356.83,-207.72 "/>
<ellipse fill="none" stroke="#000000" stroke-width="2" stroke-opacity="0.200000" cx="358.42" cy="-205.92" rx="2.4" ry="2.4"/>
<path fill="none" stroke="#000000" stroke-width="2" stroke-opacity="0.200000" d="M327.38,-156.32C310.24,-172.23 307.11,-188.13 318,-204.03"/>
<polygon fill="#000000" fill-opacity="0.200000" stroke="#000000" stroke-width="2" stroke-opacity="0.200000" points="321.63,-211.36 327.17,-214.48 324.79,-208.59 321.63,-211.36"/>
<polyline fill="none" stroke="#000000" stroke-width="2" stroke-opacity="0.200000" points="323.21,-209.97 321.23,-207.72 "/>
<ellipse fill="none" stroke="#000000" stroke-width="2" stroke-opacity="0.200000" cx="319.65" cy="-205.92" rx="2.4" ry="2.4"/>
</g>
<!-- src/components/resetButton.js -->
<g id="node9" class="node">
<title>src/components/resetButton.js</title>
<g id="a_node9"><a xlink:href="../src/components/resetButton.js" xlink:title="resetButton.js">
<path fill="#ffffcc" stroke="black" d="M250.33,-172.3C250.33,-172.3 191.7,-172.3 191.7,-172.3 188.6,-172.3 185.5,-169.2 185.5,-166.1 185.5,-166.1 185.5,-159.9 185.5,-159.9 185.5,-156.8 188.6,-153.7 191.7,-153.7 191.7,-153.7 250.33,-153.7 250.33,-153.7 253.43,-153.7 256.53,-156.8 256.53,-159.9 256.53,-159.9 256.53,-166.1 256.53,-166.1 256.53,-169.2 253.43,-172.3 250.33,-172.3"/>
<text text-anchor="middle" x="221.01" y="-160.3" font-family="Helvetica,sans-Serif" font-size="9.00">resetButton.js</text>
</a>
</g>
</g>
<!-- src/handlers/resetButtonHandler.js -->
<g id="node10" class="node">
<title>src/handlers/resetButtonHandler.js</title>
<g id="a_node10"><a xlink:href="../src/handlers/resetButtonHandler.js" xlink:title="resetButtonHandler.js">
<path fill="#ffffcc" stroke="black" d="M383.85,-326.3C383.85,-326.3 294.21,-326.3 294.21,-326.3 291.11,-326.3 288.01,-323.2 288.01,-320.1 288.01,-320.1 288.01,-313.9 288.01,-313.9 288.01,-310.8 291.11,-307.7 294.21,-307.7 294.21,-307.7 383.85,-307.7 383.85,-307.7 386.95,-307.7 390.05,-310.8 390.05,-313.9 390.05,-313.9 390.05,-320.1 390.05,-320.1 390.05,-323.2 386.95,-326.3 383.85,-326.3"/>
<text text-anchor="middle" x="339.03" y="-314.3" font-family="Helvetica,sans-Serif" font-size="9.00">resetButtonHandler.js</text>
</a>
</g>
</g>
<!-- src/components/resetButton.js&#45;&gt;src/handlers/resetButtonHandler.js -->
<g id="edge7" class="edge">
<title>src/components/resetButton.js&#45;&gt;src/handlers/resetButtonHandler.js</title>
<path fill="none" stroke="#000000" stroke-width="2" stroke-opacity="0.200000" d="M222.97,-172.34C226.04,-197.22 237.89,-265.59 278.02,-301 279.52,-302.32 281.11,-303.53 282.78,-304.65"/>
<polygon fill="#000000" fill-opacity="0.200000" stroke="#000000" stroke-width="2" stroke-opacity="0.200000" points="281.75,-306.48 287.99,-307.7 283.88,-302.85 281.75,-306.48"/>
</g>
<!-- src/handlers/resetButtonHandler.js&#45;&gt;src/components/render&#45;list.js -->
<g id="edge16" class="edge">
<title>src/handlers/resetButtonHandler.js&#45;&gt;src/components/render&#45;list.js</title>
<path fill="none" stroke="#000000" stroke-width="2" stroke-opacity="0.200000" d="M287.76,-309.21C284.07,-307.04 280.74,-304.35 278.02,-301 256.58,-274.55 290.65,-175.09 270.02,-148 267.24,-144.35 263.6,-141.52 259.55,-139.33"/>
<polygon fill="#000000" fill-opacity="0.200000" stroke="#000000" stroke-width="2" stroke-opacity="0.200000" points="260.17,-137.3 253.84,-136.73 258.43,-141.13 260.17,-137.3"/>
</g>
<!-- src/handlers/resetButtonHandler.js&#45;&gt;src/data.js -->
<g id="edge17" class="edge">
<title>src/handlers/resetButtonHandler.js&#45;&gt;src/data.js</title>
<path fill="none" stroke="#000000" stroke-width="2" stroke-opacity="0.200000" d="M384.88,-307.61C390.14,-305.77 395.31,-303.58 400.04,-301 408.09,-296.61 415.75,-289.92 421.76,-283.89"/>
<polygon fill="#000000" fill-opacity="0.200000" stroke="#000000" stroke-width="2" stroke-opacity="0.200000" points="423.38,-285.23 426.01,-279.44 420.35,-282.33 423.38,-285.23"/>
</g>
<!-- src/handlers/deleteTodoHandler.js&#45;&gt;src/components/render&#45;list.js -->
<g id="edge14" class="edge">
<title>src/handlers/deleteTodoHandler.js&#45;&gt;src/components/render&#45;list.js</title>
<path fill="none" stroke="#000000" stroke-width="2" stroke-opacity="0.200000" d="M294.66,-214.59C288.31,-211.51 282.44,-207.42 278.02,-202 262.71,-183.18 285.62,-166.59 270.02,-148 268.85,-146.6 267.55,-145.32 266.15,-144.15"/>
<polygon fill="#000000" fill-opacity="0.200000" stroke="#000000" stroke-width="2" stroke-opacity="0.200000" points="260.22,-138.36 253.97,-137.21 258.14,-142.01 260.22,-138.36"/>
<polyline fill="none" stroke="#000000" stroke-width="2" stroke-opacity="0.200000" points="259.18,-140.18 261.79,-141.67 "/>
<ellipse fill="none" stroke="#000000" stroke-width="2" stroke-opacity="0.200000" cx="263.87" cy="-142.86" rx="2.4" ry="2.4"/>
</g>
<!-- src/handlers/deleteTodoHandler.js&#45;&gt;src/data.js -->
<g id="edge15" class="edge">
<title>src/handlers/deleteTodoHandler.js&#45;&gt;src/data.js</title>
<path fill="none" stroke="#000000" stroke-width="2" stroke-opacity="0.200000" d="M384.52,-233.35C389.9,-235.21 395.2,-237.4 400.04,-240 407.9,-244.21 415.45,-250.56 421.43,-256.33"/>
<polygon fill="#000000" fill-opacity="0.200000" stroke="#000000" stroke-width="2" stroke-opacity="0.200000" points="419.96,-257.83 425.68,-260.59 422.93,-254.86 419.96,-257.83"/>
</g>
<!-- src/components/trash&#45;button.spec.js -->
<g id="node12" class="node">
<title>src/components/trash&#45;button.spec.js</title>
<g id="a_node12"><a xlink:href="../src/components/trash-button.spec.js" xlink:title="trash&#45;button.spec.js">
<path fill="#ffffcc" stroke="black" d="M261.83,-110.3C261.83,-110.3 180.19,-110.3 180.19,-110.3 177.09,-110.3 173.99,-107.2 173.99,-104.1 173.99,-104.1 173.99,-97.9 173.99,-97.9 173.99,-94.8 177.09,-91.7 180.19,-91.7 180.19,-91.7 261.83,-91.7 261.83,-91.7 264.93,-91.7 268.03,-94.8 268.03,-97.9 268.03,-97.9 268.03,-104.1 268.03,-104.1 268.03,-107.2 264.93,-110.3 261.83,-110.3"/>
<text text-anchor="middle" x="221.01" y="-98.3" font-family="Helvetica,sans-Serif" font-size="9.00">trash&#45;button.spec.js</text>
</a>
</g>
</g>
<!-- src/components/trash&#45;button.spec.js&#45;&gt;src/components/trash&#45;button.js -->
<g id="edge9" class="edge">
<title>src/components/trash&#45;button.spec.js&#45;&gt;src/components/trash&#45;button.js</title>
<path fill="none" stroke="#000000" stroke-width="2" stroke-opacity="0.200000" d="M259.62,-110.46C263.34,-112.28 266.9,-114.44 270.02,-117 275.56,-121.54 272.34,-126.63 278.02,-131 283.39,-135.13 289.73,-138.2 296.25,-140.47"/>
<polygon fill="#000000" fill-opacity="0.200000" stroke="#000000" stroke-width="2" stroke-opacity="0.200000" points="295.91,-142.57 302.26,-142.35 297.16,-138.56 295.91,-142.57"/>
</g>
<!-- src/init/index.js -->
<g id="node14" class="node">
<title>src/init/index.js</title>
<g id="a_node14"><a xlink:href="../src/init/index.js" xlink:title="index.js">
<path fill="#ffffcc" stroke="black" d="M71.8,-107.3C71.8,-107.3 30.2,-107.3 30.2,-107.3 27.1,-107.3 24,-104.2 24,-101.1 24,-101.1 24,-94.9 24,-94.9 24,-91.8 27.1,-88.7 30.2,-88.7 30.2,-88.7 71.8,-88.7 71.8,-88.7 74.9,-88.7 78,-91.8 78,-94.9 78,-94.9 78,-101.1 78,-101.1 78,-104.2 74.9,-107.3 71.8,-107.3"/>
<text text-anchor="middle" x="51" y="-95.3" font-family="Helvetica,sans-Serif" font-size="9.00">index.js</text>
</a>
</g>
</g>
<!-- src/listeners/listener.js -->
<g id="node15" class="node">
<title>src/listeners/listener.js</title>
<g id="a_node15"><a xlink:href="../src/listeners/listener.js" xlink:title="listener.js">
<path fill="#ffffcc" stroke="black" d="M141.8,-168.3C141.8,-168.3 100.2,-168.3 100.2,-168.3 97.1,-168.3 94,-165.2 94,-162.1 94,-162.1 94,-155.9 94,-155.9 94,-152.8 97.1,-149.7 100.2,-149.7 100.2,-149.7 141.8,-149.7 141.8,-149.7 144.9,-149.7 148,-152.8 148,-155.9 148,-155.9 148,-162.1 148,-162.1 148,-165.2 144.9,-168.3 141.8,-168.3"/>
<text text-anchor="middle" x="121" y="-156.3" font-family="Helvetica,sans-Serif" font-size="9.00">listener.js</text>
</a>
</g>
</g>
<!-- src/init/index.js&#45;&gt;src/listeners/listener.js -->
<g id="edge18" class="edge">
<title>src/init/index.js&#45;&gt;src/listeners/listener.js</title>
<path fill="none" stroke="#000000" stroke-width="2" stroke-opacity="0.200000" d="M58.91,-107.33C65.37,-115.67 75.55,-127.94 86,-137 89.74,-140.24 93.98,-143.36 98.18,-146.18"/>
<polygon fill="#000000" fill-opacity="0.200000" stroke="#000000" stroke-width="2" stroke-opacity="0.200000" points="97.25,-148.08 103.43,-149.58 99.54,-144.55 97.25,-148.08"/>
</g>
<!-- src/init/ui.js -->
<g id="node16" class="node">
<title>src/init/ui.js</title>
<g id="a_node16"><a xlink:href="../src/init/ui.js" xlink:title="ui.js">
<path fill="#ffffcc" stroke="black" d="M141.8,-107.3C141.8,-107.3 100.2,-107.3 100.2,-107.3 97.1,-107.3 94,-104.2 94,-101.1 94,-101.1 94,-94.9 94,-94.9 94,-91.8 97.1,-88.7 100.2,-88.7 100.2,-88.7 141.8,-88.7 141.8,-88.7 144.9,-88.7 148,-91.8 148,-94.9 148,-94.9 148,-101.1 148,-101.1 148,-104.2 144.9,-107.3 141.8,-107.3"/>
<text text-anchor="middle" x="121" y="-95.3" font-family="Helvetica,sans-Serif" font-size="9.00">ui.js</text>
</a>
</g>
</g>
<!-- src/init/index.js&#45;&gt;src/init/ui.js -->
<g id="edge19" class="edge">
<title>src/init/index.js&#45;&gt;src/init/ui.js</title>
<path fill="none" stroke="#000000" stroke-width="2" stroke-opacity="0.200000" d="M78.1,-98C81.12,-98 84.23,-98 87.33,-98"/>
<polygon fill="#000000" fill-opacity="0.200000" stroke="#000000" stroke-width="2" stroke-opacity="0.200000" points="87.64,-100.1 93.64,-98 87.64,-95.9 87.64,-100.1"/>
</g>
<!-- src/init/ui.js&#45;&gt;src/components/add&#45;button.js -->
<g id="edge20" class="edge">
<title>src/init/ui.js&#45;&gt;src/components/add&#45;button.js</title>
<path fill="none" stroke="#000000" stroke-width="2" stroke-opacity="0.200000" d="M124.1,-88.6C128.36,-72.04 139.74,-38.12 164,-24 209.83,2.69 274.26,-14.09 310.49,-27.4"/>
<polygon fill="#000000" fill-opacity="0.200000" stroke="#000000" stroke-width="2" stroke-opacity="0.200000" points="310.13,-29.51 316.49,-29.66 311.62,-25.58 310.13,-29.51"/>
</g>
<!-- src/init/ui.js&#45;&gt;src/components/resetButton.js -->
<g id="edge21" class="edge">
<title>src/init/ui.js&#45;&gt;src/components/resetButton.js</title>
<path fill="none" stroke="#000000" stroke-width="2" stroke-opacity="0.200000" d="M129.78,-107.67C140.72,-121.16 159.76,-144.28 164,-147 168.75,-150.05 174.09,-152.53 179.54,-154.54"/>
<polygon fill="#000000" fill-opacity="0.200000" stroke="#000000" stroke-width="2" stroke-opacity="0.200000" points="179.12,-156.61 185.47,-156.55 180.46,-152.63 179.12,-156.61"/>
</g>
</g>
</svg>
