<?xml version="1.0" encoding="UTF-8" standalone="no"?>
<!DOCTYPE svg PUBLIC "-//W3C//DTD SVG 1.1//EN"
 "http://www.w3.org/Graphics/SVG/1.1/DTD/svg11.dtd">
<!-- Generated by graphviz version 2.44.0 (20200408.0750)
 -->
<!-- Title: dependency&#45;cruiser output Pages: 1 -->
<svg width="397pt" height="138pt"
 viewBox="0.00 0.00 396.55 138.00" xmlns="http://www.w3.org/2000/svg" xmlns:xlink="http://www.w3.org/1999/xlink">
<g id="graph0" class="graph" transform="scale(1 1) rotate(0) translate(4 134)">
<title>dependency&#45;cruiser output</title>
<polygon fill="white" stroke="transparent" points="-4,4 -4,-134 392.55,-134 392.55,4 -4,4"/>
<g id="clust1" class="cluster">
<title>cluster_src</title>
<path fill="#ffffff" stroke="black" stroke-width="2" d="M20,-8C20,-8 368.55,-8 368.55,-8 374.55,-8 380.55,-14 380.55,-20 380.55,-20 380.55,-110 380.55,-110 380.55,-116 374.55,-122 368.55,-122 368.55,-122 20,-122 20,-122 14,-122 8,-116 8,-110 8,-110 8,-20 8,-20 8,-14 14,-8 20,-8"/>
<text text-anchor="middle" x="194.27" y="-109.9" font-family="Helvetica,sans-Serif" font-weight="bold" font-size="9.00">src</text>
</g>
<g id="clust2" class="cluster">
<title>cluster_src/handlers</title>
<path fill="#ffffff" stroke="black" stroke-width="2" d="M184,-42C184,-42 276.03,-42 276.03,-42 282.03,-42 288.03,-48 288.03,-54 288.03,-54 288.03,-83 288.03,-83 288.03,-89 282.03,-95 276.03,-95 276.03,-95 184,-95 184,-95 178,-95 172,-89 172,-83 172,-83 172,-54 172,-54 172,-48 178,-42 184,-42"/>
<text text-anchor="middle" x="230.02" y="-82.9" font-family="Helvetica,sans-Serif" font-weight="bold" font-size="9.00">handlers</text>
</g>
<g id="clust3" class="cluster">
<title>cluster_src/init</title>
<path fill="#ffffff" stroke="black" stroke-width="2" d="M28,-42C28,-42 74,-42 74,-42 80,-42 86,-48 86,-54 86,-54 86,-83 86,-83 86,-89 80,-95 74,-95 74,-95 28,-95 28,-95 22,-95 16,-89 16,-83 16,-83 16,-54 16,-54 16,-48 22,-42 28,-42"/>
<text text-anchor="middle" x="51" y="-82.9" font-family="Helvetica,sans-Serif" font-weight="bold" font-size="9.00">init</text>
</g>
<g id="clust4" class="cluster">
<title>cluster_src/listeners</title>
<path fill="#ffffff" stroke="black" stroke-width="2" d="M106,-42C106,-42 152,-42 152,-42 158,-42 164,-48 164,-54 164,-54 164,-83 164,-83 164,-89 158,-95 152,-95 152,-95 106,-95 106,-95 100,-95 94,-89 94,-83 94,-83 94,-54 94,-54 94,-48 100,-42 106,-42"/>
<text text-anchor="middle" x="129" y="-82.9" font-family="Helvetica,sans-Serif" font-weight="bold" font-size="9.00">listeners</text>
</g>
<g id="clust5" class="cluster">
<title>cluster_src/procedures</title>
<path fill="#ffffff" stroke="black" stroke-width="2" d="M308.03,-42C308.03,-42 360.55,-42 360.55,-42 366.55,-42 372.55,-48 372.55,-54 372.55,-54 372.55,-83 372.55,-83 372.55,-89 366.55,-95 360.55,-95 360.55,-95 308.03,-95 308.03,-95 302.03,-95 296.03,-89 296.03,-83 296.03,-83 296.03,-54 296.03,-54 296.03,-48 302.03,-42 308.03,-42"/>
<text text-anchor="middle" x="334.29" y="-82.9" font-family="Helvetica,sans-Serif" font-weight="bold" font-size="9.00">procedures</text>
</g>
<!-- src/data.js -->
<g id="node1" class="node">
<title>src/data.js</title>
<g id="a_node1"><a xlink:href="../src/data.js" xlink:title="data.js">
<path fill="#ccffcc" stroke="black" d="M71.8,-34.3C71.8,-34.3 30.2,-34.3 30.2,-34.3 27.1,-34.3 24,-31.2 24,-28.1 24,-28.1 24,-21.9 24,-21.9 24,-18.8 27.1,-15.7 30.2,-15.7 30.2,-15.7 71.8,-15.7 71.8,-15.7 74.9,-15.7 78,-18.8 78,-21.9 78,-21.9 78,-28.1 78,-28.1 78,-31.2 74.9,-34.3 71.8,-34.3"/>
<text text-anchor="middle" x="51" y="-22.3" font-family="Helvetica,sans-Serif" font-size="9.00">data.js</text>
</a>
</g>
</g>
<!-- src/handlers/add_buttonhandler.js -->
<g id="node2" class="node">
<title>src/handlers/add_buttonhandler.js</title>
<g id="a_node2"><a xlink:href="../src/handlers/add_buttonhandler.js" xlink:title="add_buttonhandler.js">
<path fill="#ffffcc" stroke="black" d="M273.85,-68.3C273.85,-68.3 186.18,-68.3 186.18,-68.3 183.08,-68.3 179.98,-65.2 179.98,-62.1 179.98,-62.1 179.98,-55.9 179.98,-55.9 179.98,-52.8 183.08,-49.7 186.18,-49.7 186.18,-49.7 273.85,-49.7 273.85,-49.7 276.95,-49.7 280.05,-52.8 280.05,-55.9 280.05,-55.9 280.05,-62.1 280.05,-62.1 280.05,-65.2 276.95,-68.3 273.85,-68.3"/>
<text text-anchor="middle" x="230.02" y="-56.3" font-family="Helvetica,sans-Serif" font-size="9.00">add_buttonhandler.js</text>
</a>
</g>
</g>
<!-- src/procedures/addTodo.js -->
<g id="node3" class="node">
<title>src/procedures/addTodo.js</title>
<g id="a_node3"><a xlink:href="../src/procedures/addTodo.js" xlink:title="addTodo.js">
<path fill="#ffffcc" stroke="black" d="M358.11,-68.3C358.11,-68.3 310.48,-68.3 310.48,-68.3 307.37,-68.3 304.27,-65.2 304.27,-62.1 304.27,-62.1 304.27,-55.9 304.27,-55.9 304.27,-52.8 307.37,-49.7 310.48,-49.7 310.48,-49.7 358.11,-49.7 358.11,-49.7 361.21,-49.7 364.31,-52.8 364.31,-55.9 364.31,-55.9 364.31,-62.1 364.31,-62.1 364.31,-65.2 361.21,-68.3 358.11,-68.3"/>
<text text-anchor="middle" x="334.29" y="-56.3" font-family="Helvetica,sans-Serif" font-size="9.00">addTodo.js</text>
</a>
</g>
</g>
<!-- src/handlers/add_buttonhandler.js&#45;&gt;src/procedures/addTodo.js -->
<g id="edge1" class="edge">
<title>src/handlers/add_buttonhandler.js&#45;&gt;src/procedures/addTodo.js</title>
<path fill="none" stroke="#000000" stroke-width="2" stroke-opacity="0.200000" d="M280.06,-59C286.08,-59 292.14,-59 297.91,-59"/>
<polygon fill="#000000" fill-opacity="0.200000" stroke="#000000" stroke-width="2" stroke-opacity="0.200000" points="298.03,-61.1 304.03,-59 298.03,-56.9 298.03,-61.1"/>
</g>
<!-- src/init/index.js -->
<g id="node4" class="node">
<title>src/init/index.js</title>
<g id="a_node4"><a xlink:href="../src/init/index.js" xlink:title="index.js">
<path fill="#ffffcc" stroke="black" d="M71.8,-68.3C71.8,-68.3 30.2,-68.3 30.2,-68.3 27.1,-68.3 24,-65.2 24,-62.1 24,-62.1 24,-55.9 24,-55.9 24,-52.8 27.1,-49.7 30.2,-49.7 30.2,-49.7 71.8,-49.7 71.8,-49.7 74.9,-49.7 78,-52.8 78,-55.9 78,-55.9 78,-62.1 78,-62.1 78,-65.2 74.9,-68.3 71.8,-68.3"/>
<text text-anchor="middle" x="51" y="-56.3" font-family="Helvetica,sans-Serif" font-size="9.00">index.js</text>
</a>
</g>
</g>
<!-- src/listeners/listener.js -->
<g id="node5" class="node">
<title>src/listeners/listener.js</title>
<g id="a_node5"><a xlink:href="../src/listeners/listener.js" xlink:title="listener.js">
<path fill="#ffffcc" stroke="black" d="M149.8,-68.3C149.8,-68.3 108.2,-68.3 108.2,-68.3 105.1,-68.3 102,-65.2 102,-62.1 102,-62.1 102,-55.9 102,-55.9 102,-52.8 105.1,-49.7 108.2,-49.7 108.2,-49.7 149.8,-49.7 149.8,-49.7 152.9,-49.7 156,-52.8 156,-55.9 156,-55.9 156,-62.1 156,-62.1 156,-65.2 152.9,-68.3 149.8,-68.3"/>
<text text-anchor="middle" x="129" y="-56.3" font-family="Helvetica,sans-Serif" font-size="9.00">listener.js</text>
</a>
</g>
</g>
<!-- src/init/index.js&#45;&gt;src/listeners/listener.js -->
<g id="edge2" class="edge">
<title>src/init/index.js&#45;&gt;src/listeners/listener.js</title>
<path fill="none" stroke="#000000" stroke-width="2" stroke-opacity="0.200000" d="M78.15,-59C83.77,-59 89.76,-59 95.58,-59"/>
<polygon fill="#000000" fill-opacity="0.200000" stroke="#000000" stroke-width="2" stroke-opacity="0.200000" points="95.8,-61.1 101.8,-59 95.8,-56.9 95.8,-61.1"/>
</g>
<!-- src/listeners/listener.js&#45;&gt;src/handlers/add_buttonhandler.js -->
<g id="edge3" class="edge">
<title>src/listeners/listener.js&#45;&gt;src/handlers/add_buttonhandler.js</title>
<path fill="none" stroke="#000000" stroke-width="2" stroke-opacity="0.200000" d="M156.02,-59C161.52,-59 167.52,-59 173.65,-59"/>
<polygon fill="#000000" fill-opacity="0.200000" stroke="#000000" stroke-width="2" stroke-opacity="0.200000" points="173.8,-61.1 179.8,-59 173.8,-56.9 173.8,-61.1"/>
</g>
</g>
</svg>
