<?xml version="1.0" encoding="UTF-8" standalone="no"?>
<!DOCTYPE svg PUBLIC "-//W3C//DTD SVG 1.1//EN"
 "http://www.w3.org/Graphics/SVG/1.1/DTD/svg11.dtd">
<!-- Generated by graphviz version 2.44.0 (20200408.0750)
 -->
<!-- Title: dependency&#45;cruiser output Pages: 1 -->
<svg width="584pt" height="242pt"
 viewBox="0.00 0.00 583.56 242.00" xmlns="http://www.w3.org/2000/svg" xmlns:xlink="http://www.w3.org/1999/xlink">
<g id="graph0" class="graph" transform="scale(1 1) rotate(0) translate(4 238)">
<title>dependency&#45;cruiser output</title>
<polygon fill="white" stroke="transparent" points="-4,4 -4,-238 579.56,-238 579.56,4 -4,4"/>
<g id="clust1" class="cluster">
<title>cluster_src</title>
<path fill="#ffffff" stroke="black" stroke-width="2" d="M20,-8C20,-8 555.56,-8 555.56,-8 561.56,-8 567.56,-14 567.56,-20 567.56,-20 567.56,-214 567.56,-214 567.56,-220 561.56,-226 555.56,-226 555.56,-226 20,-226 20,-226 14,-226 8,-220 8,-214 8,-214 8,-20 8,-20 8,-14 14,-8 20,-8"/>
<text text-anchor="middle" x="287.78" y="-213.9" font-family="Helvetica,sans-Serif" font-weight="bold" font-size="9.00">src</text>
</g>
<g id="clust2" class="cluster">
<title>cluster_src/components</title>
<path fill="#ffffff" stroke="black" stroke-width="2" d="M176,-22C176,-22 355.54,-22 355.54,-22 361.54,-22 367.54,-28 367.54,-34 367.54,-34 367.54,-187 367.54,-187 367.54,-193 361.54,-199 355.54,-199 355.54,-199 176,-199 176,-199 170,-199 164,-193 164,-187 164,-187 164,-34 164,-34 164,-28 170,-22 176,-22"/>
<text text-anchor="middle" x="265.77" y="-186.9" font-family="Helvetica,sans-Serif" font-weight="bold" font-size="9.00">components</text>
</g>
<g id="clust3" class="cluster">
<title>cluster_src/handlers</title>
<path fill="#ffffff" stroke="black" stroke-width="2" d="M387.54,-53C387.54,-53 485.56,-53 485.56,-53 491.56,-53 497.56,-59 497.56,-65 497.56,-65 497.56,-187 497.56,-187 497.56,-193 491.56,-199 485.56,-199 485.56,-199 387.54,-199 387.54,-199 381.54,-199 375.54,-193 375.54,-187 375.54,-187 375.54,-65 375.54,-65 375.54,-59 381.54,-53 387.54,-53"/>
<text text-anchor="middle" x="436.55" y="-186.9" font-family="Helvetica,sans-Serif" font-weight="bold" font-size="9.00">handlers</text>
</g>
<g id="clust4" class="cluster">
<title>cluster_src/init</title>
<path fill="#ffffff" stroke="black" stroke-width="2" d="M28,-50C28,-50 144,-50 144,-50 150,-50 156,-56 156,-62 156,-62 156,-91 156,-91 156,-97 150,-103 144,-103 144,-103 28,-103 28,-103 22,-103 16,-97 16,-91 16,-91 16,-62 16,-62 16,-56 22,-50 28,-50"/>
<text text-anchor="middle" x="86" y="-90.9" font-family="Helvetica,sans-Serif" font-weight="bold" font-size="9.00">init</text>
</g>
<g id="clust5" class="cluster">
<title>cluster_src/listeners</title>
<path fill="#ffffff" stroke="black" stroke-width="2" d="M98,-111C98,-111 144,-111 144,-111 150,-111 156,-117 156,-123 156,-123 156,-152 156,-152 156,-158 150,-164 144,-164 144,-164 98,-164 98,-164 92,-164 86,-158 86,-152 86,-152 86,-123 86,-123 86,-117 92,-111 98,-111"/>
<text text-anchor="middle" x="121" y="-151.9" font-family="Helvetica,sans-Serif" font-weight="bold" font-size="9.00">listeners</text>
</g>
<!-- src/components/add&#45;button.js -->
<g id="node1" class="node">
<title>src/components/add&#45;button.js</title>
<g id="a_node1"><a xlink:href="../src/components/add-button.js" xlink:title="add&#45;button.js">
<path fill="#ffffcc" stroke="black" d="M349.1,-48.3C349.1,-48.3 293.46,-48.3 293.46,-48.3 290.36,-48.3 287.26,-45.2 287.26,-42.1 287.26,-42.1 287.26,-35.9 287.26,-35.9 287.26,-32.8 290.36,-29.7 293.46,-29.7 293.46,-29.7 349.1,-29.7 349.1,-29.7 352.2,-29.7 355.3,-32.8 355.3,-35.9 355.3,-35.9 355.3,-42.1 355.3,-42.1 355.3,-45.2 352.2,-48.3 349.1,-48.3"/>
<text text-anchor="middle" x="321.28" y="-36.3" font-family="Helvetica,sans-Serif" font-size="9.00">add&#45;button.js</text>
</a>
</g>
</g>
<!-- src/handlers/addButtonHandler.js -->
<g id="node2" class="node">
<title>src/handlers/addButtonHandler.js</title>
<g id="a_node2"><a xlink:href="../src/handlers/addButtonHandler.js" xlink:title="addButtonHandler.js">
<path fill="#ffffcc" stroke="black" d="M478.87,-110.3C478.87,-110.3 394.22,-110.3 394.22,-110.3 391.12,-110.3 388.02,-107.2 388.02,-104.1 388.02,-104.1 388.02,-97.9 388.02,-97.9 388.02,-94.8 391.12,-91.7 394.22,-91.7 394.22,-91.7 478.87,-91.7 478.87,-91.7 481.97,-91.7 485.07,-94.8 485.07,-97.9 485.07,-97.9 485.07,-104.1 485.07,-104.1 485.07,-107.2 481.97,-110.3 478.87,-110.3"/>
<text text-anchor="middle" x="436.55" y="-98.3" font-family="Helvetica,sans-Serif" font-size="9.00">addButtonHandler.js</text>
</a>
</g>
</g>
<!-- src/components/add&#45;button.js&#45;&gt;src/handlers/addButtonHandler.js -->
<g id="edge1" class="edge">
<title>src/components/add&#45;button.js&#45;&gt;src/handlers/addButtonHandler.js</title>
<path fill="none" stroke="#000000" stroke-width="2" stroke-opacity="0.200000" d="M355.73,-46.54C360.14,-48.69 364.26,-51.45 367.54,-55 376.9,-65.14 365.78,-75.24 375.54,-85 377.62,-87.08 379.94,-88.9 382.43,-90.49"/>
<polygon fill="#000000" fill-opacity="0.200000" stroke="#000000" stroke-width="2" stroke-opacity="0.200000" points="381.47,-92.36 387.73,-93.44 383.51,-88.69 381.47,-92.36"/>
</g>
<!-- src/components/render&#45;list.js -->
<g id="node7" class="node">
<title>src/components/render&#45;list.js</title>
<g id="a_node7"><a xlink:href="../src/components/render-list.js" xlink:title="render&#45;list.js">
<path fill="#ffffcc" stroke="black" d="M247.3,-141.3C247.3,-141.3 194.72,-141.3 194.72,-141.3 191.62,-141.3 188.52,-138.2 188.52,-135.1 188.52,-135.1 188.52,-128.9 188.52,-128.9 188.52,-125.8 191.62,-122.7 194.72,-122.7 194.72,-122.7 247.3,-122.7 247.3,-122.7 250.41,-122.7 253.51,-125.8 253.51,-128.9 253.51,-128.9 253.51,-135.1 253.51,-135.1 253.51,-138.2 250.41,-141.3 247.3,-141.3"/>
<text text-anchor="middle" x="221.01" y="-129.3" font-family="Helvetica,sans-Serif" font-size="9.00">render&#45;list.js</text>
</a>
</g>
</g>
<!-- src/handlers/addButtonHandler.js&#45;&gt;src/components/render&#45;list.js -->
<g id="edge10" class="edge">
<title>src/handlers/addButtonHandler.js&#45;&gt;src/components/render&#45;list.js</title>
<path fill="none" stroke="#000000" stroke-width="2" stroke-opacity="0.200000" d="M396.49,-110.37C387.05,-112.42 376.96,-114.45 367.54,-116 331.13,-122 289.21,-126.34 259.75,-128.97"/>
<polygon fill="#000000" fill-opacity="0.200000" stroke="#000000" stroke-width="2" stroke-opacity="0.200000" points="259.45,-126.89 253.66,-129.51 259.82,-131.08 259.45,-126.89"/>
</g>
<!-- src/data.js -->
<g id="node13" class="node">
<title>src/data.js</title>
<g id="a_node13"><a xlink:href="../src/data.js" xlink:title="data.js">
<path fill="#ffffcc" stroke="black" d="M553.36,-125.3C553.36,-125.3 511.76,-125.3 511.76,-125.3 508.66,-125.3 505.56,-122.2 505.56,-119.1 505.56,-119.1 505.56,-112.9 505.56,-112.9 505.56,-109.8 508.66,-106.7 511.76,-106.7 511.76,-106.7 553.36,-106.7 553.36,-106.7 556.46,-106.7 559.56,-109.8 559.56,-112.9 559.56,-112.9 559.56,-119.1 559.56,-119.1 559.56,-122.2 556.46,-125.3 553.36,-125.3"/>
<text text-anchor="middle" x="532.56" y="-113.3" font-family="Helvetica,sans-Serif" font-size="9.00">data.js</text>
</a>
</g>
</g>
<!-- src/handlers/addButtonHandler.js&#45;&gt;src/data.js -->
<g id="edge11" class="edge">
<title>src/handlers/addButtonHandler.js&#45;&gt;src/data.js</title>
<path fill="none" stroke="#000000" stroke-width="2" stroke-opacity="0.200000" d="M485.1,-108.59C489.86,-109.35 494.61,-110.11 499.16,-110.83"/>
<polygon fill="#000000" fill-opacity="0.200000" stroke="#000000" stroke-width="2" stroke-opacity="0.200000" points="498.97,-112.93 505.22,-111.8 499.63,-108.78 498.97,-112.93"/>
</g>
<!-- src/components/add&#45;button.spec.js -->
<g id="node3" class="node">
<title>src/components/add&#45;button.spec.js</title>
<g id="a_node3"><a xlink:href="../src/components/add-button.spec.js" xlink:title="add&#45;button.spec.js">
<path fill="#ffffcc" stroke="black" d="M259.34,-48.3C259.34,-48.3 182.69,-48.3 182.69,-48.3 179.58,-48.3 176.48,-45.2 176.48,-42.1 176.48,-42.1 176.48,-35.9 176.48,-35.9 176.48,-32.8 179.58,-29.7 182.69,-29.7 182.69,-29.7 259.34,-29.7 259.34,-29.7 262.44,-29.7 265.54,-32.8 265.54,-35.9 265.54,-35.9 265.54,-42.1 265.54,-42.1 265.54,-45.2 262.44,-48.3 259.34,-48.3"/>
<text text-anchor="middle" x="221.01" y="-36.3" font-family="Helvetica,sans-Serif" font-size="9.00">add&#45;button.spec.js</text>
</a>
</g>
</g>
<!-- src/components/add&#45;button.spec.js&#45;&gt;src/components/add&#45;button.js -->
<g id="edge2" class="edge">
<title>src/components/add&#45;button.spec.js&#45;&gt;src/components/add&#45;button.js</title>
<path fill="none" stroke="#000000" stroke-width="2" stroke-opacity="0.200000" d="M265.69,-39C270.73,-39 275.86,-39 280.84,-39"/>
<polygon fill="#000000" fill-opacity="0.200000" stroke="#000000" stroke-width="2" stroke-opacity="0.200000" points="281.06,-41.1 287.06,-39 281.06,-36.9 281.06,-41.1"/>
</g>
<!-- src/components/check&#45;button.js -->
<g id="node4" class="node">
<title>src/components/check&#45;button.js</title>
<g id="a_node4"><a xlink:href="../src/components/check-button.js" xlink:title="check&#45;button.js">
<path fill="#ffffcc" stroke="black" d="M353.1,-79.3C353.1,-79.3 289.46,-79.3 289.46,-79.3 286.36,-79.3 283.26,-76.2 283.26,-73.1 283.26,-73.1 283.26,-66.9 283.26,-66.9 283.26,-63.8 286.36,-60.7 289.46,-60.7 289.46,-60.7 353.1,-60.7 353.1,-60.7 356.2,-60.7 359.3,-63.8 359.3,-66.9 359.3,-66.9 359.3,-73.1 359.3,-73.1 359.3,-76.2 356.2,-79.3 353.1,-79.3"/>
<text text-anchor="middle" x="321.28" y="-67.3" font-family="Helvetica,sans-Serif" font-size="9.00">check&#45;button.js</text>
</a>
</g>
</g>
<!-- src/handlers/checkButtonHandler.js -->
<g id="node5" class="node">
<title>src/handlers/checkButtonHandler.js</title>
<g id="a_node5"><a xlink:href="../src/handlers/checkButtonHandler.js" xlink:title="checkButtonHandler.js">
<path fill="#ffffcc" stroke="black" d="M483.37,-79.3C483.37,-79.3 389.73,-79.3 389.73,-79.3 386.63,-79.3 383.53,-76.2 383.53,-73.1 383.53,-73.1 383.53,-66.9 383.53,-66.9 383.53,-63.8 386.63,-60.7 389.73,-60.7 389.73,-60.7 483.37,-60.7 483.37,-60.7 486.47,-60.7 489.57,-63.8 489.57,-66.9 489.57,-66.9 489.57,-73.1 489.57,-73.1 489.57,-76.2 486.47,-79.3 483.37,-79.3"/>
<text text-anchor="middle" x="436.55" y="-67.3" font-family="Helvetica,sans-Serif" font-size="9.00">checkButtonHandler.js</text>
</a>
</g>
</g>
<!-- src/components/check&#45;button.js&#45;&gt;src/handlers/checkButtonHandler.js -->
<g id="edge3" class="edge">
<title>src/components/check&#45;button.js&#45;&gt;src/handlers/checkButtonHandler.js</title>
<path fill="none" stroke="#000000" stroke-width="2" stroke-opacity="0.200000" d="M359.37,-70C365.08,-70 371.09,-70 377.13,-70"/>
<polygon fill="#000000" fill-opacity="0.200000" stroke="#000000" stroke-width="2" stroke-opacity="0.200000" points="377.17,-72.1 383.17,-70 377.17,-67.9 377.17,-72.1"/>
</g>
<!-- src/handlers/checkButtonHandler.js&#45;&gt;src/data.js -->
<g id="edge12" class="edge">
<title>src/handlers/checkButtonHandler.js&#45;&gt;src/data.js</title>
<path fill="none" stroke="#000000" stroke-width="2" stroke-opacity="0.200000" d="M482.04,-79.35C487.41,-81.21 492.71,-83.4 497.56,-86 505.41,-90.21 512.96,-96.56 518.95,-102.33"/>
<polygon fill="#000000" fill-opacity="0.200000" stroke="#000000" stroke-width="2" stroke-opacity="0.200000" points="517.47,-103.83 523.2,-106.59 520.45,-100.86 517.47,-103.83"/>
</g>
<!-- src/components/check&#45;button.spec.js -->
<g id="node6" class="node">
<title>src/components/check&#45;button.spec.js</title>
<g id="a_node6"><a xlink:href="../src/components/check-button.spec.js" xlink:title="check&#45;button.spec.js">
<path fill="#ffffcc" stroke="black" d="M263.83,-79.3C263.83,-79.3 178.19,-79.3 178.19,-79.3 175.09,-79.3 171.99,-76.2 171.99,-73.1 171.99,-73.1 171.99,-66.9 171.99,-66.9 171.99,-63.8 175.09,-60.7 178.19,-60.7 178.19,-60.7 263.83,-60.7 263.83,-60.7 266.93,-60.7 270.03,-63.8 270.03,-66.9 270.03,-66.9 270.03,-73.1 270.03,-73.1 270.03,-76.2 266.93,-79.3 263.83,-79.3"/>
<text text-anchor="middle" x="221.01" y="-67.3" font-family="Helvetica,sans-Serif" font-size="9.00">check&#45;button.spec.js</text>
</a>
</g>
</g>
<!-- src/components/check&#45;button.spec.js&#45;&gt;src/components/check&#45;button.js -->
<g id="edge4" class="edge">
<title>src/components/check&#45;button.spec.js&#45;&gt;src/components/check&#45;button.js</title>
<path fill="none" stroke="#000000" stroke-width="2" stroke-opacity="0.200000" d="M270.28,-70C272.42,-70 274.56,-70 276.68,-70"/>
<polygon fill="#000000" fill-opacity="0.200000" stroke="#000000" stroke-width="2" stroke-opacity="0.200000" points="276.99,-72.1 282.99,-70 276.99,-67.9 276.99,-72.1"/>
</g>
<!-- src/components/render&#45;list.js&#45;&gt;src/components/check&#45;button.js -->
<g id="edge5" class="edge">
<title>src/components/render&#45;list.js&#45;&gt;src/components/check&#45;button.js</title>
<path fill="none" stroke="#000000" stroke-width="2" stroke-opacity="0.200000" d="M253.54,-125.71C259.52,-123.41 265.36,-120.27 270.02,-116 280.74,-106.18 272.73,-96.26 283.02,-86 284.16,-84.87 285.38,-83.81 286.68,-82.83"/>
<polygon fill="#000000" fill-opacity="0.200000" stroke="#000000" stroke-width="2" stroke-opacity="0.200000" points="288.09,-84.41 291.95,-79.36 285.78,-80.9 288.09,-84.41"/>
</g>
<!-- src/components/trash&#45;button.js -->
<g id="node8" class="node">
<title>src/components/trash&#45;button.js</title>
<g id="a_node8"><a xlink:href="../src/components/trash-button.js" xlink:title="trash&#45;button.js">
<path fill="#ffffcc" stroke="black" d="M351.59,-110.3C351.59,-110.3 290.97,-110.3 290.97,-110.3 287.87,-110.3 284.77,-107.2 284.77,-104.1 284.77,-104.1 284.77,-97.9 284.77,-97.9 284.77,-94.8 287.87,-91.7 290.97,-91.7 290.97,-91.7 351.59,-91.7 351.59,-91.7 354.69,-91.7 357.79,-94.8 357.79,-97.9 357.79,-97.9 357.79,-104.1 357.79,-104.1 357.79,-107.2 354.69,-110.3 351.59,-110.3"/>
<text text-anchor="middle" x="321.28" y="-98.3" font-family="Helvetica,sans-Serif" font-size="9.00">trash&#45;button.js</text>
</a>
</g>
</g>
<!-- src/components/render&#45;list.js&#45;&gt;src/components/trash&#45;button.js -->
<g id="edge6" class="edge">
<title>src/components/render&#45;list.js&#45;&gt;src/components/trash&#45;button.js</title>
<path fill="none" stroke="#000000" stroke-width="2" stroke-opacity="0.200000" d="M251.76,-122.61C259.84,-120.07 268.76,-117.25 277.41,-114.52"/>
<polygon fill="#000000" fill-opacity="0.200000" stroke="#000000" stroke-width="2" stroke-opacity="0.200000" points="285.54,-114.16 290.63,-110.35 284.28,-110.16 285.54,-114.16"/>
<polyline fill="none" stroke="#000000" stroke-width="2" stroke-opacity="0.200000" points="284.91,-112.16 282.05,-113.06 "/>
<ellipse fill="none" stroke="#000000" stroke-width="2" stroke-opacity="0.200000" cx="279.76" cy="-113.78" rx="2.4" ry="2.4"/>
</g>
<!-- src/handlers/deleteTodoHandler.js -->
<g id="node11" class="node">
<title>src/handlers/deleteTodoHandler.js</title>
<g id="a_node11"><a xlink:href="../src/handlers/deleteTodoHandler.js" xlink:title="deleteTodoHandler.js">
<path fill="#ffffcc" stroke="black" d="M480.87,-141.3C480.87,-141.3 392.23,-141.3 392.23,-141.3 389.13,-141.3 386.03,-138.2 386.03,-135.1 386.03,-135.1 386.03,-128.9 386.03,-128.9 386.03,-125.8 389.13,-122.7 392.23,-122.7 392.23,-122.7 480.87,-122.7 480.87,-122.7 483.97,-122.7 487.07,-125.8 487.07,-128.9 487.07,-128.9 487.07,-135.1 487.07,-135.1 487.07,-138.2 483.97,-141.3 480.87,-141.3"/>
<text text-anchor="middle" x="436.55" y="-129.3" font-family="Helvetica,sans-Serif" font-size="9.00">deleteTodoHandler.js</text>
</a>
</g>
</g>
<!-- src/components/trash&#45;button.js&#45;&gt;src/handlers/deleteTodoHandler.js -->
<g id="edge8" class="edge">
<title>src/components/trash&#45;button.js&#45;&gt;src/handlers/deleteTodoHandler.js</title>
<path fill="none" stroke="#000000" stroke-width="2" stroke-opacity="0.200000" d="M355.22,-110.35C361.93,-112.24 368.96,-114.2 375.54,-116 379.17,-116.99 382.92,-118.02 386.7,-119.04"/>
<polygon fill="#000000" fill-opacity="0.200000" stroke="#000000" stroke-width="2" stroke-opacity="0.200000" points="393.96,-123.16 400.3,-122.69 395.05,-119.11 393.96,-123.16"/>
<polyline fill="none" stroke="#000000" stroke-width="2" stroke-opacity="0.200000" points="394.51,-121.13 391.61,-120.36 "/>
<ellipse fill="none" stroke="#000000" stroke-width="2" stroke-opacity="0.200000" cx="389.29" cy="-119.73" rx="2.4" ry="2.4"/>
</g>
<!-- src/components/resetButton.js -->
<g id="node9" class="node">
<title>src/components/resetButton.js</title>
<g id="a_node9"><a xlink:href="../src/components/resetButton.js" xlink:title="resetButton.js">
<path fill="#ffffcc" stroke="black" d="M250.33,-172.3C250.33,-172.3 191.7,-172.3 191.7,-172.3 188.6,-172.3 185.5,-169.2 185.5,-166.1 185.5,-166.1 185.5,-159.9 185.5,-159.9 185.5,-156.8 188.6,-153.7 191.7,-153.7 191.7,-153.7 250.33,-153.7 250.33,-153.7 253.43,-153.7 256.53,-156.8 256.53,-159.9 256.53,-159.9 256.53,-166.1 256.53,-166.1 256.53,-169.2 253.43,-172.3 250.33,-172.3"/>
<text text-anchor="middle" x="221.01" y="-160.3" font-family="Helvetica,sans-Serif" font-size="9.00">resetButton.js</text>
</a>
</g>
</g>
<!-- src/handlers/resetButtonHandler.js -->
<g id="node10" class="node">
<title>src/handlers/resetButtonHandler.js</title>
<g id="a_node10"><a xlink:href="../src/handlers/resetButtonHandler.js" xlink:title="resetButtonHandler.js">
<path fill="#ffffcc" stroke="black" d="M481.37,-172.3C481.37,-172.3 391.73,-172.3 391.73,-172.3 388.63,-172.3 385.53,-169.2 385.53,-166.1 385.53,-166.1 385.53,-159.9 385.53,-159.9 385.53,-156.8 388.63,-153.7 391.73,-153.7 391.73,-153.7 481.37,-153.7 481.37,-153.7 484.47,-153.7 487.57,-156.8 487.57,-159.9 487.57,-159.9 487.57,-166.1 487.57,-166.1 487.57,-169.2 484.47,-172.3 481.37,-172.3"/>
<text text-anchor="middle" x="436.55" y="-160.3" font-family="Helvetica,sans-Serif" font-size="9.00">resetButtonHandler.js</text>
</a>
</g>
</g>
<!-- src/components/resetButton.js&#45;&gt;src/handlers/resetButtonHandler.js -->
<g id="edge7" class="edge">
<title>src/components/resetButton.js&#45;&gt;src/handlers/resetButtonHandler.js</title>
<path fill="none" stroke="#000000" stroke-width="2" stroke-opacity="0.200000" d="M256.79,-163C289.89,-163 340.25,-163 379.09,-163"/>
<polygon fill="#000000" fill-opacity="0.200000" stroke="#000000" stroke-width="2" stroke-opacity="0.200000" points="379.22,-165.1 385.22,-163 379.22,-160.9 379.22,-165.1"/>
</g>
<!-- src/handlers/resetButtonHandler.js&#45;&gt;src/data.js -->
<g id="edge15" class="edge">
<title>src/handlers/resetButtonHandler.js&#45;&gt;src/data.js</title>
<path fill="none" stroke="#000000" stroke-width="2" stroke-opacity="0.200000" d="M482.39,-153.61C487.65,-151.77 492.83,-149.58 497.56,-147 505.6,-142.61 513.27,-135.92 519.28,-129.89"/>
<polygon fill="#000000" fill-opacity="0.200000" stroke="#000000" stroke-width="2" stroke-opacity="0.200000" points="520.9,-131.23 523.53,-125.44 517.86,-128.33 520.9,-131.23"/>
</g>
<!-- src/handlers/deleteTodoHandler.js&#45;&gt;src/components/render&#45;list.js -->
<g id="edge13" class="edge">
<title>src/handlers/deleteTodoHandler.js&#45;&gt;src/components/render&#45;list.js</title>
<path fill="none" stroke="#000000" stroke-width="2" stroke-opacity="0.200000" d="M385.67,-132C349.94,-132 302.21,-132 267.52,-132"/>
<polygon fill="#000000" fill-opacity="0.200000" stroke="#000000" stroke-width="2" stroke-opacity="0.200000" points="259.52,-129.9 253.52,-132 259.52,-134.1 259.52,-129.9"/>
<polyline fill="none" stroke="#000000" stroke-width="2" stroke-opacity="0.200000" points="259.52,-132 262.52,-132 "/>
<ellipse fill="none" stroke="#000000" stroke-width="2" stroke-opacity="0.200000" cx="264.92" cy="-132" rx="2.4" ry="2.4"/>
</g>
<!-- src/handlers/deleteTodoHandler.js&#45;&gt;src/data.js -->
<g id="edge14" class="edge">
<title>src/handlers/deleteTodoHandler.js&#45;&gt;src/data.js</title>
<path fill="none" stroke="#000000" stroke-width="2" stroke-opacity="0.200000" d="M487.31,-123.53C491.35,-122.84 495.37,-122.16 499.24,-121.5"/>
<polygon fill="#000000" fill-opacity="0.200000" stroke="#000000" stroke-width="2" stroke-opacity="0.200000" points="499.62,-123.57 505.19,-120.49 498.92,-119.42 499.62,-123.57"/>
</g>
<!-- src/components/trash&#45;button.spec.js -->
<g id="node12" class="node">
<title>src/components/trash&#45;button.spec.js</title>
<g id="a_node12"><a xlink:href="../src/components/trash-button.spec.js" xlink:title="trash&#45;button.spec.js">
<path fill="#ffffcc" stroke="black" d="M261.83,-110.3C261.83,-110.3 180.19,-110.3 180.19,-110.3 177.09,-110.3 173.99,-107.2 173.99,-104.1 173.99,-104.1 173.99,-97.9 173.99,-97.9 173.99,-94.8 177.09,-91.7 180.19,-91.7 180.19,-91.7 261.83,-91.7 261.83,-91.7 264.93,-91.7 268.03,-94.8 268.03,-97.9 268.03,-97.9 268.03,-104.1 268.03,-104.1 268.03,-107.2 264.93,-110.3 261.83,-110.3"/>
<text text-anchor="middle" x="221.01" y="-98.3" font-family="Helvetica,sans-Serif" font-size="9.00">trash&#45;button.spec.js</text>
</a>
</g>
</g>
<!-- src/components/trash&#45;button.spec.js&#45;&gt;src/components/trash&#45;button.js -->
<g id="edge9" class="edge">
<title>src/components/trash&#45;button.spec.js&#45;&gt;src/components/trash&#45;button.js</title>
<path fill="none" stroke="#000000" stroke-width="2" stroke-opacity="0.200000" d="M268.27,-101C271.69,-101 275.13,-101 278.52,-101"/>
<polygon fill="#000000" fill-opacity="0.200000" stroke="#000000" stroke-width="2" stroke-opacity="0.200000" points="278.57,-103.1 284.57,-101 278.57,-98.9 278.57,-103.1"/>
</g>
<!-- src/init/index.js -->
<g id="node14" class="node">
<title>src/init/index.js</title>
<g id="a_node14"><a xlink:href="../src/init/index.js" xlink:title="index.js">
<path fill="#ffffcc" stroke="black" d="M71.8,-76.3C71.8,-76.3 30.2,-76.3 30.2,-76.3 27.1,-76.3 24,-73.2 24,-70.1 24,-70.1 24,-63.9 24,-63.9 24,-60.8 27.1,-57.7 30.2,-57.7 30.2,-57.7 71.8,-57.7 71.8,-57.7 74.9,-57.7 78,-60.8 78,-63.9 78,-63.9 78,-70.1 78,-70.1 78,-73.2 74.9,-76.3 71.8,-76.3"/>
<text text-anchor="middle" x="51" y="-64.3" font-family="Helvetica,sans-Serif" font-size="9.00">index.js</text>
</a>
</g>
</g>
<!-- src/listeners/listener.js -->
<g id="node15" class="node">
<title>src/listeners/listener.js</title>
<g id="a_node15"><a xlink:href="../src/listeners/listener.js" xlink:title="listener.js">
<path fill="#ffffcc" stroke="black" d="M141.8,-137.3C141.8,-137.3 100.2,-137.3 100.2,-137.3 97.1,-137.3 94,-134.2 94,-131.1 94,-131.1 94,-124.9 94,-124.9 94,-121.8 97.1,-118.7 100.2,-118.7 100.2,-118.7 141.8,-118.7 141.8,-118.7 144.9,-118.7 148,-121.8 148,-124.9 148,-124.9 148,-131.1 148,-131.1 148,-134.2 144.9,-137.3 141.8,-137.3"/>
<text text-anchor="middle" x="121" y="-125.3" font-family="Helvetica,sans-Serif" font-size="9.00">listener.js</text>
</a>
</g>
</g>
<!-- src/init/index.js&#45;&gt;src/listeners/listener.js -->
<g id="edge16" class="edge">
<title>src/init/index.js&#45;&gt;src/listeners/listener.js</title>
<path fill="none" stroke="#000000" stroke-width="2" stroke-opacity="0.200000" d="M58.91,-76.33C65.37,-84.67 75.55,-96.94 86,-106 89.74,-109.24 93.98,-112.36 98.18,-115.18"/>
<polygon fill="#000000" fill-opacity="0.200000" stroke="#000000" stroke-width="2" stroke-opacity="0.200000" points="97.25,-117.08 103.43,-118.58 99.54,-113.55 97.25,-117.08"/>
</g>
<!-- src/init/ui.js -->
<g id="node16" class="node">
<title>src/init/ui.js</title>
<g id="a_node16"><a xlink:href="../src/init/ui.js" xlink:title="ui.js">
<path fill="#ffffcc" stroke="black" d="M141.8,-76.3C141.8,-76.3 100.2,-76.3 100.2,-76.3 97.1,-76.3 94,-73.2 94,-70.1 94,-70.1 94,-63.9 94,-63.9 94,-60.8 97.1,-57.7 100.2,-57.7 100.2,-57.7 141.8,-57.7 141.8,-57.7 144.9,-57.7 148,-60.8 148,-63.9 148,-63.9 148,-70.1 148,-70.1 148,-73.2 144.9,-76.3 141.8,-76.3"/>
<text text-anchor="middle" x="121" y="-64.3" font-family="Helvetica,sans-Serif" font-size="9.00">ui.js</text>
</a>
</g>
</g>
<!-- src/init/index.js&#45;&gt;src/init/ui.js -->
<g id="edge17" class="edge">
<title>src/init/index.js&#45;&gt;src/init/ui.js</title>
<path fill="none" stroke="#000000" stroke-width="2" stroke-opacity="0.200000" d="M78.1,-67C81.12,-67 84.23,-67 87.33,-67"/>
<polygon fill="#000000" fill-opacity="0.200000" stroke="#000000" stroke-width="2" stroke-opacity="0.200000" points="87.64,-69.1 93.64,-67 87.64,-64.9 87.64,-69.1"/>
</g>
<!-- src/init/ui.js&#45;&gt;src/components/add&#45;button.js -->
<g id="edge18" class="edge">
<title>src/init/ui.js&#45;&gt;src/components/add&#45;button.js</title>
<path fill="none" stroke="#000000" stroke-width="2" stroke-opacity="0.200000" d="M127.75,-57.66C134.8,-47.2 147.84,-30.8 164,-24 205.03,-6.72 257.32,-17.6 289.8,-27.73"/>
<polygon fill="#000000" fill-opacity="0.200000" stroke="#000000" stroke-width="2" stroke-opacity="0.200000" points="289.27,-29.77 295.63,-29.61 290.56,-25.77 289.27,-29.77"/>
</g>
<!-- src/init/ui.js&#45;&gt;src/components/resetButton.js -->
<g id="edge19" class="edge">
<title>src/init/ui.js&#45;&gt;src/components/resetButton.js</title>
<path fill="none" stroke="#000000" stroke-width="2" stroke-opacity="0.200000" d="M132.2,-76.46C139.92,-84.2 150.16,-95.83 156,-108 163.65,-123.95 151.97,-134.02 164,-147 168.23,-151.56 173.66,-154.85 179.47,-157.23"/>
<polygon fill="#000000" fill-opacity="0.200000" stroke="#000000" stroke-width="2" stroke-opacity="0.200000" points="179.01,-159.29 185.37,-159.3 180.41,-155.33 179.01,-159.29"/>
</g>
</g>
</svg>
