<?xml version="1.0" encoding="UTF-8" standalone="no"?>
<!DOCTYPE svg PUBLIC "-//W3C//DTD SVG 1.1//EN"
 "http://www.w3.org/Graphics/SVG/1.1/DTD/svg11.dtd">
<!-- Generated by graphviz version 2.44.0 (20200408.0750)
 -->
<!-- Title: dependency&#45;cruiser output Pages: 1 -->
<svg width="429pt" height="296pt"
 viewBox="0.00 0.00 428.55 296.00" xmlns="http://www.w3.org/2000/svg" xmlns:xlink="http://www.w3.org/1999/xlink">
<g id="graph0" class="graph" transform="scale(1 1) rotate(0) translate(4 292)">
<title>dependency&#45;cruiser output</title>
<polygon fill="white" stroke="transparent" points="-4,4 -4,-292 424.55,-292 424.55,4 -4,4"/>
<g id="clust1" class="cluster">
<title>cluster_src</title>
<path fill="#ffffff" stroke="black" stroke-width="2" d="M20,-8C20,-8 400.55,-8 400.55,-8 406.55,-8 412.55,-14 412.55,-20 412.55,-20 412.55,-268 412.55,-268 412.55,-274 406.55,-280 400.55,-280 400.55,-280 20,-280 20,-280 14,-280 8,-274 8,-268 8,-268 8,-20 8,-20 8,-14 14,-8 20,-8"/>
<text text-anchor="middle" x="210.28" y="-267.9" font-family="Helvetica,sans-Serif" font-weight="bold" font-size="9.00">src</text>
</g>
<g id="clust2" class="cluster">
<title>cluster_src/components</title>
<path fill="#ffffff" stroke="black" stroke-width="2" d="M28,-138C28,-138 200.53,-138 200.53,-138 206.53,-138 212.53,-144 212.53,-150 212.53,-150 212.53,-241 212.53,-241 212.53,-247 206.53,-253 200.53,-253 200.53,-253 28,-253 28,-253 22,-253 16,-247 16,-241 16,-241 16,-150 16,-150 16,-144 22,-138 28,-138"/>
<text text-anchor="middle" x="114.27" y="-240.9" font-family="Helvetica,sans-Serif" font-weight="bold" font-size="9.00">components</text>
</g>
<g id="clust3" class="cluster">
<title>cluster_src/handlers</title>
<path fill="#ffffff" stroke="black" stroke-width="2" d="M232.53,-107C232.53,-107 330.55,-107 330.55,-107 336.55,-107 342.55,-113 342.55,-119 342.55,-119 342.55,-241 342.55,-241 342.55,-247 336.55,-253 330.55,-253 330.55,-253 232.53,-253 232.53,-253 226.53,-253 220.53,-247 220.53,-241 220.53,-241 220.53,-119 220.53,-119 220.53,-113 226.53,-107 232.53,-107"/>
<text text-anchor="middle" x="281.54" y="-240.9" font-family="Helvetica,sans-Serif" font-weight="bold" font-size="9.00">handlers</text>
</g>
<g id="clust4" class="cluster">
<title>cluster_src/init</title>
<path fill="#ffffff" stroke="black" stroke-width="2" d="M48.26,-77C48.26,-77 94.26,-77 94.26,-77 100.26,-77 106.26,-83 106.26,-89 106.26,-89 106.26,-118 106.26,-118 106.26,-124 100.26,-130 94.26,-130 94.26,-130 48.26,-130 48.26,-130 42.26,-130 36.26,-124 36.26,-118 36.26,-118 36.26,-89 36.26,-89 36.26,-83 42.26,-77 48.26,-77"/>
<text text-anchor="middle" x="71.26" y="-117.9" font-family="Helvetica,sans-Serif" font-weight="bold" font-size="9.00">init</text>
</g>
<g id="clust5" class="cluster">
<title>cluster_src/listeners</title>
<path fill="#ffffff" stroke="black" stroke-width="2" d="M145.03,-77C145.03,-77 191.03,-77 191.03,-77 197.03,-77 203.03,-83 203.03,-89 203.03,-89 203.03,-118 203.03,-118 203.03,-124 197.03,-130 191.03,-130 191.03,-130 145.03,-130 145.03,-130 139.03,-130 133.03,-124 133.03,-118 133.03,-118 133.03,-89 133.03,-89 133.03,-83 139.03,-77 145.03,-77"/>
<text text-anchor="middle" x="168.03" y="-117.9" font-family="Helvetica,sans-Serif" font-weight="bold" font-size="9.00">listeners</text>
</g>
<g id="clust6" class="cluster">
<title>cluster_src/procedures</title>
<path fill="#ffffff" stroke="black" stroke-width="2" d="M45,-16C45,-16 97.52,-16 97.52,-16 103.52,-16 109.52,-22 109.52,-28 109.52,-28 109.52,-57 109.52,-57 109.52,-63 103.52,-69 97.52,-69 97.52,-69 45,-69 45,-69 39,-69 33,-63 33,-57 33,-57 33,-28 33,-28 33,-22 39,-16 45,-16"/>
<text text-anchor="middle" x="71.26" y="-56.9" font-family="Helvetica,sans-Serif" font-weight="bold" font-size="9.00">procedures</text>
</g>
<!-- src/components/add&#45;button.js -->
<g id="node1" class="node">
<title>src/components/add&#45;button.js</title>
<g id="a_node1"><a xlink:href="../src/components/add-button.js" xlink:title="add&#45;button.js">
<path fill="#ffffcc" stroke="black" d="M195.84,-195.3C195.84,-195.3 140.21,-195.3 140.21,-195.3 137.11,-195.3 134.01,-192.2 134.01,-189.1 134.01,-189.1 134.01,-182.9 134.01,-182.9 134.01,-179.8 137.11,-176.7 140.21,-176.7 140.21,-176.7 195.84,-176.7 195.84,-176.7 198.94,-176.7 202.04,-179.8 202.04,-182.9 202.04,-182.9 202.04,-189.1 202.04,-189.1 202.04,-192.2 198.94,-195.3 195.84,-195.3"/>
<text text-anchor="middle" x="168.03" y="-183.3" font-family="Helvetica,sans-Serif" font-size="9.00">add&#45;button.js</text>
</a>
</g>
</g>
<!-- src/handlers/addButtonHandler.js -->
<g id="node2" class="node">
<title>src/handlers/addButtonHandler.js</title>
<g id="a_node2"><a xlink:href="../src/handlers/addButtonHandler.js" xlink:title="addButtonHandler.js">
<path fill="#ffffcc" stroke="black" d="M323.87,-195.3C323.87,-195.3 239.22,-195.3 239.22,-195.3 236.12,-195.3 233.02,-192.2 233.02,-189.1 233.02,-189.1 233.02,-182.9 233.02,-182.9 233.02,-179.8 236.12,-176.7 239.22,-176.7 239.22,-176.7 323.87,-176.7 323.87,-176.7 326.97,-176.7 330.07,-179.8 330.07,-182.9 330.07,-182.9 330.07,-189.1 330.07,-189.1 330.07,-192.2 326.97,-195.3 323.87,-195.3"/>
<text text-anchor="middle" x="281.54" y="-183.3" font-family="Helvetica,sans-Serif" font-size="9.00">addButtonHandler.js</text>
</a>
</g>
</g>
<!-- src/components/add&#45;button.js&#45;&gt;src/handlers/addButtonHandler.js -->
<g id="edge1" class="edge">
<title>src/components/add&#45;button.js&#45;&gt;src/handlers/addButtonHandler.js</title>
<path fill="none" stroke="#000000" stroke-width="2" stroke-opacity="0.200000" d="M202.18,-186C209.86,-186 218.22,-186 226.53,-186"/>
<polygon fill="#000000" fill-opacity="0.200000" stroke="#000000" stroke-width="2" stroke-opacity="0.200000" points="226.86,-188.1 232.86,-186 226.86,-183.9 226.86,-188.1"/>
</g>
<!-- src/data.js -->
<g id="node9" class="node">
<title>src/data.js</title>
<g id="a_node9"><a xlink:href="../src/data.js" xlink:title="data.js">
<path fill="#ffffcc" stroke="black" d="M398.35,-195.3C398.35,-195.3 356.75,-195.3 356.75,-195.3 353.65,-195.3 350.55,-192.2 350.55,-189.1 350.55,-189.1 350.55,-182.9 350.55,-182.9 350.55,-179.8 353.65,-176.7 356.75,-176.7 356.75,-176.7 398.35,-176.7 398.35,-176.7 401.45,-176.7 404.55,-179.8 404.55,-182.9 404.55,-182.9 404.55,-189.1 404.55,-189.1 404.55,-192.2 401.45,-195.3 398.35,-195.3"/>
<text text-anchor="middle" x="377.55" y="-183.3" font-family="Helvetica,sans-Serif" font-size="9.00">data.js</text>
</a>
</g>
</g>
<!-- src/handlers/addButtonHandler.js&#45;&gt;src/data.js -->
<g id="edge6" class="edge">
<title>src/handlers/addButtonHandler.js&#45;&gt;src/data.js</title>
<path fill="none" stroke="#000000" stroke-width="2" stroke-opacity="0.200000" d="M330.1,-186C334.86,-186 339.61,-186 344.16,-186"/>
<polygon fill="#000000" fill-opacity="0.200000" stroke="#000000" stroke-width="2" stroke-opacity="0.200000" points="344.22,-188.1 350.22,-186 344.22,-183.9 344.22,-188.1"/>
</g>
<!-- src/components/add&#45;button.spec.js -->
<g id="node3" class="node">
<title>src/components/add&#45;button.spec.js</title>
<g id="a_node3"><a xlink:href="../src/components/add-button.spec.js" xlink:title="add&#45;button.spec.js">
<path fill="#ffffcc" stroke="black" d="M109.59,-195.3C109.59,-195.3 32.93,-195.3 32.93,-195.3 29.83,-195.3 26.73,-192.2 26.73,-189.1 26.73,-189.1 26.73,-182.9 26.73,-182.9 26.73,-179.8 29.83,-176.7 32.93,-176.7 32.93,-176.7 109.59,-176.7 109.59,-176.7 112.69,-176.7 115.79,-179.8 115.79,-182.9 115.79,-182.9 115.79,-189.1 115.79,-189.1 115.79,-192.2 112.69,-195.3 109.59,-195.3"/>
<text text-anchor="middle" x="71.26" y="-183.3" font-family="Helvetica,sans-Serif" font-size="9.00">add&#45;button.spec.js</text>
</a>
</g>
</g>
<!-- src/components/add&#45;button.spec.js&#45;&gt;src/components/add&#45;button.js -->
<g id="edge2" class="edge">
<title>src/components/add&#45;button.spec.js&#45;&gt;src/components/add&#45;button.js</title>
<path fill="none" stroke="#000000" stroke-width="2" stroke-opacity="0.200000" d="M116.04,-186C119.98,-186 123.96,-186 127.87,-186"/>
<polygon fill="#000000" fill-opacity="0.200000" stroke="#000000" stroke-width="2" stroke-opacity="0.200000" points="127.92,-188.1 133.92,-186 127.92,-183.9 127.92,-188.1"/>
</g>
<!-- src/components/check&#45;button.js -->
<g id="node4" class="node">
<title>src/components/check&#45;button.js</title>
<g id="a_node4"><a xlink:href="../src/components/check-button.js" xlink:title="check&#45;button.js">
<path fill="#ffffcc" stroke="black" d="M103.08,-226.3C103.08,-226.3 39.44,-226.3 39.44,-226.3 36.34,-226.3 33.24,-223.2 33.24,-220.1 33.24,-220.1 33.24,-213.9 33.24,-213.9 33.24,-210.8 36.34,-207.7 39.44,-207.7 39.44,-207.7 103.08,-207.7 103.08,-207.7 106.18,-207.7 109.28,-210.8 109.28,-213.9 109.28,-213.9 109.28,-220.1 109.28,-220.1 109.28,-223.2 106.18,-226.3 103.08,-226.3"/>
<text text-anchor="middle" x="71.26" y="-214.3" font-family="Helvetica,sans-Serif" font-size="9.00">check&#45;button.js</text>
</a>
</g>
</g>
<!-- src/handlers/checkButtonHandler.js -->
<g id="node5" class="node">
<title>src/handlers/checkButtonHandler.js</title>
<g id="a_node5"><a xlink:href="../src/handlers/checkButtonHandler.js" xlink:title="checkButtonHandler.js">
<path fill="#ffffcc" stroke="black" d="M328.36,-226.3C328.36,-226.3 234.72,-226.3 234.72,-226.3 231.62,-226.3 228.52,-223.2 228.52,-220.1 228.52,-220.1 228.52,-213.9 228.52,-213.9 228.52,-210.8 231.62,-207.7 234.72,-207.7 234.72,-207.7 328.36,-207.7 328.36,-207.7 331.46,-207.7 334.56,-210.8 334.56,-213.9 334.56,-213.9 334.56,-220.1 334.56,-220.1 334.56,-223.2 331.46,-226.3 328.36,-226.3"/>
<text text-anchor="middle" x="281.54" y="-214.3" font-family="Helvetica,sans-Serif" font-size="9.00">checkButtonHandler.js</text>
</a>
</g>
</g>
<!-- src/components/check&#45;button.js&#45;&gt;src/handlers/checkButtonHandler.js -->
<g id="edge3" class="edge">
<title>src/components/check&#45;button.js&#45;&gt;src/handlers/checkButtonHandler.js</title>
<path fill="none" stroke="#000000" stroke-width="2" stroke-opacity="0.200000" d="M109.5,-217C140.8,-217 186.09,-217 222.2,-217"/>
<polygon fill="#000000" fill-opacity="0.200000" stroke="#000000" stroke-width="2" stroke-opacity="0.200000" points="222.37,-219.1 228.37,-217 222.37,-214.9 222.37,-219.1"/>
</g>
<!-- src/handlers/checkButtonHandler.js&#45;&gt;src/data.js -->
<g id="edge7" class="edge">
<title>src/handlers/checkButtonHandler.js&#45;&gt;src/data.js</title>
<path fill="none" stroke="#000000" stroke-width="2" stroke-opacity="0.200000" d="M321.23,-207.63C328.38,-205.63 335.74,-203.4 342.55,-201 345.3,-200.03 348.13,-198.94 350.94,-197.8"/>
<polygon fill="#000000" fill-opacity="0.200000" stroke="#000000" stroke-width="2" stroke-opacity="0.200000" points="351.91,-199.67 356.62,-195.41 350.28,-195.8 351.91,-199.67"/>
</g>
<!-- src/components/trash&#45;button.js -->
<g id="node6" class="node">
<title>src/components/trash&#45;button.js</title>
<g id="a_node6"><a xlink:href="../src/components/trash-button.js" xlink:title="trash&#45;button.js">
<path fill="#ffffcc" stroke="black" d="M198.34,-164.3C198.34,-164.3 137.71,-164.3 137.71,-164.3 134.61,-164.3 131.51,-161.2 131.51,-158.1 131.51,-158.1 131.51,-151.9 131.51,-151.9 131.51,-148.8 134.61,-145.7 137.71,-145.7 137.71,-145.7 198.34,-145.7 198.34,-145.7 201.44,-145.7 204.54,-148.8 204.54,-151.9 204.54,-151.9 204.54,-158.1 204.54,-158.1 204.54,-161.2 201.44,-164.3 198.34,-164.3"/>
<text text-anchor="middle" x="168.03" y="-152.3" font-family="Helvetica,sans-Serif" font-size="9.00">trash&#45;button.js</text>
</a>
</g>
</g>
<!-- src/handlers/deleteTodoHandler.js -->
<g id="node7" class="node">
<title>src/handlers/deleteTodoHandler.js</title>
<g id="a_node7"><a xlink:href="../src/handlers/deleteTodoHandler.js" xlink:title="deleteTodoHandler.js">
<path fill="#ffffcc" stroke="black" d="M325.86,-164.3C325.86,-164.3 237.22,-164.3 237.22,-164.3 234.12,-164.3 231.02,-161.2 231.02,-158.1 231.02,-158.1 231.02,-151.9 231.02,-151.9 231.02,-148.8 234.12,-145.7 237.22,-145.7 237.22,-145.7 325.86,-145.7 325.86,-145.7 328.96,-145.7 332.06,-148.8 332.06,-151.9 332.06,-151.9 332.06,-158.1 332.06,-158.1 332.06,-161.2 328.96,-164.3 325.86,-164.3"/>
<text text-anchor="middle" x="281.54" y="-152.3" font-family="Helvetica,sans-Serif" font-size="9.00">deleteTodoHandler.js</text>
</a>
</g>
</g>
<!-- src/components/trash&#45;button.js&#45;&gt;src/handlers/deleteTodoHandler.js -->
<g id="edge4" class="edge">
<title>src/components/trash&#45;button.js&#45;&gt;src/handlers/deleteTodoHandler.js</title>
<path fill="none" stroke="#000000" stroke-width="2" stroke-opacity="0.200000" d="M204.62,-155C210.96,-155 217.71,-155 224.46,-155"/>
<polygon fill="#000000" fill-opacity="0.200000" stroke="#000000" stroke-width="2" stroke-opacity="0.200000" points="224.65,-157.1 230.65,-155 224.65,-152.9 224.65,-157.1"/>
</g>
<!-- src/handlers/deleteTodoHandler.js&#45;&gt;src/data.js -->
<g id="edge8" class="edge">
<title>src/handlers/deleteTodoHandler.js&#45;&gt;src/data.js</title>
<path fill="none" stroke="#000000" stroke-width="2" stroke-opacity="0.200000" d="M321.23,-164.37C328.38,-166.37 335.74,-168.6 342.55,-171 345.3,-171.97 348.13,-173.06 350.94,-174.2"/>
<polygon fill="#000000" fill-opacity="0.200000" stroke="#000000" stroke-width="2" stroke-opacity="0.200000" points="350.28,-176.2 356.62,-176.59 351.91,-172.33 350.28,-176.2"/>
</g>
<!-- src/components/trash&#45;button.spec.js -->
<g id="node8" class="node">
<title>src/components/trash&#45;button.spec.js</title>
<g id="a_node8"><a xlink:href="../src/components/trash-button.spec.js" xlink:title="trash&#45;button.spec.js">
<path fill="#ffffcc" stroke="black" d="M112.08,-164.3C112.08,-164.3 30.44,-164.3 30.44,-164.3 27.34,-164.3 24.24,-161.2 24.24,-158.1 24.24,-158.1 24.24,-151.9 24.24,-151.9 24.24,-148.8 27.34,-145.7 30.44,-145.7 30.44,-145.7 112.08,-145.7 112.08,-145.7 115.18,-145.7 118.28,-148.8 118.28,-151.9 118.28,-151.9 118.28,-158.1 118.28,-158.1 118.28,-161.2 115.18,-164.3 112.08,-164.3"/>
<text text-anchor="middle" x="71.26" y="-152.3" font-family="Helvetica,sans-Serif" font-size="9.00">trash&#45;button.spec.js</text>
</a>
</g>
</g>
<!-- src/components/trash&#45;button.spec.js&#45;&gt;src/components/trash&#45;button.js -->
<g id="edge5" class="edge">
<title>src/components/trash&#45;button.spec.js&#45;&gt;src/components/trash&#45;button.js</title>
<path fill="none" stroke="#000000" stroke-width="2" stroke-opacity="0.200000" d="M118.53,-155C120.69,-155 122.86,-155 125.01,-155"/>
<polygon fill="#000000" fill-opacity="0.200000" stroke="#000000" stroke-width="2" stroke-opacity="0.200000" points="125.39,-157.1 131.39,-155 125.39,-152.9 125.39,-157.1"/>
</g>
<!-- src/handlers/resetButtonHandler.js -->
<g id="node10" class="node">
<title>src/handlers/resetButtonHandler.js</title>
<g id="a_node10"><a xlink:href="../src/handlers/resetButtonHandler.js" xlink:title="resetButtonHandler.js">
<path fill="#ffffcc" stroke="black" d="M326.36,-133.3C326.36,-133.3 236.72,-133.3 236.72,-133.3 233.62,-133.3 230.52,-130.2 230.52,-127.1 230.52,-127.1 230.52,-120.9 230.52,-120.9 230.52,-117.8 233.62,-114.7 236.72,-114.7 236.72,-114.7 326.36,-114.7 326.36,-114.7 329.46,-114.7 332.56,-117.8 332.56,-120.9 332.56,-120.9 332.56,-127.1 332.56,-127.1 332.56,-130.2 329.46,-133.3 326.36,-133.3"/>
<text text-anchor="middle" x="281.54" y="-121.3" font-family="Helvetica,sans-Serif" font-size="9.00">resetButtonHandler.js</text>
</a>
</g>
</g>
<!-- src/init/index.js -->
<g id="node11" class="node">
<title>src/init/index.js</title>
<g id="a_node11"><a xlink:href="../src/init/index.js" xlink:title="index.js">
<path fill="#ffffcc" stroke="black" d="M92.06,-103.3C92.06,-103.3 50.46,-103.3 50.46,-103.3 47.36,-103.3 44.26,-100.2 44.26,-97.1 44.26,-97.1 44.26,-90.9 44.26,-90.9 44.26,-87.8 47.36,-84.7 50.46,-84.7 50.46,-84.7 92.06,-84.7 92.06,-84.7 95.16,-84.7 98.26,-87.8 98.26,-90.9 98.26,-90.9 98.26,-97.1 98.26,-97.1 98.26,-100.2 95.16,-103.3 92.06,-103.3"/>
<text text-anchor="middle" x="71.26" y="-91.3" font-family="Helvetica,sans-Serif" font-size="9.00">index.js</text>
</a>
</g>
</g>
<!-- src/listeners/listener.js -->
<g id="node12" class="node">
<title>src/listeners/listener.js</title>
<g id="a_node12"><a xlink:href="../src/listeners/listener.js" xlink:title="listener.js">
<path fill="#ffffcc" stroke="black" d="M188.83,-103.3C188.83,-103.3 147.23,-103.3 147.23,-103.3 144.13,-103.3 141.03,-100.2 141.03,-97.1 141.03,-97.1 141.03,-90.9 141.03,-90.9 141.03,-87.8 144.13,-84.7 147.23,-84.7 147.23,-84.7 188.83,-84.7 188.83,-84.7 191.93,-84.7 195.03,-87.8 195.03,-90.9 195.03,-90.9 195.03,-97.1 195.03,-97.1 195.03,-100.2 191.93,-103.3 188.83,-103.3"/>
<text text-anchor="middle" x="168.03" y="-91.3" font-family="Helvetica,sans-Serif" font-size="9.00">listener.js</text>
</a>
</g>
</g>
<!-- src/init/index.js&#45;&gt;src/listeners/listener.js -->
<g id="edge9" class="edge">
<title>src/init/index.js&#45;&gt;src/listeners/listener.js</title>
<path fill="none" stroke="#000000" stroke-width="2" stroke-opacity="0.200000" d="M98.41,-94C109.7,-94 123.01,-94 134.9,-94"/>
<polygon fill="#000000" fill-opacity="0.200000" stroke="#000000" stroke-width="2" stroke-opacity="0.200000" points="134.97,-96.1 140.97,-94 134.96,-91.9 134.97,-96.1"/>
</g>
<!-- src/listeners/listener.js&#45;&gt;src/handlers/deleteTodoHandler.js -->
<g id="edge10" class="edge">
<title>src/listeners/listener.js&#45;&gt;src/handlers/deleteTodoHandler.js</title>
<path fill="none" stroke="#000000" stroke-width="2" stroke-opacity="0.200000" d="M177.2,-103.34C186.64,-113.56 203.13,-129.74 220.53,-139 223.57,-140.62 226.77,-142.08 230.07,-143.4"/>
<polygon fill="#000000" fill-opacity="0.200000" stroke="#000000" stroke-width="2" stroke-opacity="0.200000" points="229.71,-145.5 236.07,-145.62 231.17,-141.57 229.71,-145.5"/>
</g>
<!-- src/listeners/listener.js&#45;&gt;src/handlers/resetButtonHandler.js -->
<g id="edge11" class="edge">
<title>src/listeners/listener.js&#45;&gt;src/handlers/resetButtonHandler.js</title>
<path fill="none" stroke="#000000" stroke-width="2" stroke-opacity="0.200000" d="M195.17,-101.03C208.47,-104.61 224.94,-109.04 239.85,-113.05"/>
<polygon fill="#000000" fill-opacity="0.200000" stroke="#000000" stroke-width="2" stroke-opacity="0.200000" points="239.35,-115.09 245.69,-114.62 240.44,-111.04 239.35,-115.09"/>
</g>
<!-- src/procedures/addTodo.js -->
<g id="node13" class="node">
<title>src/procedures/addTodo.js</title>
<g id="a_node13"><a xlink:href="../src/procedures/addTodo.js" xlink:title="addTodo.js">
<path fill="#ccffcc" stroke="black" d="M95.08,-42.3C95.08,-42.3 47.44,-42.3 47.44,-42.3 44.34,-42.3 41.24,-39.2 41.24,-36.1 41.24,-36.1 41.24,-29.9 41.24,-29.9 41.24,-26.8 44.34,-23.7 47.44,-23.7 47.44,-23.7 95.08,-23.7 95.08,-23.7 98.18,-23.7 101.28,-26.8 101.28,-29.9 101.28,-29.9 101.28,-36.1 101.28,-36.1 101.28,-39.2 98.18,-42.3 95.08,-42.3"/>
<text text-anchor="middle" x="71.26" y="-30.3" font-family="Helvetica,sans-Serif" font-size="9.00">addTodo.js</text>
</a>
</g>
</g>
</g>
</svg>
