<?xml version="1.0" encoding="UTF-8" standalone="no"?>
<!DOCTYPE svg PUBLIC "-//W3C//DTD SVG 1.1//EN"
 "http://www.w3.org/Graphics/SVG/1.1/DTD/svg11.dtd">
<!-- Generated by graphviz version 2.44.0 (20200408.0750)
 -->
<!-- Title: dependency&#45;cruiser output Pages: 1 -->
<svg width="398pt" height="143pt"
 viewBox="0.00 0.00 398.03 143.00" xmlns="http://www.w3.org/2000/svg" xmlns:xlink="http://www.w3.org/1999/xlink">
<g id="graph0" class="graph" transform="scale(1 1) rotate(0) translate(4 139)">
<title>dependency&#45;cruiser output</title>
<polygon fill="white" stroke="transparent" points="-4,4 -4,-139 394.03,-139 394.03,4 -4,4"/>
<g id="clust1" class="cluster">
<title>cluster_src</title>
<path fill="#ffffff" stroke="black" stroke-width="2" d="M20,-8C20,-8 370.03,-8 370.03,-8 376.03,-8 382.03,-14 382.03,-20 382.03,-20 382.03,-115 382.03,-115 382.03,-121 376.03,-127 370.03,-127 370.03,-127 20,-127 20,-127 14,-127 8,-121 8,-115 8,-115 8,-20 8,-20 8,-14 14,-8 20,-8"/>
<text text-anchor="middle" x="195.02" y="-114.9" font-family="Helvetica,sans-Serif" font-weight="bold" font-size="9.00">src</text>
</g>
<g id="clust2" class="cluster">
<title>cluster_src/handlers</title>
<path fill="#ffffff" stroke="black" stroke-width="2" d="M184,-16C184,-16 277.52,-16 277.52,-16 283.52,-16 289.52,-22 289.52,-28 289.52,-28 289.52,-88 289.52,-88 289.52,-94 283.52,-100 277.52,-100 277.52,-100 184,-100 184,-100 178,-100 172,-94 172,-88 172,-88 172,-28 172,-28 172,-22 178,-16 184,-16"/>
<text text-anchor="middle" x="230.76" y="-87.9" font-family="Helvetica,sans-Serif" font-weight="bold" font-size="9.00">handlers</text>
</g>
<g id="clust3" class="cluster">
<title>cluster_src/init</title>
<path fill="#ffffff" stroke="black" stroke-width="2" d="M28,-45C28,-45 74,-45 74,-45 80,-45 86,-51 86,-57 86,-57 86,-86 86,-86 86,-92 80,-98 74,-98 74,-98 28,-98 28,-98 22,-98 16,-92 16,-86 16,-86 16,-57 16,-57 16,-51 22,-45 28,-45"/>
<text text-anchor="middle" x="51" y="-85.9" font-family="Helvetica,sans-Serif" font-weight="bold" font-size="9.00">init</text>
</g>
<g id="clust4" class="cluster">
<title>cluster_src/listeners</title>
<path fill="#ffffff" stroke="black" stroke-width="2" d="M106,-45C106,-45 152,-45 152,-45 158,-45 164,-51 164,-57 164,-57 164,-86 164,-86 164,-92 158,-98 152,-98 152,-98 106,-98 106,-98 100,-98 94,-92 94,-86 94,-86 94,-57 94,-57 94,-51 100,-45 106,-45"/>
<text text-anchor="middle" x="129" y="-85.9" font-family="Helvetica,sans-Serif" font-weight="bold" font-size="9.00">listeners</text>
</g>
<g id="clust5" class="cluster">
<title>cluster_src/procedures</title>
<path fill="#ffffff" stroke="black" stroke-width="2" d="M309.52,-47C309.52,-47 362.03,-47 362.03,-47 368.03,-47 374.03,-53 374.03,-59 374.03,-59 374.03,-88 374.03,-88 374.03,-94 368.03,-100 362.03,-100 362.03,-100 309.52,-100 309.52,-100 303.52,-100 297.52,-94 297.52,-88 297.52,-88 297.52,-59 297.52,-59 297.52,-53 303.52,-47 309.52,-47"/>
<text text-anchor="middle" x="335.78" y="-87.9" font-family="Helvetica,sans-Serif" font-weight="bold" font-size="9.00">procedures</text>
</g>
<!-- src/data.js -->
<g id="node1" class="node">
<title>src/data.js</title>
<g id="a_node1"><a xlink:href="../src/data.js" xlink:title="data.js">
<path fill="#ccffcc" stroke="black" d="M71.8,-36.3C71.8,-36.3 30.2,-36.3 30.2,-36.3 27.1,-36.3 24,-33.2 24,-30.1 24,-30.1 24,-23.9 24,-23.9 24,-20.8 27.1,-17.7 30.2,-17.7 30.2,-17.7 71.8,-17.7 71.8,-17.7 74.9,-17.7 78,-20.8 78,-23.9 78,-23.9 78,-30.1 78,-30.1 78,-33.2 74.9,-36.3 71.8,-36.3"/>
<text text-anchor="middle" x="51" y="-24.3" font-family="Helvetica,sans-Serif" font-size="9.00">data.js</text>
</a>
</g>
</g>
<!-- src/handlers/add_buttonhandler.js -->
<g id="node2" class="node">
<title>src/handlers/add_buttonhandler.js</title>
<g id="a_node2"><a xlink:href="../src/handlers/add_buttonhandler.js" xlink:title="add_buttonhandler.js">
<path fill="#ffffcc" stroke="black" d="M274.59,-73.3C274.59,-73.3 186.93,-73.3 186.93,-73.3 183.83,-73.3 180.73,-70.2 180.73,-67.1 180.73,-67.1 180.73,-60.9 180.73,-60.9 180.73,-57.8 183.83,-54.7 186.93,-54.7 186.93,-54.7 274.59,-54.7 274.59,-54.7 277.69,-54.7 280.79,-57.8 280.79,-60.9 280.79,-60.9 280.79,-67.1 280.79,-67.1 280.79,-70.2 277.69,-73.3 274.59,-73.3"/>
<text text-anchor="middle" x="230.76" y="-61.3" font-family="Helvetica,sans-Serif" font-size="9.00">add_buttonhandler.js</text>
</a>
</g>
</g>
<!-- src/procedures/addTodo.js -->
<g id="node3" class="node">
<title>src/procedures/addTodo.js</title>
<g id="a_node3"><a xlink:href="../src/procedures/addTodo.js" xlink:title="addTodo.js">
<path fill="#ffffcc" stroke="black" d="M359.59,-73.3C359.59,-73.3 311.96,-73.3 311.96,-73.3 308.86,-73.3 305.76,-70.2 305.76,-67.1 305.76,-67.1 305.76,-60.9 305.76,-60.9 305.76,-57.8 308.86,-54.7 311.96,-54.7 311.96,-54.7 359.59,-54.7 359.59,-54.7 362.69,-54.7 365.79,-57.8 365.79,-60.9 365.79,-60.9 365.79,-67.1 365.79,-67.1 365.79,-70.2 362.69,-73.3 359.59,-73.3"/>
<text text-anchor="middle" x="335.78" y="-61.3" font-family="Helvetica,sans-Serif" font-size="9.00">addTodo.js</text>
</a>
</g>
</g>
<!-- src/handlers/add_buttonhandler.js&#45;&gt;src/procedures/addTodo.js -->
<g id="edge1" class="edge">
<title>src/handlers/add_buttonhandler.js&#45;&gt;src/procedures/addTodo.js</title>
<path fill="none" stroke="#000000" stroke-width="2" stroke-opacity="0.200000" d="M280.85,-64C287.1,-64 293.38,-64 299.35,-64"/>
<polygon fill="#000000" fill-opacity="0.200000" stroke="#000000" stroke-width="2" stroke-opacity="0.200000" points="299.69,-66.1 305.69,-64 299.69,-61.9 299.69,-66.1"/>
</g>
<!-- src/handlers/deleteTodoHandler.js -->
<g id="node4" class="node">
<title>src/handlers/deleteTodoHandler.js</title>
<g id="a_node4"><a xlink:href="../src/handlers/deleteTodoHandler.js" xlink:title="deleteTodoHandler.js">
<path fill="#ffffcc" stroke="black" d="M275.08,-42.3C275.08,-42.3 186.44,-42.3 186.44,-42.3 183.34,-42.3 180.24,-39.2 180.24,-36.1 180.24,-36.1 180.24,-29.9 180.24,-29.9 180.24,-26.8 183.34,-23.7 186.44,-23.7 186.44,-23.7 275.08,-23.7 275.08,-23.7 278.18,-23.7 281.28,-26.8 281.28,-29.9 281.28,-29.9 281.28,-36.1 281.28,-36.1 281.28,-39.2 278.18,-42.3 275.08,-42.3"/>
<text text-anchor="middle" x="230.76" y="-30.3" font-family="Helvetica,sans-Serif" font-size="9.00">deleteTodoHandler.js</text>
</a>
</g>
</g>
<!-- src/init/index.js -->
<g id="node5" class="node">
<title>src/init/index.js</title>
<g id="a_node5"><a xlink:href="../src/init/index.js" xlink:title="index.js">
<path fill="#ffffcc" stroke="black" d="M71.8,-71.3C71.8,-71.3 30.2,-71.3 30.2,-71.3 27.1,-71.3 24,-68.2 24,-65.1 24,-65.1 24,-58.9 24,-58.9 24,-55.8 27.1,-52.7 30.2,-52.7 30.2,-52.7 71.8,-52.7 71.8,-52.7 74.9,-52.7 78,-55.8 78,-58.9 78,-58.9 78,-65.1 78,-65.1 78,-68.2 74.9,-71.3 71.8,-71.3"/>
<text text-anchor="middle" x="51" y="-59.3" font-family="Helvetica,sans-Serif" font-size="9.00">index.js</text>
</a>
</g>
</g>
<!-- src/listeners/listener.js -->
<g id="node6" class="node">
<title>src/listeners/listener.js</title>
<g id="a_node6"><a xlink:href="../src/listeners/listener.js" xlink:title="listener.js">
<path fill="#ffffcc" stroke="black" d="M149.8,-71.3C149.8,-71.3 108.2,-71.3 108.2,-71.3 105.1,-71.3 102,-68.2 102,-65.1 102,-65.1 102,-58.9 102,-58.9 102,-55.8 105.1,-52.7 108.2,-52.7 108.2,-52.7 149.8,-52.7 149.8,-52.7 152.9,-52.7 156,-55.8 156,-58.9 156,-58.9 156,-65.1 156,-65.1 156,-68.2 152.9,-71.3 149.8,-71.3"/>
<text text-anchor="middle" x="129" y="-59.3" font-family="Helvetica,sans-Serif" font-size="9.00">listener.js</text>
</a>
</g>
</g>
<!-- src/init/index.js&#45;&gt;src/listeners/listener.js -->
<g id="edge2" class="edge">
<title>src/init/index.js&#45;&gt;src/listeners/listener.js</title>
<path fill="none" stroke="#000000" stroke-width="2" stroke-opacity="0.200000" d="M78.15,-62C83.77,-62 89.76,-62 95.58,-62"/>
<polygon fill="#000000" fill-opacity="0.200000" stroke="#000000" stroke-width="2" stroke-opacity="0.200000" points="95.8,-64.1 101.8,-62 95.8,-59.9 95.8,-64.1"/>
</g>
<!-- src/listeners/listener.js&#45;&gt;src/handlers/add_buttonhandler.js -->
<g id="edge3" class="edge">
<title>src/listeners/listener.js&#45;&gt;src/handlers/add_buttonhandler.js</title>
<path fill="none" stroke="#000000" stroke-width="2" stroke-opacity="0.200000" d="M156.21,-62.53C161.84,-62.64 167.99,-62.76 174.26,-62.89"/>
<polygon fill="#000000" fill-opacity="0.200000" stroke="#000000" stroke-width="2" stroke-opacity="0.200000" points="174.52,-64.99 180.56,-63.01 174.6,-60.79 174.52,-64.99"/>
</g>
<!-- src/listeners/listener.js&#45;&gt;src/handlers/deleteTodoHandler.js -->
<g id="edge4" class="edge">
<title>src/listeners/listener.js&#45;&gt;src/handlers/deleteTodoHandler.js</title>
<path fill="none" stroke="#000000" stroke-width="2" stroke-opacity="0.200000" d="M156.18,-53.77C161.41,-52.16 166.87,-50.5 172,-49 177.69,-47.33 183.71,-45.61 189.63,-43.95"/>
<polygon fill="#000000" fill-opacity="0.200000" stroke="#000000" stroke-width="2" stroke-opacity="0.200000" points="190.29,-45.94 195.5,-42.31 189.16,-41.9 190.29,-45.94"/>
</g>
</g>
</svg>
