<?xml version="1.0" encoding="UTF-8" standalone="no"?>
<!DOCTYPE svg PUBLIC "-//W3C//DTD SVG 1.1//EN"
 "http://www.w3.org/Graphics/SVG/1.1/DTD/svg11.dtd">
<!-- Generated by graphviz version 2.44.0 (20200408.0750)
 -->
<!-- Title: dependency&#45;cruiser output Pages: 1 -->
<svg width="399pt" height="174pt"
 viewBox="0.00 0.00 399.03 174.00" xmlns="http://www.w3.org/2000/svg" xmlns:xlink="http://www.w3.org/1999/xlink">
<g id="graph0" class="graph" transform="scale(1 1) rotate(0) translate(4 170)">
<title>dependency&#45;cruiser output</title>
<polygon fill="white" stroke="transparent" points="-4,4 -4,-170 395.03,-170 395.03,4 -4,4"/>
<g id="clust1" class="cluster">
<title>cluster_src</title>
<path fill="#ffffff" stroke="black" stroke-width="2" d="M20,-8C20,-8 371.03,-8 371.03,-8 377.03,-8 383.03,-14 383.03,-20 383.03,-20 383.03,-146 383.03,-146 383.03,-152 377.03,-158 371.03,-158 371.03,-158 20,-158 20,-158 14,-158 8,-152 8,-146 8,-146 8,-20 8,-20 8,-14 14,-8 20,-8"/>
<text text-anchor="middle" x="195.52" y="-145.9" font-family="Helvetica,sans-Serif" font-weight="bold" font-size="9.00">src</text>
</g>
<g id="clust2" class="cluster">
<title>cluster_src/handlers</title>
<path fill="#ffffff" stroke="black" stroke-width="2" d="M184,-16C184,-16 278.52,-16 278.52,-16 284.52,-16 290.52,-22 290.52,-28 290.52,-28 290.52,-119 290.52,-119 290.52,-125 284.52,-131 278.52,-131 278.52,-131 184,-131 184,-131 178,-131 172,-125 172,-119 172,-119 172,-28 172,-28 172,-22 178,-16 184,-16"/>
<text text-anchor="middle" x="231.26" y="-118.9" font-family="Helvetica,sans-Serif" font-weight="bold" font-size="9.00">handlers</text>
</g>
<g id="clust3" class="cluster">
<title>cluster_src/init</title>
<path fill="#ffffff" stroke="black" stroke-width="2" d="M28,-47C28,-47 74,-47 74,-47 80,-47 86,-53 86,-59 86,-59 86,-88 86,-88 86,-94 80,-100 74,-100 74,-100 28,-100 28,-100 22,-100 16,-94 16,-88 16,-88 16,-59 16,-59 16,-53 22,-47 28,-47"/>
<text text-anchor="middle" x="51" y="-87.9" font-family="Helvetica,sans-Serif" font-weight="bold" font-size="9.00">init</text>
</g>
<g id="clust4" class="cluster">
<title>cluster_src/listeners</title>
<path fill="#ffffff" stroke="black" stroke-width="2" d="M106,-47C106,-47 152,-47 152,-47 158,-47 164,-53 164,-59 164,-59 164,-88 164,-88 164,-94 158,-100 152,-100 152,-100 106,-100 106,-100 100,-100 94,-94 94,-88 94,-88 94,-59 94,-59 94,-53 100,-47 106,-47"/>
<text text-anchor="middle" x="129" y="-87.9" font-family="Helvetica,sans-Serif" font-weight="bold" font-size="9.00">listeners</text>
</g>
<g id="clust5" class="cluster">
<title>cluster_src/procedures</title>
<path fill="#ffffff" stroke="black" stroke-width="2" d="M310.52,-78C310.52,-78 363.03,-78 363.03,-78 369.03,-78 375.03,-84 375.03,-90 375.03,-90 375.03,-119 375.03,-119 375.03,-125 369.03,-131 363.03,-131 363.03,-131 310.52,-131 310.52,-131 304.52,-131 298.52,-125 298.52,-119 298.52,-119 298.52,-90 298.52,-90 298.52,-84 304.52,-78 310.52,-78"/>
<text text-anchor="middle" x="336.78" y="-118.9" font-family="Helvetica,sans-Serif" font-weight="bold" font-size="9.00">procedures</text>
</g>
<!-- src/data.js -->
<g id="node1" class="node">
<title>src/data.js</title>
<g id="a_node1"><a xlink:href="../src/data.js" xlink:title="data.js">
<path fill="#ccffcc" stroke="black" d="M71.8,-37.3C71.8,-37.3 30.2,-37.3 30.2,-37.3 27.1,-37.3 24,-34.2 24,-31.1 24,-31.1 24,-24.9 24,-24.9 24,-21.8 27.1,-18.7 30.2,-18.7 30.2,-18.7 71.8,-18.7 71.8,-18.7 74.9,-18.7 78,-21.8 78,-24.9 78,-24.9 78,-31.1 78,-31.1 78,-34.2 74.9,-37.3 71.8,-37.3"/>
<text text-anchor="middle" x="51" y="-25.3" font-family="Helvetica,sans-Serif" font-size="9.00">data.js</text>
</a>
</g>
</g>
<!-- src/handlers/add_buttonhandler.js -->
<g id="node2" class="node">
<title>src/handlers/add_buttonhandler.js</title>
<g id="a_node2"><a xlink:href="../src/handlers/add_buttonhandler.js" xlink:title="add_buttonhandler.js">
<path fill="#ffffcc" stroke="black" d="M275.09,-104.3C275.09,-104.3 187.43,-104.3 187.43,-104.3 184.33,-104.3 181.23,-101.2 181.23,-98.1 181.23,-98.1 181.23,-91.9 181.23,-91.9 181.23,-88.8 184.33,-85.7 187.43,-85.7 187.43,-85.7 275.09,-85.7 275.09,-85.7 278.19,-85.7 281.29,-88.8 281.29,-91.9 281.29,-91.9 281.29,-98.1 281.29,-98.1 281.29,-101.2 278.19,-104.3 275.09,-104.3"/>
<text text-anchor="middle" x="231.26" y="-92.3" font-family="Helvetica,sans-Serif" font-size="9.00">add_buttonhandler.js</text>
</a>
</g>
</g>
<!-- src/procedures/addTodo.js -->
<g id="node3" class="node">
<title>src/procedures/addTodo.js</title>
<g id="a_node3"><a xlink:href="../src/procedures/addTodo.js" xlink:title="addTodo.js">
<path fill="#ffffcc" stroke="black" d="M360.59,-104.3C360.59,-104.3 312.96,-104.3 312.96,-104.3 309.86,-104.3 306.76,-101.2 306.76,-98.1 306.76,-98.1 306.76,-91.9 306.76,-91.9 306.76,-88.8 309.86,-85.7 312.96,-85.7 312.96,-85.7 360.59,-85.7 360.59,-85.7 363.69,-85.7 366.79,-88.8 366.79,-91.9 366.79,-91.9 366.79,-98.1 366.79,-98.1 366.79,-101.2 363.69,-104.3 360.59,-104.3"/>
<text text-anchor="middle" x="336.78" y="-92.3" font-family="Helvetica,sans-Serif" font-size="9.00">addTodo.js</text>
</a>
</g>
</g>
<!-- src/handlers/add_buttonhandler.js&#45;&gt;src/procedures/addTodo.js -->
<g id="edge1" class="edge">
<title>src/handlers/add_buttonhandler.js&#45;&gt;src/procedures/addTodo.js</title>
<path fill="none" stroke="#000000" stroke-width="2" stroke-opacity="0.200000" d="M281.29,-95C287.79,-95 294.36,-95 300.57,-95"/>
<polygon fill="#000000" fill-opacity="0.200000" stroke="#000000" stroke-width="2" stroke-opacity="0.200000" points="300.64,-97.1 306.64,-95 300.64,-92.9 300.64,-97.1"/>
</g>
<!-- src/handlers/deleteTodoHandler.js -->
<g id="node4" class="node">
<title>src/handlers/deleteTodoHandler.js</title>
<g id="a_node4"><a xlink:href="../src/handlers/deleteTodoHandler.js" xlink:title="deleteTodoHandler.js">
<path fill="#ffffcc" stroke="black" d="M275.58,-73.3C275.58,-73.3 186.94,-73.3 186.94,-73.3 183.84,-73.3 180.74,-70.2 180.74,-67.1 180.74,-67.1 180.74,-60.9 180.74,-60.9 180.74,-57.8 183.84,-54.7 186.94,-54.7 186.94,-54.7 275.58,-54.7 275.58,-54.7 278.68,-54.7 281.78,-57.8 281.78,-60.9 281.78,-60.9 281.78,-67.1 281.78,-67.1 281.78,-70.2 278.68,-73.3 275.58,-73.3"/>
<text text-anchor="middle" x="231.26" y="-61.3" font-family="Helvetica,sans-Serif" font-size="9.00">deleteTodoHandler.js</text>
</a>
</g>
</g>
<!-- src/handlers/resetButtonHandler.js -->
<g id="node5" class="node">
<title>src/handlers/resetButtonHandler.js</title>
<g id="a_node5"><a xlink:href="../src/handlers/resetButtonHandler.js" xlink:title="resetButtonHandler.js">
<path fill="#ffffcc" stroke="black" d="M276.08,-42.3C276.08,-42.3 186.44,-42.3 186.44,-42.3 183.34,-42.3 180.24,-39.2 180.24,-36.1 180.24,-36.1 180.24,-29.9 180.24,-29.9 180.24,-26.8 183.34,-23.7 186.44,-23.7 186.44,-23.7 276.08,-23.7 276.08,-23.7 279.18,-23.7 282.28,-26.8 282.28,-29.9 282.28,-29.9 282.28,-36.1 282.28,-36.1 282.28,-39.2 279.18,-42.3 276.08,-42.3"/>
<text text-anchor="middle" x="231.26" y="-30.3" font-family="Helvetica,sans-Serif" font-size="9.00">resetButtonHandler.js</text>
</a>
</g>
</g>
<!-- src/init/index.js -->
<g id="node6" class="node">
<title>src/init/index.js</title>
<g id="a_node6"><a xlink:href="../src/init/index.js" xlink:title="index.js">
<path fill="#ffffcc" stroke="black" d="M71.8,-73.3C71.8,-73.3 30.2,-73.3 30.2,-73.3 27.1,-73.3 24,-70.2 24,-67.1 24,-67.1 24,-60.9 24,-60.9 24,-57.8 27.1,-54.7 30.2,-54.7 30.2,-54.7 71.8,-54.7 71.8,-54.7 74.9,-54.7 78,-57.8 78,-60.9 78,-60.9 78,-67.1 78,-67.1 78,-70.2 74.9,-73.3 71.8,-73.3"/>
<text text-anchor="middle" x="51" y="-61.3" font-family="Helvetica,sans-Serif" font-size="9.00">index.js</text>
</a>
</g>
</g>
<!-- src/listeners/listener.js -->
<g id="node7" class="node">
<title>src/listeners/listener.js</title>
<g id="a_node7"><a xlink:href="../src/listeners/listener.js" xlink:title="listener.js">
<path fill="#ffffcc" stroke="black" d="M149.8,-73.3C149.8,-73.3 108.2,-73.3 108.2,-73.3 105.1,-73.3 102,-70.2 102,-67.1 102,-67.1 102,-60.9 102,-60.9 102,-57.8 105.1,-54.7 108.2,-54.7 108.2,-54.7 149.8,-54.7 149.8,-54.7 152.9,-54.7 156,-57.8 156,-60.9 156,-60.9 156,-67.1 156,-67.1 156,-70.2 152.9,-73.3 149.8,-73.3"/>
<text text-anchor="middle" x="129" y="-61.3" font-family="Helvetica,sans-Serif" font-size="9.00">listener.js</text>
</a>
</g>
</g>
<!-- src/init/index.js&#45;&gt;src/listeners/listener.js -->
<g id="edge2" class="edge">
<title>src/init/index.js&#45;&gt;src/listeners/listener.js</title>
<path fill="none" stroke="#000000" stroke-width="2" stroke-opacity="0.200000" d="M78.15,-64C83.77,-64 89.76,-64 95.58,-64"/>
<polygon fill="#000000" fill-opacity="0.200000" stroke="#000000" stroke-width="2" stroke-opacity="0.200000" points="95.8,-66.1 101.8,-64 95.8,-61.9 95.8,-66.1"/>
</g>
<!-- src/listeners/listener.js&#45;&gt;src/handlers/add_buttonhandler.js -->
<g id="edge3" class="edge">
<title>src/listeners/listener.js&#45;&gt;src/handlers/add_buttonhandler.js</title>
<path fill="none" stroke="#000000" stroke-width="2" stroke-opacity="0.200000" d="M155.22,-73.35C160.72,-75.3 166.54,-77.28 172,-79 177.36,-80.69 183.03,-82.38 188.65,-83.98"/>
<polygon fill="#000000" fill-opacity="0.200000" stroke="#000000" stroke-width="2" stroke-opacity="0.200000" points="188.36,-86.08 194.7,-85.69 189.5,-82.04 188.36,-86.08"/>
</g>
<!-- src/listeners/listener.js&#45;&gt;src/handlers/deleteTodoHandler.js -->
<g id="edge4" class="edge">
<title>src/listeners/listener.js&#45;&gt;src/handlers/deleteTodoHandler.js</title>
<path fill="none" stroke="#000000" stroke-width="2" stroke-opacity="0.200000" d="M156.08,-64C161.74,-64 167.93,-64 174.25,-64"/>
<polygon fill="#000000" fill-opacity="0.200000" stroke="#000000" stroke-width="2" stroke-opacity="0.200000" points="174.59,-66.1 180.59,-64 174.59,-61.9 174.59,-66.1"/>
</g>
<!-- src/listeners/listener.js&#45;&gt;src/handlers/resetButtonHandler.js -->
<g id="edge5" class="edge">
<title>src/listeners/listener.js&#45;&gt;src/handlers/resetButtonHandler.js</title>
<path fill="none" stroke="#000000" stroke-width="2" stroke-opacity="0.200000" d="M155.22,-54.65C160.72,-52.7 166.54,-50.72 172,-49 177.36,-47.31 183.03,-45.62 188.65,-44.02"/>
<polygon fill="#000000" fill-opacity="0.200000" stroke="#000000" stroke-width="2" stroke-opacity="0.200000" points="189.5,-45.96 194.7,-42.31 188.36,-41.92 189.5,-45.96"/>
</g>
</g>
</svg>
